<?xml version="1.0" ?><!DOCTYPE svg  PUBLIC '-//W3C//DTD SVG 1.1//EN'  'http://www.w3.org/Graphics/SVG/1.1/DTD/svg11.dtd'><svg enable-background="new 0 0 512 512" id="Layer_1" version="1.1" viewBox="0 0 512 512" xml:space="preserve" xmlns="http://www.w3.org/2000/svg" xmlns:xlink="http://www.w3.org/1999/xlink"><g><g><circle cx="256" cy="256" fill="#085E84" r="244.4"/></g></g><g><path d="M165.1,197.3h43.6v140h-43.6V197.3z M186.9,127.7c13.9,0,25.2,11.3,25.2,25.2s-11.3,25.3-25.2,25.3   c-14,0-25.3-11.3-25.3-25.3C161.6,139,172.9,127.7,186.9,127.7" fill="#FFFFFF"/><path d="M236,197.3h41.7v19.2h0.6c5.8-11,20-22.6,41.2-22.6c44.1,0,52.2,29,52.2,66.7v76.8h-43.5v-68.1   c0-16.2-0.3-37.1-22.6-37.1c-22.7,0-26.1,17.7-26.1,35.9v69.3H236V197.3z" fill="#FFFFFF"/></g><g><path d="M255.3,474.1c-58.5,0-113.5-22.8-154.9-64.2C59,368.5,36.2,313.5,36.2,255S59,141.5,100.3,100.1   c41.4-41.4,96.4-64.2,154.9-64.2s113.5,22.8,154.9,64.2c41.4,41.4,64.2,96.4,64.2,154.9s-22.8,113.5-64.2,154.9   S313.8,474.1,255.3,474.1z M255.3,51.9C143.3,51.9,52.2,143,52.2,255s91.1,203.1,203.1,203.1S458.3,367,458.3,255   S367.2,51.9,255.3,51.9z" fill="#FFFFFF"/></g></svg>