<svg xmlns="http://www.w3.org/2000/svg" viewBox="0 0 69.58 68.99"><defs><style>.cls-1{fill:#fff;}.cls-2{fill:#2694cb;}</style></defs><g id="Camada_2" data-name="Camada 2"><g id="Dobra_5_-_Pq_desapegar" data-name="Dobra 5 - Pq desapegar"><rect class="cls-1" x="3.93" y="8.29" width="61.14" height="52.4" rx="13.63" transform="translate(34.49 -14.29) rotate(45)"/><path class="cls-2" d="M65.53,28.55l-1.82,1.81-2.48-2.49L63,26.06a1.76,1.76,0,0,1,2.49,2.49ZM50.11,61.16H14.5a1.76,1.76,0,0,1-1.76-1.76V9.59A1.76,1.76,0,0,1,14.5,7.83H41.08V16.9a1.76,1.76,0,0,0,1.76,1.76h9.07V32.32l-5.33,5.2L44,40a1.74,1.74,0,0,0-.44.69L41,48.17a1.73,1.73,0,0,0,.44,1.8,1.82,1.82,0,0,0,1.85.42L51,47.9a1.8,1.8,0,0,0,.7-.42l.22-.21V59.4a1.78,1.78,0,0,1-1.8,1.76ZM46,8.81l5,5a1.91,1.91,0,0,1,.51,1.55h-7v-7A1.94,1.94,0,0,1,46,8.81ZM52.78,41.3l-2.49-2.48,8.45-8.46,2.49,2.49L52.78,41.3Zm-2.49,2.49-.95,1L45.61,46l1.25-3.72,1-.95,2.48,2.48ZM68,23.38a5.3,5.3,0,0,0-7.48,0l-5.31,5.29V14.74A5.23,5.23,0,0,0,53.69,11l-5-5A5.27,5.27,0,0,0,45,4.49H14.68A5.28,5.28,0,0,0,9.41,9.77V59.22a5.27,5.27,0,0,0,5.27,5.27H50a5.27,5.27,0,0,0,5.27-5.27V43.59L68,30.83a5.26,5.26,0,0,0,0-7.45Z"/><path class="cls-2" d="M19,25.33h23.2A1.76,1.76,0,0,0,44,23.9,1.68,1.68,0,0,0,42.32,22H19.11a1.75,1.75,0,0,0-1.77,1.43A1.67,1.67,0,0,0,19,25.33Z"/><path class="cls-2" d="M18.8,32.83H35.34a1.75,1.75,0,0,0,1.78-1.43,1.67,1.67,0,0,0-1.65-1.91H18.93a1.76,1.76,0,0,0-1.78,1.43,1.67,1.67,0,0,0,1.65,1.91Z"/><path class="cls-2" d="M18.8,39.49H35.34a1.75,1.75,0,0,0,1.78-1.42,1.67,1.67,0,0,0-1.65-1.91H18.93a1.76,1.76,0,0,0-1.78,1.43,1.67,1.67,0,0,0,1.65,1.9Z"/><path class="cls-2" d="M37.14,45.33a1.67,1.67,0,0,0-1.67-1.67H18.93a1.76,1.76,0,0,0-1.78,1.43A1.67,1.67,0,0,0,18.8,47H35.47a1.66,1.66,0,0,0,1.67-1.66Z"/><path class="cls-2" d="M42.69,54.49H32.81A1.74,1.74,0,0,0,31,55.92a1.67,1.67,0,0,0,1.65,1.91h9.87a1.74,1.74,0,0,0,1.77-1.43,1.66,1.66,0,0,0-1.64-1.91Z"/></g></g></svg>