<svg xmlns="http://www.w3.org/2000/svg" viewBox="0 0 1205.56 554.72"><defs><style>.cls-1{fill:none;stroke:#2694cb;stroke-linecap:round;stroke-miterlimit:10;stroke-dasharray:12;}.cls-2{opacity:0.3;}.cls-3{fill:#2694cb;}</style></defs><g id="Camada_2" data-name="Camada 2"><g id="Dobra_3_-_Quem_faz" data-name="Dobra 3 - Quem faz"><path class="cls-1" d="M131.25,219.34C185.88,306,200.62,325.41,244.14,343.11c38.75,15.76,95.88,45.72,513.54-18.54,44.82-6.9,180.88-11.46,232.19,32.44,32.32,27.64,43.56,67.4,48,94.83"/><g class="cls-2"><path class="cls-3" d="M1029,486a9.68,9.68,0,0,1-1.49-.13,5.23,5.23,0,0,1-2.48-1.49l-.22-.2a25.68,25.68,0,0,1-2.95-2.95c-1.4-1.7-3.13-4.39-2-8a25.53,25.53,0,0,0,.69-3c.1-.49.19-1,.3-1.5a1,1,0,0,1,.69-.75,1,1,0,0,1,.29,0,1,1,0,0,1,.7.28,3.67,3.67,0,0,1,.63,4.1,5.43,5.43,0,0,0,.18,4.4,2.31,2.31,0,0,0,2,1.5,2.74,2.74,0,0,0,1.72-.71,5.48,5.48,0,0,1,.49-.35l.18-.12a1,1,0,0,1,.58-.18,1,1,0,0,1,.49.13l.45.25a1,1,0,0,1,.41,1.3l-1.74,3.69a.63.63,0,0,0,.65.4h0a5.32,5.32,0,0,0,.95-.14,6.29,6.29,0,0,1,1.24-.19c.31,0,.62-.06.93-.1a8.48,8.48,0,0,1,1.36-.13h.13a1,1,0,0,1,.75,1.64,6.21,6.21,0,0,1-5,2.28Z"/><path class="cls-3" d="M937.53,554.72a8.88,8.88,0,0,1-6.06-2.5,2.27,2.27,0,0,0-1.58-.75h-.18c-.4,0-.8,0-1.19,0a10.11,10.11,0,0,1-7.68-3.26c-.31-.33-.52-.37-.66-.37a1.31,1.31,0,0,0-.58.18,4.11,4.11,0,0,1-1.89.48,4.49,4.49,0,0,1-3.48-1.87c-1-1.27-2.15-2.54-3.22-3.77l-1.29-1.49-.13-.17c-2.61-.91-4-2.9-5.31-4.83a24.84,24.84,0,0,0-1.47-2,61.79,61.79,0,0,1-6.39-9.79l-.45-.8c-.16-.29-.34-.56-.51-.84a10.19,10.19,0,0,1-1.12-2.12l-.48-1.38a33.27,33.27,0,0,1-1.83-6.4,24.55,24.55,0,0,1,0-8.36,44.46,44.46,0,0,0,.64-7.18,39.88,39.88,0,0,1,.88-8.44c.41-1.62,1-3.35,3.25-3.35a7.48,7.48,0,0,1,1.58.21c2.52.54,5.06,1.15,7.52,1.74s4.69,1.12,7,1.63l1.94.45a30.44,30.44,0,0,0,6.84,1.09H922a30.51,30.51,0,0,0,7.63-1.54l1.25-.36c.6-.17.83-.69.65-1.47a5.64,5.64,0,0,1,.27-2.74c.05-.21.11-.43.16-.66-2.71-2.7-1.17-6.19-.24-8.32.1-.24.2-.47.29-.71a11.11,11.11,0,0,1,.78-1.69c.52-.83.44-1.41-.32-2.38a3.81,3.81,0,0,1-.6-3.15c.07-.27.16-.54.25-.81a40.49,40.49,0,0,1-7.72,5.22,4.93,4.93,0,0,1-2.38.66c-2.35,0-4-2-5.13-3.49a3.83,3.83,0,0,1-.56-1.19c-.8-2.89-2.86-4.83-5-6.88-.46-.43-.92-.86-1.37-1.3-2.15-2.12-4.83-4.75-4.87-8.28,0-2.77-1.58-4-3.55-5.45-.47-.36-.94-.71-1.39-1.09l-.22-.2a5.55,5.55,0,0,1-2.08-2.62,8.48,8.48,0,0,0-1.52-2.81,16.67,16.67,0,0,1-1.21-1.87,7.47,7.47,0,0,0-2.24-2.2c-.87-.65-1.79-1.26-2.69-1.86-1.21-.8-2.46-1.63-3.63-2.56a10.63,10.63,0,0,1-2-2.24,8.67,8.67,0,0,1-2.92-2c-.36-.37-.69-.76-1-1.16a12.75,12.75,0,0,0-1.3-1.42,6.87,6.87,0,0,1-1.62-1.92,3.94,3.94,0,0,1-.51-2.28,32.4,32.4,0,0,1-3.85-9.6,20.12,20.12,0,0,1,0-9.21,5.45,5.45,0,0,1,.53-2.77l0-.19a2.24,2.24,0,0,1,.25-.7,9.35,9.35,0,0,0,.18-.92,1.05,1.05,0,0,1,.58-.76c.42-.18,2.78-1.4,3.48-1.8l.12-.06a43.54,43.54,0,0,1,5.09-1.44h0l.15,0a18.56,18.56,0,0,1,3.43-.65h.17l13-2.31c-6.34-2.19-14.71-5.82-17.85-7.18l-1.2-.52a14.75,14.75,0,0,1-4-2.08l-.14-.12a6.3,6.3,0,0,1-3.35-4.61,1.36,1.36,0,0,1,0-.45.94.94,0,0,1,0-.22c.32-1.73,2.78-1.73,3.59-1.73a19.57,19.57,0,0,1,2.8.23c.47.11.89.18,1.29.25s.79.14,1.12.22l.66.17c.4.1.82.21,1.23.3a14.77,14.77,0,0,1,3.46.9l.22.08c1.28.48,2.52.95,3.78,1.29-1-.69-2-1.42-2.9-2.21l-2.27-1.95c-2.1-1.79-4.8-4.09-5.48-4.7-.05,0-4.27-4.65-4.13-6.59a1.32,1.32,0,0,1,.59-1,2.47,2.47,0,0,1,1.37-.36c1.53,0,3.64.93,5.3,1.73l.9.43a21.81,21.81,0,0,1,2.54,1.31,1,1,0,0,1,.28.08c1.9.82,3.77,1.78,5.58,2.71,4.31,2.2,8.42,4.31,13.1,4.9-2-2-4.67-4.87-7.12-7.52-2.12-2.28-4.12-4.43-4.83-5.09L893,356c-2.39-2.17-4.85-4.42-7.24-6.66l-.17-.16a19.67,19.67,0,0,1-3-3.09c-1.24-2.11-1.86-3.64-1-4.52a4.24,4.24,0,0,1,2.3-.74c.19,0,.36-.05.48-.08a.92.92,0,0,1,.44-.1h.14a11.32,11.32,0,0,1,5.42,2.33c2.17,1.67,4.31,3.44,6.38,5.15,1.47,1.21,2.94,2.42,4.43,3.61,1.29,1,2.63,2,3.93,3,1.14.85,2.28,1.71,3.41,2.59l.13.1a42.74,42.74,0,0,1-2.72-6.77c-.24-.74-.49-1.48-.75-2.21a22.84,22.84,0,0,1-1-6.73l0-.41a86.4,86.4,0,0,1,0-9.55c0-.31,0-.63,0-.94a6.7,6.7,0,0,1,1.3-4.61c.55-.64,1-1.23,1.76-1.23a1.45,1.45,0,0,1,.3,0c1.1.3,2.05,2.19,2.06,2.21l1.17,3.06c1.57,4.07,3.18,8.28,4.83,12.4a6.35,6.35,0,0,0,.86,1.38,12.32,12.32,0,0,1,.73,1.05c.64,1.06,1.26,2.12,1.89,3.19,1.22,2.09,2.49,4.25,3.84,6.29a34.58,34.58,0,0,0,2.86,3.53l1,1.1a8.1,8.1,0,0,0,1,.69,45.45,45.45,0,0,1,5,4l.22.2c2.32,1.89,13.93,11.35,20.19,16A23.44,23.44,0,0,0,957,382.4l1.1.54a.49.49,0,0,1,0-.11,4.15,4.15,0,0,0,.29-2.6c-.05-.18-.11-.37-.18-.55a4.25,4.25,0,0,1,.12-4,2.94,2.94,0,0,1,2.41-1.62,3.45,3.45,0,0,1,1.36.31,58.85,58.85,0,0,1,14,8.43,74.4,74.4,0,0,0,6.32,4.41c1.1.72,2.2,1.43,3.28,2.17a48.35,48.35,0,0,1,13.85,14c1.57,2.49,3,5.08,4.45,7.6,1,1.75,2,3.56,3,5.31.51.85,1,1.72,1.5,2.58a42.92,42.92,0,0,0,5,7.57l.37.41c2.22,2.47,4.51,5,7.79,5.8a3.57,3.57,0,0,0,.76.07,9.35,9.35,0,0,0,2.43-.42c1.29-.37,2.6-.83,3.86-1.28.87-.31,1.74-.63,2.62-.91a5.32,5.32,0,0,1,1.24-.2,4.57,4.57,0,0,0,.71-.09,8.16,8.16,0,0,0,1.24-.49l.51-.22c.27-.11.53-.26.8-.4a5.32,5.32,0,0,1,2.32-.81,20.34,20.34,0,0,0,8.48-2.07,25.6,25.6,0,0,1,4.38-1.53c.81-.23,1.65-.46,2.44-.74,1.16-.4,2.34-.86,3.48-1.31.86-.33,1.72-.67,2.59-1s1.57-.61,2.36-.92a33.93,33.93,0,0,1,6.23-2.05,20.82,20.82,0,0,1,4-.38,25.3,25.3,0,0,1,5.88.73,31.25,31.25,0,0,1,8.53,3.88l1.06.61a12,12,0,0,0,6.06,1.88,10.08,10.08,0,0,0,3.68-.73,28.54,28.54,0,0,1,5.32-1.32c1-.18,2-.36,3-.6l.23-.06c3.26-.8,6.63-1.63,9.86-2.67a19.93,19.93,0,0,0,2.73-1.18,18.27,18.27,0,0,1,3.68-1.48,81.66,81.66,0,0,1,13.37-2.41c.49,0,1,0,1.47,0a47,47,0,0,1,6.51.6c1,.14,2,.28,3,.39a23.68,23.68,0,0,1,4.35.76c1.69.5,3.37,1.1,5,1.68.67.25,1.34.49,2,.72a1,1,0,0,1,.67.89,3.41,3.41,0,0,1-2.87,3.81c-1.7.42-3.25.86-4.73,1.33l-.27.1a2,2,0,0,0,.16.21,6.44,6.44,0,0,0,5.3,2.51,31.74,31.74,0,0,1,4.81.49c.75.11,1.51.23,2.26.32,1.46.17,2.67.28,3.8.35l1.65.13c1.06.09,2.15.18,3.19.18.41,0,.82,0,1.22-.05a39.07,39.07,0,0,0,5.81-1.09l.62-.15a33.56,33.56,0,0,0,9.06-4.2,4.39,4.39,0,0,0,1.12-1.28c.2-.28.4-.57.61-.82.35-.43.69-.87,1-1.33l.52-.66a1,1,0,0,1,.67-.37h.12a1,1,0,0,1,.62.22c3.12,2.48,2.12,5.81,1.69,7.23-1.72,5.68-5.72,9.81-11.91,12.28l-3.88,1.58c-1.67.68-3.34,1.36-5,2l-1.16.45c2.08-.24,4.14-.5,6.15-.78,1.06-.14,2.11-.32,3.17-.5,1.45-.25,3-.5,4.46-.67a15.72,15.72,0,0,0,6.43-2.67c1.33-.81,6.83-4.08,7.66-4.4a7.54,7.54,0,0,0,1-.53,6.64,6.64,0,0,1,2-.87l.27,0a1.33,1.33,0,0,1,1.1.55c.25.33.81,1.12-1.7,6.21-.09.18-.17.37-.26.56a9.79,9.79,0,0,1-.91,1.68,45.16,45.16,0,0,1-3.37,3.6,44.17,44.17,0,0,1-11.41,7.12c-1.91.81-3.9,1.45-5.83,2.07-1.24.4-2.52.81-3.76,1.26-1,.36-2,.81-3,1.28a18.64,18.64,0,0,0,4.13.41c1.39,0,2.8-.1,4.16-.2.66-.05,1.31-.1,2-.13s1.49-.07,2.24-.09c3.57-.1,6.94-.2,9.71-2.42a1,1,0,0,1,.62-.22,1,1,0,0,1,.67.25c2.71,2.4,2.29,3.84.4,6a12.75,12.75,0,0,1-4.72,3.08c-.71.33-1.39.64-2,1A52.67,52.67,0,0,1,1178,470.3a1.61,1.61,0,0,0-.33.18,3.69,3.69,0,0,1-.82.4c-.64.19-1.28.37-1.93.54-.87.23-1.76.47-2.61.76s-2,.72-3,1.14l-.46.18a49.12,49.12,0,0,0,9,7.47c1.44,1,2.84,2.09,4.19,3.15.81.63,1.62,1.26,2.44,1.88a11.71,11.71,0,0,0,1.17.72,6.14,6.14,0,0,1,3,2.74,2.73,2.73,0,0,1-.82,3.82,6.52,6.52,0,0,1-4,1.35,13,13,0,0,1-3.85-.73c-4.6-1.46-9.43-3.12-14.33-4.95-2.45-.92-4.88-1.95-7.24-2.95-.9-.38-1.79-.76-2.7-1.13a10.41,10.41,0,0,0,1.36,1.86c2.23,2.28,4.6,4.52,6.88,6.69l2.09,2c1.55,1.47,1.23,2.91.23,4.74a1,1,0,0,1-.88.52h-.08a43.11,43.11,0,0,1-16.74-5q-2-1.05-4-2.05c-2.46-1.23-5-2.5-7.41-3.94a21.92,21.92,0,0,1-3.71-3.05c-.6-.57-1.23-1.17-1.86-1.7l-.78-.61c.89,1.61,1.81,3.26,2.76,4.86.4.69.87,1.34,1.36,2s.82,1.17,1.2,1.77a9.31,9.31,0,0,1,1.17,2.51,3,3,0,0,1-.2,2.61,2.19,2.19,0,0,1-1.84.78,5,5,0,0,1-.63-.05,37.21,37.21,0,0,1-6.51-1.45,51.79,51.79,0,0,0-10.14-2c-2.34-.25-4.8-.58-7.29-1a10.14,10.14,0,0,0-1.66-.13,17.33,17.33,0,0,0-5.13.94,47.49,47.49,0,0,1-5.42,1.22c-.9.16-1.81.33-2.71.52a16,16,0,0,1-2.45.29c-1.65.1-3.07.2-4.24,1.26a3,3,0,0,1-1.88.79c-3,0-6.05.05-9.07.05h-3.42c-.41,0-.81,0-1.22-.05-1.28-.14-2.58-.33-3.83-.51l-1.14-.17a10.57,10.57,0,0,0-1.39-.1,19.58,19.58,0,0,0-5.59,1.06,26.48,26.48,0,0,0-2.53,1c-.48.21-1,.41-1.45.6l-.21.08a4.54,4.54,0,0,1-1.58.42c-2.67.1-4.86,1.36-7.44,3-.58.37-1.16.76-1.73,1.16-1,.68-2.06,1.39-3.16,2a14.15,14.15,0,0,1-2.81,1c-.31.08-.62.17-.92.27a2.53,2.53,0,0,1-.77.09h-.2l-4.12,1.38c-1.83.61-3.65,1.23-5.48,1.83a11.3,11.3,0,0,1-2.85.64h-.6a2.24,2.24,0,0,1-2.47-1.64l-1.83.71c-2.45.94-5,1.93-7.49,2.84-.18.06-.35.14-.53.22a4.9,4.9,0,0,1-2,.53,2.74,2.74,0,0,1-1.73-.62c-2.3,1.07-4.58,2.16-6.86,3.26a4.57,4.57,0,0,1-1.93.48c-1.72,0-2.85-1.31-2.88-3.35a9.67,9.67,0,0,1,.32-2.36c.08-.4.17-.8.23-1.19l0-.15a3.5,3.5,0,0,0,0-1.24l-.24-.14a46.68,46.68,0,0,1-8.23,1c-1,.06-2.06.12-3.08.21-2.83.24-5.68.26-8.35.26h-1.95c-1.39,0-2.78,0-4.16,0a16.17,16.17,0,0,0-2.7.3,6.67,6.67,0,0,1-1.29.16c-2,0-2.27-1.76-2.44-2.81,0,0,0-.07,0-.1l-2.73,1.71h0a1,1,0,0,1,.78.77l.08.24a1.66,1.66,0,0,1,0,1.56,91.9,91.9,0,0,0-4.76,8.11l-.3.55c-2.12,3.9-4.31,8.61-4.44,13.88a83.63,83.63,0,0,1-.8,8.58c-.12.95-.24,1.89-.35,2.84a4,4,0,0,1-.93,2,11.87,11.87,0,0,1-9.25,4.2,13.52,13.52,0,0,0-3.37.49A9.5,9.5,0,0,1,937.53,554.72ZM946,525a1,1,0,0,1,.85.49l.2.33a1,1,0,0,1-.08,1.15c-.43.52-.86,1-1.3,1.54-1,1.12-1.93,2.28-2.79,3.48s-1.49,2.24-2.18,3.38c-.45.74-.91,1.49-1.38,2.22l-.58.89c-1.57,2.41-3.19,4.9-4.87,7.29a2.55,2.55,0,0,0-.12,3.2c1.37,2.24,2.55,2.55,3.63,2.55a7.29,7.29,0,0,0,1.94-.3,18.9,18.9,0,0,1,4.76-.8h0a8.55,8.55,0,0,0,4.57-1.77l.41-.26a4.08,4.08,0,0,0,1.34-2.65c.16-1.39.19-2.84.22-4.25a38.16,38.16,0,0,1,.34-5.31,49,49,0,0,1,1.94-7.35c.18-.54.36-1.09.53-1.64a36.59,36.59,0,0,1,5.7-11.42c.69-.91,1.29-1.86,1.93-2.88l.2-.32-1.2.81a4,4,0,0,0-1.18,1.51c-.37.69-.63,1.26-.86,1.75-1.06,2.3-1.55,3-5.75,4.5a1,1,0,0,1-.33.06,1,1,0,0,1-.62-.22,1,1,0,0,1-.38-.81l-.49,0c-1.83-.21-3.61-.45-5.51-.71l-2.22-.31a1,1,0,0,1-.86-1.11c.25-2-.42-2.3-1.26-2.46a2,2,0,0,1-1.45-1.36c-.49-2.37-.88-5.12.7-7.71a2.69,2.69,0,0,1,1.17-1.07,8.62,8.62,0,0,0,3.07-2.72c.22-.28.45-.55.68-.82a5.06,5.06,0,0,1,2.54-1.59l-.93-.4c-.79-.34-1.57-.68-2.35-1a14.23,14.23,0,0,1-1.59-.89c-.32-.19-.63-.39-1-.56-.73-.4-1.6-.87-2.48-1.26-.49-.22-1-.43-1.48-.63-.8-.33-1.63-.68-2.43-1.09a3,3,0,0,1-1.14-1.24,3,3,0,0,0-.19-.3c-.15-.23-.29-.46-.43-.69l-1.18.47a24.08,24.08,0,0,1-4.45,1.51,24.47,24.47,0,0,1-5,.48c-.62,0-1.24,0-1.85-.05a44.68,44.68,0,0,1-4.54-.61c-1-.18-2.09-.36-3.13-.48a53,53,0,0,1-15.32-3.81c-1.16,3-1.16,6.14-1.15,9.43v.23c.23,0,.47,0,.7,0a15.54,15.54,0,0,1,5.1,1.12,23.32,23.32,0,0,0,2.89.85l1.91.34a30.86,30.86,0,0,1,7.64,2,1,1,0,0,1,0,1.83,9.49,9.49,0,0,1-3.87.8,11.47,11.47,0,0,1-1.61-.11,24.54,24.54,0,0,1-6.35-2,32.43,32.43,0,0,0-4.07-1.5,4.57,4.57,0,0,0-1.15-.17c-.74,0-1.75.22-2,2.14-.15,1.48-.26,3-.37,4.45s-.23,3-.38,4.48a1.42,1.42,0,0,0,0,.19l.33,0h.14a1,1,0,0,1,.67.26,5.42,5.42,0,0,1,2.87-.72,11.12,11.12,0,0,1,1.21.08,29.88,29.88,0,0,0,3.08.16c.88,0,1.82,0,2.8-.11,1.49-.11,3-.32,4.5-.53.9-.12,1.8-.25,2.7-.36h.13a1.53,1.53,0,0,1,1.08.55l.22.2a1,1,0,0,1,.37.9,1,1,0,0,1-.58.79,24.2,24.2,0,0,1-10.1,2.47,18.06,18.06,0,0,1-4-.45,4.26,4.26,0,0,1-1-.41l-.25-.14a1.77,1.77,0,0,0-.72-.18,2.55,2.55,0,0,0-1.64.91c-.35.33-.37.34.16,1.16l.18.28c1,1.53,1.87,3.07,2.78,4.61,1,1.73,2.07,3.47,3.15,5.18a34.35,34.35,0,0,0,2,2.83l.86,1.12h.32c1.92,0,3.86-.94,6-2.08,2.56-1.36,5-2.86,7.59-4.41a8.24,8.24,0,0,0,1.28-1.07c.25-.24.52-.5.81-.76a1,1,0,0,1,.66-.25,1,1,0,0,1,.94.67l.61,1.69a1,1,0,0,1-.42,1.19l-3.52,2.12c-3.38,2-6.88,4.15-10.27,6.27a5.56,5.56,0,0,0-1.16,1.14c4.23,1.76,6.75,4.88,8.75,7.85a8,8,0,0,0,2.8-3.44c.2-.35.39-.71.6-1.05,1-1.77,2.08-3.55,3.11-5.32,1.32-2.27,2.63-4.54,4-6.78l.17-.31c.33-.63.9-1.69,2.1-1.69a2.25,2.25,0,0,1,1.13.33,1,1,0,0,1,.37,1.36l-2.54,4.44c-2.09,3.65-4.07,7.11-6,10.67a2.64,2.64,0,0,0-.35,2.09,3,3,0,0,0,1.65,1.69l.68.34c.58.28,1.19.58,1.78.93a2.67,2.67,0,0,0,1.15.45c.1,0,.37,0,.89-.83a37.15,37.15,0,0,0,2.46-4.59,45.9,45.9,0,0,1,5.81-9.1l1.5-1.92c1.42-1.82,2.89-3.7,4.39-5.51a4.25,4.25,0,0,1,1.54-1c.19-.08.37-.17.54-.26A1,1,0,0,1,946,525Zm-.51-10c0,.74.17,1,.23,1a.85.85,0,0,0,.47.09,18.49,18.49,0,0,1,5.22.73,5.26,5.26,0,0,0,1.42.28,1,1,0,0,0,.91-.42c.15-.21.29-.43.43-.66a2.71,2.71,0,0,1-1.69.58,4,4,0,0,1-1.81-.49,10.27,10.27,0,0,0-4.55-1.16Zm56.73-4.54c-.19.94-.36,1.8-.56,2.64s-.16,1.08,0,1.15a.94.94,0,0,0,.37.06,1.73,1.73,0,0,0,.66-.13c1-.41,1.89-.91,2.87-1.43l1.28-.68c1.51-.77,2-2.21,2.53-3.88l.15-.43-7.11,1.92Zm-46.61-6a1,1,0,0,1,.82.43,1,1,0,0,1-.12,1.29,28.83,28.83,0,0,1-3.28,2.65l-.75.55c-.42.31-.47.35-.47.74a4.7,4.7,0,0,0,.86,2.55,29,29,0,0,1,7.8-8.42c-.22-.3-.54-.38-1.51-.6a1,1,0,0,1-.78-1.08l-2.88-.21a4.93,4.93,0,0,1-.4,2.34l.28-.14A1.12,1.12,0,0,1,955.56,504.49ZM944,511.58a3,3,0,0,1,.42,0l3.72.51-.13-.26-.24-.06-5-1.95c-.08.33-.15.68-.2,1a2.89,2.89,0,0,0,0,.81h.18a5,5,0,0,0,.71-.06A3.66,3.66,0,0,1,944,511.58Zm69.61-4.21c-.16.29-.34.57-.51.84-.82,1.33-1.3,2.22-.84,3.39,7.52-2,9.73-3.51,11.25-5.47l-1.21.3a27.52,27.52,0,0,1-6.67,1.09A13.43,13.43,0,0,1,1013.64,507.37Zm-53.1.42a14.54,14.54,0,0,0-1.62,1.74c-.24.3-.47.62-.7.94l.19-.09a10.66,10.66,0,0,0,1-.47c.87-.47,1.66-.91,2.4-1.39A1.41,1.41,0,0,1,960.54,507.79Zm78.11-8.29-1,.51-2.38,1.12c-.94.44-1.89.88-2.82,1.34a3.21,3.21,0,0,0-1,.82c-1.28,1.54-2.53,3.14-3.71,4.65-.22.28-.43.57-.64.86,1.53-.42,3-.91,4.16-1.3,3.19-1.07,5.5-2.4,6.39-5.37A25.86,25.86,0,0,1,1038.65,499.5Zm-66.41,1.72a.92.92,0,0,1,.46.11,1,1,0,0,1,.54.94,10.27,10.27,0,0,1-1.92,5c-.29.46-.56.9-.81,1.36a30.3,30.3,0,0,1,3.08-.27c.7,0,1.4,0,2.1,0h4.12c1.08,0,2.16,0,3.24-.05a24.54,24.54,0,0,0,3.08-.4c.72-.13,1.45-.25,2.18-.34,1.61-.19,3.23-.34,4.85-.49l2.9-.29,1.72-.17c1.91-.19,3.89-.39,5.81-.64,5.72-.73,9.29-3,11.25-7.13a5.74,5.74,0,0,1,3.22-2.83,1,1,0,0,1,.4-.09,1,1,0,0,1,.71.29,1,1,0,0,1,.22,1.1l-2.82,6.65a3,3,0,0,0,.46.05h.14c.64-.12,1.29-.23,1.94-.33a18.62,18.62,0,0,0,4.9-1.22,163.75,163.75,0,0,0,15.71-8.15,61.65,61.65,0,0,0,9.45-7.48,63.51,63.51,0,0,0,5.69-6.23l1-1.17a19.57,19.57,0,0,0,1.67-2.49l.24-.39-1.17-.41c-2-.67-3.81-1.31-5.67-1.92a4.25,4.25,0,0,0-.81-.1,3.37,3.37,0,0,1-1.9-.55,25.73,25.73,0,0,1-4.31-4.12l-.25-.31a12,12,0,0,0-3.8-3.61c-.63-.31-1.28-.58-2-.87a24.3,24.3,0,0,1-2.79-1.31,10.88,10.88,0,0,1-4.32-4.51,11.08,11.08,0,0,1-1-5.26l0-.83a22.31,22.31,0,0,1,2-9.05c.24-.6.49-1.19.75-1.78a23.12,23.12,0,0,0,1.53-4.3,8,8,0,0,0,.19-3.15l-12.43,3.12a.72.72,0,0,1-.25,0,1,1,0,0,1-.67-.25,1,1,0,0,1-.32-.88l0-.36c-3.64-1.54-7.59-3.69-10.24-7.66-1.46-2.18-2.78-4.49-4-6.73-.59-1-1.17-2.06-1.77-3.08-.71-1.21-1.42-2.42-2.12-3.64-1.76-3-3.59-6.19-5.5-9.21-1.14-1.78-2.45-3.52-4.4-4.16a37,37,0,0,0-6.71-1.59,37,37,0,0,1-11.29-3.31,43.41,43.41,0,0,1-10.86-7.08,16.85,16.85,0,0,0-3.41-2.57,12,12,0,0,0-2.19-.79,14,14,0,0,1-2.6-1,82.24,82.24,0,0,1-7.78-4.68c-2.3-1.55-4.41-3.24-6.73-5.13a.91.91,0,0,0-.28-.18s-.1.07-.33.32c-.56.61-1.22,1.3-1.92,1.93-1.3,1.17-2.61,2.32-3.92,3.48l-2.92,2.57a6.93,6.93,0,0,0-2.4,4.35c-.7,4.47.17,7.85,2.75,10.65.75.8,1.56,1.59,2.34,2.36s1.73,1.68,2.55,2.58c3.12,3.41,7.08,5.43,10.55,7a39.22,39.22,0,0,1,10.86,7A27,27,0,0,1,965,427.73l.51,1.28c1.54,3.77,3.12,7.66,2.27,12.16-.17.89-.27,1.79-.38,2.74s-.21,1.72-.36,2.58a6.36,6.36,0,0,0,.53,3.53,13.31,13.31,0,0,0,2.73.39,3.91,3.91,0,0,0,1-.11,38.61,38.61,0,0,1,9.06-1.34c.45,0,.9,0,1.36,0a7.61,7.61,0,0,1,6.5,4.85c1.2,3.79.37,7.62-2.53,11.7-2.5,3.51-6,6.59-10.93,9.7a15.78,15.78,0,0,0-3.37,3.2.93.93,0,0,0-.14.21h0a1.67,1.67,0,0,0,.54.44,3.2,3.2,0,0,0,1.66.51,5.11,5.11,0,0,0,2.53-.87,1,1,0,0,1,.51-.14,1,1,0,0,1,.44.1,1,1,0,0,1,.55.78.89.89,0,0,0,0,.14,1.35,1.35,0,0,1-.19,1.23,5.45,5.45,0,0,1-4.16,1.64,6,6,0,0,1-4-1.36,3.27,3.27,0,0,1-.66-4.53,16.94,16.94,0,0,1,3.21-3.41c1.15-.93,2.38-1.75,3.57-2.56a25.38,25.38,0,0,0,5.84-4.8c1.86-2.25,3.77-4.58,3.52-7.83-.21-2.78-2.09-4.78-3.29-4.94a12.82,12.82,0,0,0-1.71-.11c-1.11,0-2.29.12-3.42.23l-.85.08c-.92.08-1.85.23-2.76.38a32.3,32.3,0,0,1-4,.46h-.19c-2.74,0-4.6-2-4.65-4.87,0-.36,0-.72,0-1.09a25.58,25.58,0,0,0-.2-3.86c-.34-2.19-.79-4.43-1.22-6.58l-.12-.61c-2.29,2.8-4.8,5.3-7.23,7.74-1.21,1.2-2.41,2.4-3.58,3.63-2.42,2.55-5,5.06-7.41,7.49-1.51,1.49-3,3-4.51,4.5-.42.43-1.05,1.07-1.11,1.47a9.74,9.74,0,0,1-2,4.36,3.23,3.23,0,0,0-.89,2.45.52.52,0,0,0,.21,0,2.12,2.12,0,0,0,1-.53,4.12,4.12,0,0,1,2.06-1,4.73,4.73,0,0,0,2-1.31,14.14,14.14,0,0,1,1.22-1,.94.94,0,0,1,.58-.19,1,1,0,0,1,.62.22l.47.37a1,1,0,0,1,.38.75,1,1,0,0,1-.31.77,27,27,0,0,0-8,14.76,5.23,5.23,0,0,0,1.73.28,13.61,13.61,0,0,0,3.3-.57c.49-.13,1-.25,1.48-.36,2.22-.47,3.33-1.46,3.68-3.29a4.54,4.54,0,0,1,.65-1.46l.21-.37a36.09,36.09,0,0,1,6.33-8.36,17.75,17.75,0,0,1,2-1.65q.45-.31.87-.66a1.06,1.06,0,0,1,.63-.21,1,1,0,0,1,.69.28,1,1,0,0,1,.1,1.32,80.64,80.64,0,0,0-6.56,10.75,1.73,1.73,0,0,0-.31.9h0a2.44,2.44,0,0,0,1.06.18h.88a3.77,3.77,0,0,0,.83-.07,28.73,28.73,0,0,0,14-7.74c2.51-2.44,5.12-4.86,7.63-7.19l.85-.78a1.27,1.27,0,0,1,.91-.33l.36,0,.31,0a1,1,0,0,1,.79,1.62c-.23.29-.44.58-.64.86a13.62,13.62,0,0,1-1.43,1.75c-3,2.9-6,5.77-8.91,8.53a20.69,20.69,0,0,1-9.63,5.24,52.24,52.24,0,0,0-11.73,3.79,21.46,21.46,0,0,1-9.39,2.58h-.59c.55,2.7,1.54,3.54,4.54,4.33a5.34,5.34,0,0,0,1.3.17,4.59,4.59,0,0,0,2.61-.81c2.31-1.55,4.61-3.22,6.83-4.84,1.52-1.11,3-2.22,4.59-3.3a4.21,4.21,0,0,1,1.8-.62l.62-.13a.82.82,0,0,1,.26,0,1,1,0,0,1,1,.72l.13.45a1,1,0,0,1-.19.9,2.11,2.11,0,0,1-.53.59l-.11.07q-5.42,3.71-10.86,7.4c-.87.59-1.35,1.21-1.34,1.74s.5,1.15,1.39,1.73a8.9,8.9,0,0,0,1,.52c.35.18.7.35,1,.56a1.5,1.5,0,0,0,.69.29c.08,0,.29-.24.5-.86a1,1,0,0,1,.82-.68h.13a1,1,0,0,1,.83.44l2.16,3.21a8.79,8.79,0,0,1,3-.55,7.71,7.71,0,0,1,6,2.79c1.05-1.33,2.3-2.71,4.53-2.71a1,1,0,0,1,.93.57,1,1,0,0,1-.1,1.06c-1.13,1.4-2.36,2.67-3.54,3.9l-.54.57c-.31.32-.6.65-.91,1a2.39,2.39,0,0,1,1.33.92l6-4.69A1,1,0,0,1,972.24,501.22Zm-22.69,7.25.54-.58-.86.39Zm-4.1-1.93c.39.15.78.28,1.18.4a7,7,0,0,1,3-1.91l.2-.08a8.87,8.87,0,0,1-1.12-.72,2.15,2.15,0,0,0-.27-.17l-.17.13c-.95.81-1.93,1.59-2.88,2.34Zm109.12-21.18c-2.15,2.27-4.38,4.62-6.76,6.75a13.93,13.93,0,0,0-4,5.36c-.56,1.41-1.24,2.77-1.9,4.09-.41.83-.83,1.65-1.21,2.49a3.46,3.46,0,0,0-.18.59,9.49,9.49,0,0,0,2.22-.72c.94-.52,1.87-1.13,2.77-1.73a33,33,0,0,1,3.83-2.27,7,7,0,0,0,4-5.19c.72-3.14,1.51-6.32,2.28-9.39l.36-1.45Zm14.72-16.74a9.68,9.68,0,0,1-2,1.13,2.55,2.55,0,0,0-1.77,2.37,6,6,0,0,1-2.82,4.36c-2.48,1.38-3,3.67-3.47,6.51-.37,2.29-.87,5.31-1.56,8.34-.28,1.22-.66,2.42-1,3.58-.27.83-.53,1.67-.76,2.51a1.46,1.46,0,0,0,0,.21,2.12,2.12,0,0,0,.49-.06c1.07-.29,2.14-.61,3.21-.92,2-.6,4.13-1.21,6.25-1.63,1.69-.33,1.69-.33,2-2.13a24.06,24.06,0,0,0,.26-2.46c0-.64.1-1.28.18-1.92.21-1.69.44-3.38.67-5.08.5-3.64,1-7.41,1.34-11.12l0-.33c.15-1.6.17-2.7-.73-3.52Zm49.09-10.57a2.74,2.74,0,0,0-1.13.27,1.31,1.31,0,0,0-.76.66,1,1,0,0,0,.14.78l1.24,2.32c.67,1.24,1.33,2.48,2,3.73,2.42,4.69,6,8.57,9.52,12.06a54.94,54.94,0,0,0,4.38,3.82c1.06.86,2.16,1.76,3.2,2.69,4.47,4,9.94,7.15,17.72,10.19a60.55,60.55,0,0,0,6.76,2.05l.89.23-2.5-2.5c-3.63-3.64-7.38-7.41-11.1-11.08a45,45,0,0,0-4.78-4.16l-.94-.7a79.76,79.76,0,0,1-10.42-8.53,31.16,31.16,0,0,0-3-2.58,4.4,4.4,0,0,0-.73-.43,5.18,5.18,0,0,1-1.28-.85c-1-1-2-2-3-3-1.26-1.27-2.56-2.59-3.88-3.83A3.58,3.58,0,0,0,1118.38,458.05Zm-46.26,37.39a38,38,0,0,0,5.78.62h.14a44.74,44.74,0,0,0,7.3-.85,1.86,1.86,0,0,0,1.27-.9,2.58,2.58,0,0,0,.21-2.09c-1.22-3.75-2.19-7.2-1.61-11.24,0-.54-.09-1.09-.13-1.66-.11-1.46-.23-3-.4-4.48-.37-3.18-.76-6.1-1.2-8.92a1.16,1.16,0,0,0-1.31-1.15h-.24a18,18,0,0,0-4.64.75,5,5,0,0,0-3.5,3.83c-.29,1.85-.41,3.78-.53,5.65-.09,1.42-.18,2.89-.35,4.33-.19,1.62-.46,3.25-.72,4.82-.23,1.35-.47,2.75-.64,4.12-.25,2-.41,4.1-.51,6.76a1.24,1.24,0,0,0,.19.26Zm37.82-36.63a4.34,4.34,0,0,0-2.21.71,2.1,2.1,0,0,0-1,2.55c1,3.13,1.83,5.51,2.67,7.72.49,1.28,1,2.58,1.56,3.83.65,1.53,1.31,3.11,1.89,4.71a34.23,34.23,0,0,0,7.16,11.46l.22.24a6.72,6.72,0,0,0,2.23,1.89c2.68.92,5.47,1.67,8.17,2.4l2.36.65.49.11a11.83,11.83,0,0,0-.93-1.64,76.59,76.59,0,0,1-8.36-13.95,42.25,42.25,0,0,0-2.5-4.79c-2-3.28-4-6.43-5.92-9.38a55.2,55.2,0,0,0-4.22-5.8A2.08,2.08,0,0,0,1109.94,458.81Zm-16.85,3.61a53.73,53.73,0,0,0-6,.93,1,1,0,0,0-.81,1.23c.17,1.19.4,2.4.63,3.58.26,1.36.54,2.77.72,4.18a58.75,58.75,0,0,1,.56,7.74,27.46,27.46,0,0,0,1.51,10.07c1.18,3.16,2.33,3.16,2.71,3.16a2.25,2.25,0,0,0,.73-.13.93.93,0,0,1,.23,0c.87-.08,1.65-.13,2.37-.19a40,40,0,0,0,4-.4l.28-.05c1.27-.2,1.46-.36,1.49-.85l0-.57a6.59,6.59,0,0,0-.18-2.9,60.68,60.68,0,0,1-3.2-9.84c-.3-1.16-.6-2.32-.93-3.47l-1-3.56q-1.05-3.75-2.14-7.48c-.34-1.14-.51-1.42-.91-1.42Zm8.51-1.52a12.36,12.36,0,0,0-2.83.68,1.37,1.37,0,0,0-1.09,1.71,23.6,23.6,0,0,0,.53,2.3l.1.4c.4,1.5.78,3,1.17,4.52,1,4.11,2.13,8.35,3.33,12.47l0,.18c.51,1.75,1,3.56,2.37,4.81,2.43,2.3,5.4,3.39,9.34,3.45a3.76,3.76,0,0,0-.57-3,107.17,107.17,0,0,1-7.56-17.56c-.18-.5-.34-1-.51-1.49-1-2.9-1.89-5.63-3.7-8A1.91,1.91,0,0,0,1101.6,460.9Zm26.46-5a4.68,4.68,0,0,0-1.45.27c-1.49.51-1.75.95-1.79,1.11s0,.67,1.12,1.94a12.27,12.27,0,0,0,1,1c.54.47,1.11.91,1.67,1.35a22,22,0,0,1,3.54,3.22,37.7,37.7,0,0,0,7.85,7c8.22,5.7,17.07,9.93,27.83,14.53a84.52,84.52,0,0,0,12.06,3.77,15.63,15.63,0,0,0,3.75.3l-.78-.57a37.77,37.77,0,0,0-5.21-3.44c-5.76-3-10.45-7.32-14.58-11.16l-.31-.29a10.35,10.35,0,0,0-3.4-2.43c-1.18-.44-2.35-.92-3.48-1.4l-2.18-.89a102.81,102.81,0,0,1-16-7.83,44.12,44.12,0,0,1-7.27-5.35A3.39,3.39,0,0,0,1128.06,455.89Zm-72.4,14.5a5.78,5.78,0,0,1,4,1.47,16.48,16.48,0,0,1,1.4,1.48c.55-.69.71-1,.54-1.65a2.45,2.45,0,0,1,.35-1.83q1.08-2,2.15-4c2.23-4.14,4.54-8.42,6.92-12.56a50.42,50.42,0,0,1,3.81-5.48l.91-1.2a3.32,3.32,0,0,1,2.14-1.12c.73-.1,1.46-.15,2.16-.19a23.78,23.78,0,0,0,2.61-.26c1.19-.22,2.37-.51,3.6-.84a3.15,3.15,0,0,1-.29-.22,8.17,8.17,0,0,1-.93-.93,4.91,4.91,0,0,0-.93-.87,3.91,3.91,0,0,1-2.25-3.65c-.1-.11-.27-.26-.38-.37a5.68,5.68,0,0,1-.5-.46c-.32-.35-.65-.68-1-1a20.21,20.21,0,0,1-2.28-2.58,3.21,3.21,0,0,1-.42-1.83,2.53,2.53,0,0,0-.07-.79,4.51,4.51,0,0,0-.85-1.15c-.2-.23-.4-.46-.59-.7a1,1,0,0,1,.48-1.57l.28-.1a1.65,1.65,0,0,1,.58-.13,1.12,1.12,0,0,1,.61.19,10.43,10.43,0,0,0,6.16,1.77,24.17,24.17,0,0,1,4,.56c.56.11,1.12.22,1.68.31a1,1,0,0,1,.52.24,8,8,0,0,1,2-.95c-1-.62-2-1.27-2.9-1.9a41.7,41.7,0,0,0-9.08-5l-1.09-.4a13.82,13.82,0,0,0-4.73-1.15,4.36,4.36,0,0,0-.62,0c-1.19.11-2.39.19-3.58.26-.68.05-1.37.09-2.05.15a2.56,2.56,0,0,0-.5.11c-.69.24-1.38.46-2.07.69-1.68.56-3.43,1.13-5.11,1.76-3.32,1.25-6.54,2.52-9.56,3.78-3.53,1.47-6.75,2.69-10.37,2.69h-.74a1.89,1.89,0,0,0-1.84,1c-.15.28-.12.42.45,1.13l.25.3a4,4,0,0,1,.27,4.88c-.39.65-.79,1.28-1.19,1.92-.68,1.07-1.38,2.18-2,3.29a20.32,20.32,0,0,0-2.74,8.65l0,.36c-.11,1.63-.21,3.17.65,4.51a10.54,10.54,0,0,0,5.49,4.48,10.78,10.78,0,0,1,1.5.66l.66.31c2.4,1.09,3.94,3,5.44,4.84.38.47.76.94,1.15,1.39a5.26,5.26,0,0,0,4.37,1.94,15.14,15.14,0,0,0,2.25-.2A9.05,9.05,0,0,1,1055.66,470.39Zm84.82-19.63a6.4,6.4,0,0,0-2.09.34,23.23,23.23,0,0,0-3.34,1.62c-.32.18-.64.36-1,.53s-.56.4-.59.56a1,1,0,0,0,.32.69,11.74,11.74,0,0,0,1.59,1.43c.44.35.89.71,1.31,1.11,4.42,4.23,9.76,6.69,14.4,8.53l.75.31c1,.4,1.94.78,2.93,1.08l1.58.51a17.82,17.82,0,0,0,4.46,1.1c1.11.06,2.19.1,3.22.1a34.73,34.73,0,0,0,11.84-1.89l3.28-1.12c2-.68,4.08-1.38,6-2.18a76.11,76.11,0,0,0,7.84-3.77,12.13,12.13,0,0,0,1.27-.79c-.81.17-1.62.33-2.44.46l-.15,0c-2.47.4-5,.81-7.56,1-1.25.09-2.51.13-3.75.13s-2.49,0-3.71-.13a43.78,43.78,0,0,1-7.78-1.09c-5.66-1.47-11.14-3.16-15.29-4.46-1.65-.52-3.29-1.14-4.88-1.73s-3.46-1.3-5.22-1.83A10.61,10.61,0,0,0,1140.48,450.76ZM958.64,432.69c-1.09,1.23-2.2,2.51-3.4,3.69-2.76,2.75-5.61,5.49-8.37,8.14l-3.28,3.16c-.26.24-.52.48-.8.7l-.64.53-7.29,5.92a36.14,36.14,0,0,1-8.26,5.24,29.66,29.66,0,0,0-6.3,3.91,2.13,2.13,0,0,0-.79,2.09,3,3,0,0,0,1.86,2.34,2.87,2.87,0,0,0,1.09.22,4.94,4.94,0,0,0,2.9-1.32c2.66-2.05,5.26-4.29,7.78-6.45l2.27-1.95c.51-.43,1-.89,1.47-1.35a22.36,22.36,0,0,1,2.69-2.31,48.21,48.21,0,0,0,8.92-8.15c.86-1,1.73-2,2.6-2.93a71.88,71.88,0,0,0,7.91-9.92c.84-1.36,1-1.66.39-2.42Zm135.3,12.14a5.74,5.74,0,0,0-2.82.8,24.28,24.28,0,0,1-7,2.9,13.75,13.75,0,0,0-8.84,5.64,32.81,32.81,0,0,0-2.13,3.28,44.65,44.65,0,0,0-3.62,7.88l.29-.13a47,47,0,0,1,4.9-2c2.55-.82,5.17-1.53,7.71-2.21l3.53-1c.3-.08.59-.19.88-.29a9.35,9.35,0,0,1,1.8-.5c.87-.13,1.75-.21,2.6-.29,1-.09,2-.18,2.94-.35,1.6-.27,3.2-.59,4.81-.91,2.13-.42,4.33-.85,6.53-1.18,2-.3,4-.52,6-.74,2.38-.25,4.83-.52,7.2-.93a55.63,55.63,0,0,0,14.15-4.44c1.73-.8,3.45-1.63,5.16-2.47l1.39-.65a25,25,0,0,0,3.22-1.67c2.35-1.53,4.82-3.28,7.78-5.51l.46-.34a30,30,0,0,0,4.54-3.9,23.88,23.88,0,0,0,2.48-3.68l.33-.55c-.49-.09-1-.18-1.41-.29-4.35-1-9.22-2.5-12.06-7.39a1.66,1.66,0,0,0-.71-.39l-2.31-.77c-2.86-1-5.82-1.95-8.77-2.76a13,13,0,0,0-3.47-.65,5.35,5.35,0,0,0-1.88.33,170.41,170.41,0,0,1-19.83,5.56q-2.89.68-5.77,1.38c-1.67.42-3.29.95-5,1.51l-1.12.36.11.19a5.76,5.76,0,0,0,1.32,1.77,19,19,0,0,1,7.49,11.46,9,9,0,0,1-2,8,1,1,0,0,1-.8.4,1.09,1.09,0,0,1-.54-.16c-.18-.12-.36-.21-.53-.31a3.07,3.07,0,0,1-1.9-2.27c0-.09-.18-.6-1.43-1.46A6.42,6.42,0,0,0,1093.94,444.83ZM956.84,426.6a6.82,6.82,0,0,0-1.14.75c-1.15,1-2.28,2.09-3.4,3.15l-2.59,2.41a26,26,0,0,1-7.58,5.16l-.43.18c-.55.23-1.09.45-1.62.71-.68.33-1.35.68-2,1-1.19.62-2.42,1.25-3.68,1.8-2.39,1.05-5.21,2.25-8.07,3.24-1.66.58-3.37,1.08-5,1.57-1.35.39-2.75.8-4.1,1.25l-.94.31a41.58,41.58,0,0,0-6,2.33c-.81.42-1.29.83-1.36,1.15s.08.79,1,1.88c.55.65,1.11,1.29,1.67,1.93,1,1.15,2,2.34,3,3.57a2.61,2.61,0,0,0,2.21,1l.71,0a13.07,13.07,0,0,0,7-2.37c1.87-1.17,3.71-2.5,5.48-3.79s3.54-2.59,5.4-3.76a59.89,59.89,0,0,0,9-7.49c1.14-1.09,2.31-2.21,3.51-3.28a78.88,78.88,0,0,0,6.7-7.1c.69-.8,1.38-1.59,2.08-2.38,1.21-1.35,1.34-2.18.34-3.31Zm207.35,27.12h4.48a29.18,29.18,0,0,0,10.07-2.19c2.61-1,5.21-2.21,7.71-3.4,1.8-.86,3.67-1.75,5.54-2.54a18.48,18.48,0,0,0,4.33-2.84l.48-.38.24-.21a8.72,8.72,0,0,0,1.92-2.11c.3-.41.6-.81.92-1.19a24.76,24.76,0,0,0,1.56-2.32,7.58,7.58,0,0,0-1.13.72l-.18.13a4.17,4.17,0,0,1-1.41,1.2l-.12.08a68.88,68.88,0,0,1-7.84,4.33c-3.93,1.77-8.19,2.15-12.32,2.52-1.2.11-2.44.31-3.64.51-1.36.22-2.77.45-4.19.56-.48,0-1,.05-1.44.05-.89,0-1.79-.05-2.67-.1s-1.6-.09-2.39-.09h-.59c-.89,0-1.77,0-2.65,0s-1.78,0-2.68,0l-1.92,0a12.69,12.69,0,0,1-3-.57l-.49-.13a8.89,8.89,0,0,0-2.2-.33,4.26,4.26,0,0,0-3.13,1.29,12.7,12.7,0,0,1-2.13,1.59l.69.33a43.71,43.71,0,0,0,4.27,1.86,98.29,98.29,0,0,0,9.79,2.92,15.21,15.21,0,0,0,3.42.27Zm-263.44-13c.34.18.67.37,1,.58s.68.42,1,.62a18.57,18.57,0,0,1,2.94,2,6.16,6.16,0,0,0,4.36,1.66,14.38,14.38,0,0,0,3.55-.54c1.15-.3,2.32-.68,3.45-1,1.38-.45,2.81-.92,4.27-1.25,6.36-1.45,12.6-4.17,19.67-8.57a58.6,58.6,0,0,0,12.47-9.89c1-1.11,1.39-2.49.81-3.15l-.43-.49a34.3,34.3,0,0,0-5.16-5.07,43.52,43.52,0,0,0-6.37-3.59l-1.35-.66a3.87,3.87,0,0,0-1.72-.45,3.06,3.06,0,0,0-1.31.3,22.24,22.24,0,0,1-2.14.86c-.32.12-.65.23-1,.36l-22.51,8.7c-.92.36-1.84.74-2.76,1.12a54.49,54.49,0,0,1-6.27,2.32c-1.33.36-2.69.68-4,1a41.75,41.75,0,0,0-9.17,2.91l-.39.22.18.14,1.62,1.34c2.5,2.08,4.87,4.06,8.14,4.24,1.15.07,2.5.13,3.83.13,1,0,1.89,0,2.73-.11a23.13,23.13,0,0,0,3.86-.77l1.41-.36,2.54-.58c2.39-.55,4.87-1.12,7.26-1.81,3-.88,6.05-1.92,8.94-3.08a46.59,46.59,0,0,0,4.39-2.12c.69-.36,1.37-.72,2.07-1.06.44-.22.88-.42,1.33-.62a12.56,12.56,0,0,0,2.45-1.28c1.36-1,2.69-2.08,4-3.15.77-.63,1.54-1.27,2.32-1.89a5.62,5.62,0,0,1,1.21-.67c.14-.06.29-.12.42-.19a.93.93,0,0,1,.45-.11,1,1,0,0,1,.86.47l.25.41a1,1,0,0,1-.17,1.26l-.87.81-2,1.9c-.26.23-.51.47-.76.72a12.73,12.73,0,0,1-2.24,1.86,84.41,84.41,0,0,1-18,8.71c-4.62,1.46-9.33,2.9-13.88,4.28l-2.76.84c-1.15.36-2.31.7-3.47,1-1.44.42-2.89.85-4.32,1.29A3.24,3.24,0,0,0,900.75,440.75Zm188.28-2.2a25.86,25.86,0,0,1,2.71.31,18.07,18.07,0,0,1,9.42,5.37,12.84,12.84,0,0,0-6-11,1.83,1.83,0,0,0-1.08-.31,3.37,3.37,0,0,0-1.73.54,11.92,11.92,0,0,0-4,4.7l-.16.31Zm65.21,3.58a2.86,2.86,0,0,0,1.58.61l.27,0,2.32-.29a58,58,0,0,0,7.23-1.2,119.45,119.45,0,0,0,12.48-4,24.07,24.07,0,0,0,7.91-4.32,28.08,28.08,0,0,0,4.77-6.09l.39-.61c-1.53,1.54-3.13,3.11-5.63,3.61-.88.18-1.73.42-2.64.68s-2,.58-3.11.77l-1.77.34a41.48,41.48,0,0,1-7.7,1l-.89,0c-1,0-1.89-.05-2.85-.05h-2.34l-1.76,0C1161.13,436.78,1157.66,439.51,1154.24,442.13Zm-66.14-.95a4.12,4.12,0,0,0,1.09.31Zm-1.79-1.25.36.31a.86.86,0,0,1,0-.36A1.86,1.86,0,0,1,1086.31,439.93Zm-2.45-3.57c.57.52.88.58,1,.58.29,0,.73-.46,1.19-1.26a20.94,20.94,0,0,1,1.65-2.48l-1.74-.13A4,4,0,0,1,1083.86,436.36ZM882.2,421.18l.39.33a16.76,16.76,0,0,1,1.26,1.4c.87,1,1.69,2,2.84,2.18a2.41,2.41,0,0,1,.6.16c.68-.14,1.35-.28,2-.44l2.6-.64a113.19,113.19,0,0,0,14.92-4.36c4.41-1.74,8.95-3.37,13.33-4.95,2.93-1.06,5.87-2.12,8.78-3.21,2-.74,3.93-1.62,5.83-2.47l1.87-.83a2.41,2.41,0,0,0-1.28-.37,3.07,3.07,0,0,0-.53,0c-4.21.88-8,1.85-11.58,2.94-1.45.44-2.9,1-4.31,1.6a46.14,46.14,0,0,1-5.07,1.83c-3.61,1-7.33,1.8-10.93,2.57l-2.94.64c-2.42.53-4.84,1-7.18,1.35C890.72,419.29,884.38,420.62,882.2,421.18ZM1141.76,419a29.08,29.08,0,0,0,8.58,1.47c.63,0,1.26,0,1.87-.08A41.69,41.69,0,0,0,1141.76,419ZM877.12,404.7a13.42,13.42,0,0,0,.12,4,28.82,28.82,0,0,0,3.23,8.58c1.15-.23,3-.42,5-.62.92-.08,1.87-.18,2.11-.23a13.89,13.89,0,0,1,2.9-.41h.44l.8,0a25.93,25.93,0,0,0,5.9-.92c1.21-.29,2.46-.58,3.73-.77a87.43,87.43,0,0,0,8.7-1.9,88.68,88.68,0,0,0,12.61-4.6,35.52,35.52,0,0,1,5.79-1.72c1-.23,2-.46,3-.74a4.46,4.46,0,0,0,1.29-.49,2,2,0,0,0-.32-1c-1.33-1.58-2.38-2.44-4.08-2.44a8.16,8.16,0,0,0-2,.31,56.43,56.43,0,0,1-8.63,1.61c-5.41.62-9.78,1-13.77,1.18-4.47.21-9,.28-13.41.34l-4.67.08h-.12c-.4,0-1.53,0-2.74,0a33.82,33.82,0,0,1-3.49-.12l-.35-.05C878.41,404.84,877.76,404.76,877.12,404.7Zm.59-3.52c.61.05,1.24.13,1.93.24,1.29.2,9.7.48,13.47.48H894l2.16,0c3.12-.06,6.34-.12,9.48-.38,4.1-.33,8.6-.84,13.75-1.57a46.08,46.08,0,0,0,6.36-1.56c.77-.23.95-.46,1-.55a1.1,1.1,0,0,0-.12-.74c-.28-.65-.51-1.32-.73-2a17.83,17.83,0,0,0-1-2.55,2.1,2.1,0,0,0-1.1-.37h-.13c-2,0-4,.08-5.91.15l-2.88.1c-.68,0-1.35,0-2,0-1,0-2,0-3,.08l-3,.15c-3,.15-6.1.3-9.09.68-3.21.4-9.8,1.77-10.16,1.86a27.87,27.87,0,0,1-3.6,1,16.15,16.15,0,0,0-5.47,1.94,12.49,12.49,0,0,1-.4,1.55S877.74,401.06,877.71,401.18Zm83.82-23,.41,2c.06.31.15.63.24.95a5.13,5.13,0,0,1,.26,2.88c-.19.62-.09.74.48,1.29a44.63,44.63,0,0,0,9.86,6.88,32.37,32.37,0,0,0,5.47,2.28c2.32.72,4.71,1.38,7,2,1.33.37,2.66.73,4,1.11-.51-.43-1-.86-1.54-1.28l-3.15-2.65c-.93-.78-1.85-1.57-2.77-2.36-1.69-1.45-3.44-2.95-5.2-4.37-4.35-3.51-9.45-6.07-14.38-8.54l-.1,0A3,3,0,0,0,961.53,378.15ZM878.15,376a40.61,40.61,0,0,0,3.46,2.2c.34.16,1.69.89,3.31,1.75,2.46,1.32,5.83,3.12,6.74,3.56A51.06,51.06,0,0,0,906,387.84l.25,0a67.61,67.61,0,0,0,10.57,1.1c.39,0,.78,0,1.17,0s1.08,0,1.62,0h2.48c.73,0,1.46,0,2.19-.05l.09-.07a.91.91,0,0,0-.29-.19c-.85-.18-1.71-.29-2.63-.4a28.86,28.86,0,0,1-3.1-.49l-.91-.2a71.91,71.91,0,0,1-8.62-2.34,41,41,0,0,1-4.45-2,39.46,39.46,0,0,0-4.38-2,28.28,28.28,0,0,0-4.78-1.08c-1-.16-2-.33-3-.56-1.19-.27-3.05-.79-5-1.39a30.62,30.62,0,0,1-2.92-1,16.71,16.71,0,0,1-2.8-.52l-.22-.05c-.85-.21-1.78-.42-2.76-.58h-.17Zm3.75-13.08c.65.67,1.32,1.35,2,1.94.32.27,1.36,1,2.47,1.83,2,1.45,4.49,3.26,5.41,4.13a49.89,49.89,0,0,0,8.32,5.91c1.15.71,2.3,1.42,3.43,2.16a32,32,0,0,0,3.36,2,30.62,30.62,0,0,0,10.06,3c1.89.2,3.8.45,5.64.7l2,.26a51.05,51.05,0,0,1-9.2-6.6c-1.07-.91-2.18-1.84-3.29-2.71a5.13,5.13,0,0,0-2.89-1h-.17l-.72,0a16.85,16.85,0,0,1-7.58-2c-3.3-1.64-6.58-3.47-9.74-5.23-1-.56-2-1.13-3-1.68a39.27,39.27,0,0,1-4.8-2.14Zm20.79-2.39c.34.33,1.09,1.15,3.26,3.57,2.51,2.8,6,6.64,7.81,8.46A46.9,46.9,0,0,0,926.68,382a9.35,9.35,0,0,1,1.34.81l.77-.8c1.16-1.2,2.35-2.45,3.62-3.65a18.65,18.65,0,0,1,3.26-2.42,9.07,9.07,0,0,0,2.43-2.22L927,363.77l-.07-.08a9.68,9.68,0,0,1-1.85-1.64,4.76,4.76,0,0,1-.92-.81,5.87,5.87,0,0,1-1.84-2.12A75.27,75.27,0,0,1,907.63,332c-.13.74-.25,1.48-.34,2.21a32.52,32.52,0,0,0,2.27,15.9,46.2,46.2,0,0,0,2.61,5.34c.43.8.87,1.6,1.28,2.41.12.24.26.48.41.72a11.42,11.42,0,0,1,.71,1.36,7.19,7.19,0,0,1,1,1.41c.29.52.63,1,1,1.51.18.25.35.51.52.77a8.48,8.48,0,0,1,.57,1c.12.23.23.47.37.69l.1.12a1.49,1.49,0,0,1,.3.18,20.8,20.8,0,0,1,2.23,1.92l.92.84,2.23,2c2.07,1.83,4.13,3.66,6.17,5.51a3.26,3.26,0,0,1,.73,1.15,3.49,3.49,0,0,0,.15.34,1,1,0,0,1-.22,1.22l-.44.38a1,1,0,0,1-.65.25,1.05,1.05,0,0,1-.49-.13l-1.12-.6c-.94-.51-1.91-1-2.84-1.62-.31-.2-2.07-1.75-10.22-9.11l-1.53-1.39c-.84-.73-1.65-1.5-2.43-2.25a33.24,33.24,0,0,0-5.12-4.27,30,30,0,0,1-4.29-3.53c-.62-.58-1.23-1.15-1.87-1.69-.8-.69-1.59-1.4-2.38-2.11a63.66,63.66,0,0,0-5.67-4.7,31.39,31.39,0,0,0-5.49-3.22l2.27,2.06c2,1.77,4.4,4,5.51,4.93,2.64,2.25,5.13,4.74,7.54,7.14A8.88,8.88,0,0,1,902.69,360.51Z"/></g><g class="cls-2"><path class="cls-3" d="M10.36,32.53c-4.46.88-5.43,5.58-6.74,9.32C1.1,49.06-.94,54.43.46,62.23a23.76,23.76,0,0,0,9.75,15.4,36,36,0,0,0,9,5.28c1.87.65,4,.56,5.79,1.32.9.38,1.44-.92.88-1.53-3.24-3.58-7.15-9-5.93-14.15.45-1.94,1.79-3.61,2.31-5.53.77-2.84-1.08.14.6-4.8,1.25-3.68,1.4-2.77,3.76-4.67A6.15,6.15,0,0,0,29,49.82c.71-4.13-3.27-9.13-6.14-11.63C19,34.84,13.65,32.31,8.46,32.81a.77.77,0,0,0-.2,1.5c3.07.93,6.18,1.5,9,3A25.16,25.16,0,0,1,22.44,41c2.6,2.36,2.3,2.35,1.82,6.6C23.63,53,24,51.09,21,53.32a8.55,8.55,0,0,0-1.6,1.4,7.11,7.11,0,0,0-1.48,4.92c0,.68.5,1.32.56,2,.2,2.49-.29,2.33-.84,4.14a14.21,14.21,0,0,0-.85,5.86c.49,5.37,4.1,8.87,7.77,12.39.3-.51.6-1,.89-1.53-3.33-1.38-6.48-1.56-9.69-3.62C10.41,75.4,4.93,71,3.2,64.62,1.63,58.77,3.11,52.07,5,46.48,6.35,42.66,7.07,36,11,33.93,11.75,33.5,11.17,32.37,10.36,32.53Z"/><path class="cls-3" d="M29.84,48.15c-2.81,2.25-2.62,5.4-2.79,8.74s-.4,6.38-2.13,9.24c-1,1.71-2.21,2.89-2.83,4.81A1,1,0,0,0,23,72.15c4.23.23,9.22,1.68,13.41.82,2.39-.49,4.4-2.07,6.31-3.5,2.83-2.1,9.15-7.29,6.75-11.46-.41-.71-.83-.68-1.54-1.21a11.69,11.69,0,0,1-3.58-2.12,11.35,11.35,0,0,1-1.75-3.08,10,10,0,0,0-4.44-4.29c-2.32-1.09-10-3.38-10.21,1.12a1,1,0,0,0,1.21.92c2.52-.85,7.64.35,9.48,2.16,1.54,1.51,1.91,3.85,3.48,5.4,1.18,1.16,4.81,2,5,3.51.41,2.58-5.21,6.59-7,7.93-3.16,2.43-5.82,3.06-9.8,2.71-1.44-.12-5.13.24-5.49-1.78-.1-.51,1.75-2.43,2-2.92,3.09-5.6.55-12.26,3.31-17.87A.28.28,0,0,0,29.84,48.15Z"/><path class="cls-3" d="M8.64,46.12c1.44-1.41,0-4.15,1.79-5.47A1.19,1.19,0,1,0,8.79,39a6.61,6.61,0,0,0-1.36,3.53c-.1,1.16-.28,2.67.56,3.58A.46.46,0,0,0,8.64,46.12Z"/><path class="cls-3" d="M41.94,20.37c-2.95-2.28-6.29-.58-7.72,2.56-1.63,3.56,0,7.71,4.25,7.9,3.45.15,7.64-3.16,7.3-6.85s-6.19-5.16-9.06-3.55a.94.94,0,0,0,.22,1.69c1.69.48,3.73.12,5.26,1.08,2.26,1.43-.77,4.17-2.32,4.68-2.43.79-4.23-1-3.46-3.44.61-2,2.68-4.43,5-3.42C41.82,21.18,42.34,20.69,41.94,20.37Z"/><path class="cls-3" d="M38.88,25.91a1.08,1.08,0,0,0,0-2.16A1.08,1.08,0,0,0,38.88,25.91Z"/><path class="cls-3" d="M26.21,35.77a12.65,12.65,0,0,0,4.71-11.84c-.14-.73-1.25-.53-1.27.18A19.13,19.13,0,0,1,26,35.61C25.91,35.74,26.1,35.85,26.21,35.77Z"/><path class="cls-3" d="M27.84,24.84a13.14,13.14,0,0,1-.74,4.65,30.88,30.88,0,0,1-2.3,4.09.56.56,0,0,0,.87.67c2.46-2.14,3.2-6.32,3-9.41A.43.43,0,0,0,27.84,24.84Z"/><path class="cls-3" d="M22.48,25.6a7.47,7.47,0,0,1,1,4c-.07,1.36-.85,2.32-1.14,3.57-.09.37.33.78.69.54,1.21-.84,1.53-2.73,1.51-4.11a6.23,6.23,0,0,0-1.72-4.24C22.63,25.21,22.38,25.42,22.48,25.6Z"/><path class="cls-3" d="M31.67,36c4.12-4,9.46-3,14.36-5.07,4.36-1.83,6.51-6.81,11.73-6.94a.26.26,0,0,0,.13-.49c-4.83-3.51-9,4.72-13,6.22-5,1.89-10.6.89-13.87,5.81C30.83,35.9,31.37,36.29,31.67,36Z"/><path class="cls-3" d="M33.7,37c3.82-2.82,8-2.57,12.37-3.6,3.89-.91,6.86-3.69,10.71-4.74a.43.43,0,0,0-.12-.85c-4.74.17-8.36,4-13.15,4.71-3.74.55-7.75.72-10.25,3.9C33,36.75,33.33,37.3,33.7,37Z"/><path class="cls-3" d="M28.81,39.84c1.84-2.75,9.21.66,11.64,1.07A10.64,10.64,0,0,0,47,40.25c1-.45,1.84-1.31,2.84-1.75q2.12-2.16,4.41.85,4.4.52,2.76,4.11a24.67,24.67,0,0,1-5.09,11.93C49.77,58,46.61,62.91,48,66.46c1.61,4.22,8.08,7.3,11.95,8.66A1,1,0,0,0,61,74.66c2.52-4.92,5.53-9.72,7.62-14.85s1.39-9.24,0-14.39c-1.77-6.45-6.44-13.35-14.3-10a.47.47,0,0,0,.13.91c4.06.28,8.25,0,10.83,4C67.77,44.1,68.4,51.5,67.53,55.9c-.68,3.52-2.84,6.84-4.42,10-.64,1.28-1.18,2.64-1.89,3.88-1.4,2.48-1,2.9-3.56,1.86s-6.36-3.52-7.13-6.29c-.55-2,.66-4.5,1.65-6.39,2.66-5,5.33-8.29,6.46-14.16,1.19-6.18-1.07-12.45-8.38-8.68-3.89,2-6.08,3.7-11,2.81-2.18-.4-4.28-1.4-6.55-1.37-1.66,0-4.22.09-4.11,2.22Z"/><path class="cls-3" d="M7.64,33.41a3.29,3.29,0,0,0,1.24-2.63c0-.76-.44-1.5-.47-2.2-.08-2.24,1.12-4.25,2.63-6C15,18,20.9,14.91,26.24,12.3A188.32,188.32,0,0,1,45.87,4.08c3.37-1.18,6.84-2.37,10.46-2.34,4,0,7.77,1.54,11.57,2.44.59.14,1-.71.43-1C54.89-4.12,40.94,2.67,28.15,8.48c-6.08,2.76-12,5.94-17,10.4-1.77,1.57-4.36,3.71-5.33,6s1.37,5.26.1,7.17C5.16,33.11,6.76,34.32,7.64,33.41Z"/><path class="cls-3" d="M44.24,9.51c8.6-1.7,17.15-3.93,26-3.5S86.45,12.8,94.64,15.5c.53.17.76-.56.36-.84C88.55,10.13,79.33,4.5,71.21,4.15A70.21,70.21,0,0,0,44.1,9,.25.25,0,0,0,44.24,9.51Z"/><path class="cls-3" d="M73.83,16.31c5.07-1.72,10.53-3,15.9-2.27,5.81.75,9.07,4.05,12.88,8.14.33-.44.67-.87,1-1.31-4.23-3.22-10-5.31-15.16-3.22a.63.63,0,0,0,.33,1.21c5.89-1,9.59,5.54,12,9.68l1-1.34L95.32,26c-.94-.17-1.7,1.18-.7,1.66,8.51,4.14,15.6,9.6,22.66,15.85l1-1.25a35.79,35.79,0,0,0-8-3,.92.92,0,0,0-.89,1.53c5.11,6.23,11.86,13.57,20.68,11a.4.4,0,0,0-.11-.78c-8.48-.47-13.9-5.61-19.27-11.56-.22.52-.43,1-.65,1.57a14.45,14.45,0,0,1,7.44,2.55c.78.5,1.55-.6,1-1.25-6.35-6.9-14.5-12.2-22.88-16.29-.23.56-.46,1.11-.7,1.66L101.31,29a.92.92,0,0,0,1-1.34c-3.53-5.88-6.72-9.34-13.72-10v1.26c5.39-.6,9.72-.63,14,3.3A.83.83,0,0,0,103.79,21c-3.27-3.81-6.84-7.39-12-8.37-6.19-1.2-12.7.41-18.29,3C73.19,15.83,73.45,16.44,73.83,16.31Z"/><path class="cls-3" d="M116.49,51.69c4.54.82,8.89,0,13.44-.36,5.61-.46,9.88.76,14.79,3.36s9.76,5.26,13.35,9.48c3.05,3.58,5,7.89,6.76,12.24.55-.33,1.11-.64,1.67-1-.3-.7-.59-1.4-.89-2.09C161.36,63.58,155,58,145.64,53.1c-3.51-1.85-6.92-3.41-10.95-3.55-6.13-.2-12,2.08-18.14,1.73C116.31,51.27,116.26,51.65,116.49,51.69Z"/><path class="cls-3" d="M94,112.28q5.3,11.11,11,22.12l1.89.23c-2.9-5.43-5.73-10.89-8.33-16.48-2-4.26-4.14-8.56-5.2-13.15-1.12-4.86-.56-9.85-.83-14.78-.46-8.28-2.78-16.89-.31-25.06,2.39-7.93,8.94-6.56,15.55-6.53,5.12,0,10.21-.28,15.32-.44a.34.34,0,0,0,0-.68c-8.35-.86-18-3.2-26.39-1.87-5.43.86-7.2,7.82-7.73,12.43-.88,7.7,1,15.39,1.38,23.06S90.63,105.2,94,112.28Z"/><path class="cls-3" d="M89,73.19c-.83,4.35,1.12,8.44,2.72,12.44,1.36,3.39,2.77,6.94,5.43,9.54,1.21,1.19,4.36,3.82,6.3,2.72S105,93,104.85,91a.22.22,0,0,0-.44-.06c-.42,1-.8,2-1.19,3-.79,2.07-.13,2.15-2.21,1.59-2.85-.76-4.85-4.16-6.11-6.61-2.42-4.68-5.43-10.41-5.61-15.73C89.29,73.07,89,73,89,73.19Z"/><path class="cls-3" d="M99.06,78.18a39.9,39.9,0,0,0,4.42,11.2c1.46,2.63,3.21,5.94,6.11,7.22,5,2.18,9.39-2.86,8.73-7.64-.07-.52-.83-.42-1,0-1,3.17-2.47,6.67-6.59,6.12-2.43-.32-4.27-3.39-5.44-5.24-2.37-3.75-4-7.82-5.9-11.81C99.32,77.81,99,78,99.06,78.18Z"/><path class="cls-3" d="M115.79,85.74v0Z"/><path class="cls-3" d="M109.2,77.25c1.62,7.35,6.81,12.5,13.64,15.37,4,1.69,11.11,4.25,13-1.44.2-.61-.7-1.18-1.13-.65-3.4,4.16-11.56.34-15.18-1.8A20,20,0,0,1,110,77,.44.44,0,0,0,109.2,77.25Z"/><path class="cls-3" d="M132.1,86.55c3.23,2.46,8.45,6,12.91,4.85l4.33-3.34c2.89-5.1.26-13.81-5.39-15.37a.48.48,0,0,0-.46.8c2,2.26,4.1,4.28,4.73,7.38.86,4.17-.86,8.51-6.77,8.28-1.69-.06-3.57-1.32-5-2.07A39.48,39.48,0,0,1,121.78,74c-.17-.27-.6,0-.43.25A43.74,43.74,0,0,0,132.1,86.55Z"/><path class="cls-3" d="M155,83.66,157,82.17a21.94,21.94,0,0,1-2-1c-4.22-2.39-7.93-5.76-11.68-8.79a.26.26,0,0,0-.37.37C145.5,75.9,150.1,81.23,155,83.66Z"/><path class="cls-3" d="M164.34,76.31v.4c.74-.45,1.49-.89,2.24-1.3a16.32,16.32,0,0,0-3.72-6.83,1.05,1.05,0,0,0-1.64,1.27C162.32,71.89,163.91,74,164.34,76.31Z"/><path class="cls-3" d="M93.42,68.44c-.49,5.75,6.69,10.89,12.14,8.74,6.26-2.48,3-11.08-1.17-13.85-1-.65-2.31.65-1.63,1.62,1.75,2.52,6.2,7.81,2.48,10.27-4.3,2.84-11-2.21-11-6.78A.39.39,0,0,0,93.42,68.44Z"/><path class="cls-3" d="M103.86,64.47c2,6,8.13,16.16,15.77,12.47,3-1.42,5.75-4.11,5.46-7.59-.22-2.67-2.17-5.81-4.9-6.32-.46-.08-1,.4-.66.85,1,1.57,2.93,2.83,3.23,4.79.6,3.9-3.76,7.85-7.76,6.93-4.76-1.1-8.3-7.48-10.06-11.59C104.68,63.4,103.65,63.84,103.86,64.47Z"/><path class="cls-3" d="M118.1,60.85c1.11,2.81,3.32,4.54,5.66,6.36,2.63,2,5.57,5,8.83,6.05s12,.53,10.12-4.77c-.26-.75-1.49-.69-1.45.19.21,4.88-8,3.23-9.93,2.18A40.1,40.1,0,0,1,127.48,68c-3.14-2.32-6-4.87-9-7.34C118.35,60.47,118,60.59,118.1,60.85Z"/><path class="cls-3" d="M130.36,58c2.06,6,8.5,12,15,12.6,4.92.47,14.48-5.7,10.56-11.25a.87.87,0,0,0-1.57.21c-1.06,2.78-1.58,5.46-4.33,7.14-3.15,1.93-6.17,1.27-9.31-.16a22,22,0,0,1-9.76-8.8C130.79,57.43,130.23,57.63,130.36,58Z"/><path class="cls-3" d="M91.08,99.61A26.52,26.52,0,0,0,97,114.49c2.15,2.74,6.62,8.05,10.5,8.23,10.35.48,2.32-23-.49-26.64a1,1,0,0,0-1.81.77c.72,4,2.45,7.72,3.49,11.62.92,3.45,3.15,14.29-4,10.57-6.92-3.6-10.75-12.61-13-19.51C91.55,99.24,91.06,99.27,91.08,99.61Z"/><path class="cls-3" d="M125.21,118c.37-.31.73-.63,1.09-1-10-4.89-15.93-17.65-21.49-26.2-.3-.46-1.2-.34-1.13.3C104.78,101.38,114.41,113.94,125.21,118Z"/><path class="cls-3" d="M134.94,103.31c.42-.59.86-1.17,1.29-1.75-2.38-4.07-5.33-7.61-7.29-9-1.17-.83-2.32.92-1.46,1.88C130.09,97.38,132.94,99.86,134.94,103.31Z"/><path class="cls-3" d="M145.72,90.85l2-1.53c-.46-.47-.84-.84-1.12-1.09-.92-.83-2.67.31-1.82,1.41C145.08,90.05,145.4,90.45,145.72,90.85Z"/><path class="cls-3" d="M135.68,102.29l.8-1.08a53.93,53.93,0,0,1-4.88-6.31.35.35,0,0,0-.61.36A35.59,35.59,0,0,0,135.68,102.29Z"/><path class="cls-3" d="M120.58,122q1.15-1,2.31-2c-3.09-4.48-6.71-8.58-10.68-10.79a.58.58,0,0,0-.78.78C113.7,114.32,117.39,118.07,120.58,122Z"/><path class="cls-3" d="M63.15,72.07l.33-.15.14-.25c-.06-.59,0-.63-.5-1a.55.55,0,0,0-.64-.09c-1.13.69-.57.61-1.2,1.66-1.71,2.85-2.52,6.2-4.48,9.07-3.44,5-6.29,9.67-7.19,15.8a41.4,41.4,0,0,0,1,15.71c.86,3.54,1.69,8.73,5.59,10a.54.54,0,0,0,.65-.65c-.74-3.77-2.71-7.25-3.55-11.06a35.82,35.82,0,0,1-.09-16.82c1.22-4.59,3.89-8.4,6.14-12.51a36.87,36.87,0,0,0,2-4.17c.53-1.34.74-4.89,1.6-5.85A.21.21,0,0,0,63.15,72.07Z"/><path class="cls-3" d="M63.69,141.93c-4.39-12.28-7.23-24.14-4.71-37.57.19-1-1.31-1.43-1.53-.42-2.72,12.62-2.51,27.49,3.81,39.19C62.06,142.71,62.87,142.32,63.69,141.93Z"/><path class="cls-3" d="M63.55,142c.65-.31,1.3-.6,2-.89-.52-1-1-2.05-1.57-3.07-.45-.87-1.93-.27-1.6.67C62.73,139.81,63.14,140.91,63.55,142Z"/><path class="cls-3" d="M9.11,27.24a8.75,8.75,0,0,0-.54,4.44c0,.16.29.13.28,0a14.5,14.5,0,0,1,.43-4.35A.09.09,0,0,0,9.11,27.24Z"/><path class="cls-3" d="M9.4,30.73c1-3.61,3.33-6.05,6.13-8.36.11-.09,0-.23-.14-.18-3.39,1.47-5.45,5-6.19,8.48A.1.1,0,0,0,9.4,30.73Z"/><path class="cls-3" d="M10,30.59a21.12,21.12,0,0,1,2.85-3.74A26.59,26.59,0,0,1,16.55,24c.1-.07,0-.27-.09-.22a13.19,13.19,0,0,0-6.73,6.69C9.65,30.61,9.88,30.76,10,30.59Z"/><path class="cls-3" d="M12.15,29.79a34.5,34.5,0,0,1,3.28-3.56c1.19-1.09,2.58-2,3.74-3.07.25-.25-.07-.57-.35-.45-2.89,1.23-5.42,4.17-7.19,6.68C11.42,29.69,11.91,30.08,12.15,29.79Z"/><path class="cls-3" d="M15.74,28.37a23,23,0,0,1,3-3.32c1-.94,2.24-1.6,3.25-2.52a.2.2,0,0,0-.2-.34,10.28,10.28,0,0,0-3.6,2.31,15.05,15.05,0,0,0-2.89,3.61C15.12,28.4,15.55,28.64,15.74,28.37Z"/><path class="cls-3" d="M19.56,26.92c1.63-1.28,3.22-2.6,4.79-4a26.66,26.66,0,0,0,4-3.83c.16-.21-.14-.46-.34-.34a25.76,25.76,0,0,0-4.33,3.54c-1.55,1.38-3.06,2.78-4.53,4.23C18.94,26.8,19.3,27.12,19.56,26.92Z"/><path class="cls-3" d="M24,25.06a112.32,112.32,0,0,0,8.62-8.42c.19-.21-.09-.46-.3-.3a118.06,118.06,0,0,0-8.9,8.14C23.06,24.85,23.64,25.42,24,25.06Z"/><path class="cls-3" d="M29.8,21.12A19.21,19.21,0,0,1,34,17.48c1.44-.92,3-1.43,4.53-2.22A.17.17,0,0,0,38.4,15c-3.55.22-7,3-9.1,5.67C29,21,29.5,21.47,29.8,21.12Z"/><path class="cls-3" d="M34.11,18.86A42,42,0,0,0,41,15.78a.24.24,0,0,0-.19-.44,42.25,42.25,0,0,0-6.93,2.85C33.45,18.37,33.72,19,34.11,18.86Z"/><path class="cls-3" d="M37.13,19.33c2.93-1.5,6-2.19,9.07-3.24a.11.11,0,0,0,0-.21c-3.3-.09-6.56,1.27-9.43,2.79C36.3,18.9,36.69,19.56,37.13,19.33Z"/><path class="cls-3" d="M44.68,17.59a44.56,44.56,0,0,0,15.14.9c4.52-.42,9.86-1.15,13.89-3.31.3-.16.08-.59-.23-.53-5,.93-9.54,2.51-14.66,2.88a80.47,80.47,0,0,1-14-.63C44.37,16.86,44.3,17.49,44.68,17.59Z"/><path class="cls-3" d="M60.3,19.23C66,19.89,72,18,75.62,13.38a.35.35,0,0,0-.5-.5C71,16.69,66,19.1,60.3,18.77,60,18.76,60,19.2,60.3,19.23Z"/><path class="cls-3" d="M78.23,11.86A24,24,0,0,0,68,15.92a.29.29,0,0,0,.3.5,51.15,51.15,0,0,1,10-4.26C78.52,12.11,78.43,11.82,78.23,11.86Z"/><path class="cls-3" d="M74.45,9.79C70.89,11.81,67,14,64,16.88a.17.17,0,0,0,.2.26C67.82,15,71.07,12.27,74.58,10,74.71,9.92,74.59,9.71,74.45,9.79Z"/><path class="cls-3" d="M66.48,11.92a87.12,87.12,0,0,0-8.41,5.8c-.3.26.08.71.41.53,2.93-1.61,5.57-3.9,8.28-5.85C67,12.2,66.78,11.72,66.48,11.92Z"/><path class="cls-3" d="M61.16,13a82.14,82.14,0,0,0-7.86,3.76c-.3.18-.1.71.24.58a81.19,81.19,0,0,0,7.9-3.86C61.76,13.28,61.48,12.81,61.16,13Z"/><path class="cls-3" d="M53.29,14.28a17.39,17.39,0,0,0-1.95,1.57.22.22,0,0,0,.26.34,16,16,0,0,0,2-1.3C54,14.63,53.65,14,53.29,14.28Z"/><path class="cls-3" d="M67.67,21.54c5.07-2.82,10.41-4.75,15.73-7,.41-.17.11-.81-.3-.7-5.51,1.48-10.79,4.41-15.63,7.36A.2.2,0,0,0,67.67,21.54Z"/><path class="cls-3" d="M71.11,20.84a107.37,107.37,0,0,0,13.57-3.2.36.36,0,0,0-.2-.7A104.76,104.76,0,0,0,71,20.35.26.26,0,0,0,71.11,20.84Z"/><path class="cls-3" d="M73.14,22.54c1.93-.43,3.82-1,5.72-1.62a24.79,24.79,0,0,0,4.92-1.74.25.25,0,0,0-.12-.46,26.09,26.09,0,0,0-5,1.36c-1.89.6-3.79,1.17-5.63,1.91A.29.29,0,0,0,73.14,22.54Z"/><path class="cls-3" d="M74.43,23.78c2.48-.19,5.41-.67,7.37-2.34.19-.16,0-.46-.23-.4-2.47.68-4.65,1.8-7.22,2.15C74,23.24,74.09,23.81,74.43,23.78Z"/><path class="cls-3" d="M74.43,26.66a17.45,17.45,0,0,0,7.41-2.11.26.26,0,0,0-.2-.47,59.24,59.24,0,0,1-7.29,2C74.05,26.17,74.11,26.69,74.43,26.66Z"/><path class="cls-3" d="M77,28.45c2.18-1.17,4.43-1.34,6.73-2.1.11,0,.13-.23,0-.25-2.39-.45-5,.8-6.93,2A.2.2,0,0,0,77,28.45Z"/><path class="cls-3" d="M78.89,30.83a12.89,12.89,0,0,1,4.37-1.29c.35-.06.22-.55-.08-.58a6.94,6.94,0,0,0-4.53,1.46A.24.24,0,0,0,78.89,30.83Z"/><path class="cls-3" d="M80.26,33a5.23,5.23,0,0,0,1.53-.06.28.28,0,0,0,0-.54,4.91,4.91,0,0,0-1.53-.07A.34.34,0,0,0,80.26,33Z"/><path class="cls-3" d="M79.87,32.73a19.27,19.27,0,0,0,1,3.45.22.22,0,0,0,.42-.11,19.52,19.52,0,0,0-.85-3.51A.3.3,0,0,0,79.87,32.73Z"/><path class="cls-3" d="M81.72,40.13a.21.21,0,0,0,0-.42A.21.21,0,0,0,81.72,40.13Z"/><path class="cls-3" d="M43.74,53.54a9.12,9.12,0,0,1,1.82,4.71,20.15,20.15,0,0,1-.41,4.1c0,.17.22.21.3.08,1.66-2.78.29-6.69-1.58-9Z"/><path class="cls-3" d="M43.5,54.52c-.15,3.45-.67,7.39,0,10.78a.24.24,0,0,0,.46,0c.68-3.4.16-7.33,0-10.78A.25.25,0,0,0,43.5,54.52Z"/><path class="cls-3" d="M41,54.61c.68,4.13.38,8,.21,12.11a.24.24,0,0,0,.47.06c1-4,.57-8.35-.22-12.3C41.39,54.18,40.94,54.31,41,54.61Z"/><path class="cls-3" d="M40,56.48a34.16,34.16,0,0,1-1.42,11.1c-.1.38.47.66.65.28A20.55,20.55,0,0,0,40.6,56.39C40.55,56,40,56.12,40,56.48Z"/><path class="cls-3" d="M38.51,58.43A16.19,16.19,0,0,1,38,64.31c-.42,1.52-1.41,2.87-1.61,4.42a.17.17,0,0,0,.25.15c2.76-2,2.84-7.44,2.47-10.45C39.1,58,38.47,58,38.51,58.43Z"/><path class="cls-3" d="M36.53,62.8c-.12,3.3-1.43,5.52-3.19,8.19a.25.25,0,0,0,.34.33c2.68-1.72,3.87-5.47,3.65-8.52A.4.4,0,0,0,36.53,62.8Z"/><path class="cls-3" d="M33.9,64.15a10.29,10.29,0,0,1-3.31,5.53c-.12.11,0,.35.17.29a6.29,6.29,0,0,0,3.75-5.74A.31.31,0,0,0,33.9,64.15Z"/><path class="cls-3" d="M31.27,66a11.79,11.79,0,0,1-1.07,1.81c-.41.57-.92,1-1.33,1.62-.19.27.18.63.45.45a8.13,8.13,0,0,0,2.56-3.62C32,65.94,31.44,65.7,31.27,66Z"/><path class="cls-3" d="M31.51,66a9.49,9.49,0,0,0-4,2.49c-.15.17,0,.48.26.34a19.19,19.19,0,0,1,3.92-2.28C32,66.38,31.85,65.82,31.51,66Z"/><path class="cls-3" d="M40,52c-.93,2.08-1.13,4.33-2.23,6.37a16.93,16.93,0,0,1-5.49,5.86.63.63,0,0,0,.63,1.08C36.84,63,41.71,57,40.23,52.07,40.2,52,40,51.93,40,52Z"/><path class="cls-3" d="M18.77,37.56a4.26,4.26,0,0,1-2.23,6.36.43.43,0,0,0-.3.3c-.95,5.26-6.85,10.7-3.79,16.24.13.23.44.06.4-.17-.63-3.88.84-7,2.44-10.38a29.67,29.67,0,0,0,1.42-3.63,3.76,3.76,0,0,1,1.52-2.23c1.89-1.78,2.76-4.57.83-6.71C18.92,37.18,18.67,37.38,18.77,37.56Z"/><path class="cls-3" d="M19.33,39.07c3,1.76,3.41,5.3,2.15,8.27-.05.13.1.28.22.16,2.64-2.65.88-7.34-2.19-8.73C19.31,38.68,19.14,39,19.33,39.07Z"/><path class="cls-3" d="M19.62,41.19c2.36,2.07,2.6,4.53,2,7.44a.26.26,0,0,0,.47.2c1.89-2.54.4-6.61-2.08-8.16C19.7,40.48,19.33,40.94,19.62,41.19Z"/><path class="cls-3" d="M18.5,43c1.27,3.34,1.3,6.6,1.17,10.12a.3.3,0,0,0,.59.08c1.09-3.48.35-7.23-1-10.5C19.05,42.25,18.34,42.54,18.5,43Z"/><path class="cls-3" d="M16.78,45.31q.69,2.55,1.45,5.07c.29,1,1.46,3.86-.27,4.3-.13,0-.15.28,0,.3,4,.63,0-8.78-.37-9.89A.42.42,0,0,0,16.78,45.31Z"/><path class="cls-3" d="M15,46.4c1.25,3.82.85,7.23.68,11.14a.16.16,0,0,0,.3.09c1.76-3.49,1.09-7.91-.25-11.43C15.58,45.75,14.87,45.93,15,46.4Z"/><path class="cls-3" d="M13.51,47.37c.39,2.09.78,4.17,1,6.29a19.85,19.85,0,0,0,.66,4.81.24.24,0,0,0,.45,0c.92-3.23-.5-8.18-1.4-11.31A.38.38,0,0,0,13.51,47.37Z"/><path class="cls-3" d="M12.48,51.27c.33,1.93.73,3.84,1.11,5.76A19.22,19.22,0,0,0,14.84,62c.12.24.45.1.46-.13a19.38,19.38,0,0,0-.77-5c-.39-1.91-.77-3.83-1.22-5.73C13.19,50.49,12.39,50.73,12.48,51.27Z"/><path class="cls-3" d="M11.46,56.18a110.77,110.77,0,0,1,2.22,11l.71-.41-.7-1.11c-.06-.15-.32,0-.27.11l.25,1.3a.42.42,0,0,0,.84,0A34.94,34.94,0,0,0,12.22,56,.4.4,0,0,0,11.46,56.18Z"/><path class="cls-3" d="M10.63,60.15c.64,1.47,1.29,3,1.95,4.41.33.72,1.26,3.75,2.07,3.92a.13.13,0,0,0,.07-.25c-2-.63-2.17,2.6-.19,2,1.28-.4,1-1.5.56-2.42-1.25-2.68-2.53-5.36-3.84-8C11,59.36,10.44,59.73,10.63,60.15Z"/><path class="cls-3" d="M11.1,63.91c.63,2.8,2.18,6.83,4.82,8.28a.19.19,0,0,0,.25-.25,42.39,42.39,0,0,0-2.42-3.73,24.5,24.5,0,0,1-1.93-4.5A.37.37,0,0,0,11.1,63.91Z"/><path class="cls-3" d="M11.23,68.26c.84,3,2.68,6.5,5.67,7.8a.15.15,0,0,0,.18-.23c-1-1.2-2.21-2.23-3.11-3.52a15,15,0,0,1-2.05-4.24A.36.36,0,0,0,11.23,68.26Z"/><path class="cls-3" d="M13.17,74.25A11.82,11.82,0,0,0,16.92,78a.14.14,0,0,0,.17-.22c-1.25-1.22-2.33-2.54-3.47-3.86C13.4,73.65,13,74,13.17,74.25Z"/><path class="cls-3" d="M16.28,38.9A42.5,42.5,0,0,1,13,45.84c-1.2,2-2.84,3.66-3.8,5.78l.15.14c4-2.47,6.3-8.39,7.65-12.68C17.09,38.65,16.44,38.48,16.28,38.9Z"/><path class="cls-3" d="M11.26,43.62a31.19,31.19,0,0,0-1.78,4.52.2.2,0,0,0,.37.16,30.93,30.93,0,0,0,2-4.45C11.92,43.54,11.4,43.32,11.26,43.62Z"/><path class="cls-3" d="M60.08,36.45c-.31,1-.28,2-.51,3s-.66,1.9-1,2.87c-.11.34.37.51.55.23,1-1.51,1.86-4.27,1.38-6.08A.24.24,0,0,0,60.08,36.45Z"/><path class="cls-3" d="M61.91,78c1.65-2.27,3.29-4.54,5-6.76.1-.12,1.37-1.9,1.37-1.9a7.22,7.22,0,0,1-1.51,2.77,6.88,6.88,0,0,1-1.91,1.43l.46.47A31.88,31.88,0,0,1,77,61a.36.36,0,0,0-.37-.62A24.88,24.88,0,0,0,64.71,73.74c-.1.26.26.56.49.38a9.86,9.86,0,0,0,3.67-5.48.24.24,0,0,0-.39-.23,82.13,82.13,0,0,0-6.74,9.48C61.68,78,61.84,78.08,61.91,78Z"/><path class="cls-3" d="M70.22,67.29a34.23,34.23,0,0,1,2.94-3.84c1-1.11,2.2-2,3.31-3,.22-.2-.06-.54-.31-.4A18,18,0,0,0,69.7,67,.3.3,0,0,0,70.22,67.29Z"/><path class="cls-3" d="M71.2,63.89c2.13-3.67,5.25-5.7,9.13-7.15a.24.24,0,0,0-.13-.46c-4,.81-7.47,3.87-9.47,7.33A.27.27,0,0,0,71.2,63.89Z"/><path class="cls-3" d="M74.65,58.82c3-1.63,6.45-3.38,8.91-5.8a.34.34,0,0,0-.41-.54c-3.09,1.61-5.91,3.83-9,5.52A.48.48,0,0,0,74.65,58.82Z"/><path class="cls-3" d="M76.09,56.83a75.92,75.92,0,0,0,9.22-6.37c.28-.22,0-.68-.28-.49a75.91,75.91,0,0,0-9.36,6.31C75.35,56.54,75.75,57,76.09,56.83Z"/><path class="cls-3" d="M78.49,52.75A34.27,34.27,0,0,0,83,48.36c.17-.22-.16-.52-.38-.38a35.51,35.51,0,0,0-4.67,4.18C77.5,52.53,78.09,53.12,78.49,52.75Z"/><path class="cls-3" d="M79.09,50c.86-.86,1.68-1.76,2.52-2.63a21.35,21.35,0,0,0,2.22-2.44c.11-.16-.11-.38-.26-.27a21.44,21.44,0,0,0-2.45,2.22c-.87.85-1.77,1.66-2.62,2.52C78.11,49.74,78.71,50.34,79.09,50Z"/><path class="cls-3" d="M80.68,45.69a42.73,42.73,0,0,0,3.65-4.2c.14-.19-.15-.37-.3-.24a43.39,43.39,0,0,0-3.9,3.89C79.8,45.51,80.34,46.05,80.68,45.69Z"/><path class="cls-3" d="M82.1,40.63A29.52,29.52,0,0,0,84.2,37c.08-.17-.14-.37-.28-.22a27.66,27.66,0,0,0-2.65,3.35C80.93,40.66,81.75,41.12,82.1,40.63Z"/><path class="cls-3" d="M82.58,37c.08-.64.17-1.29.22-1.94,0-.13-.2-.19-.25-.07-.28.62-.51,1.27-.76,1.91S82.51,37.63,82.58,37Z"/><path class="cls-3" d="M84.65,26.64c2.34.09,4.63-.17,7,.11s4.48,1.15,6.77,1.33c.2,0,.23-.24.1-.33-3.43-2.38-10-2.75-13.91-1.61A.26.26,0,0,0,84.65,26.64Z"/><path class="cls-3" d="M85.54,22.64A81.16,81.16,0,0,0,96.75,25.5a.32.32,0,0,0,.18-.62,81.56,81.56,0,0,0-11.23-2.8A.29.29,0,0,0,85.54,22.64Z"/><path class="cls-3" d="M90,23.23c.74,0,1.49.05,2.22.13s1.44.34,2.17.4c.42,0,.52-.55.2-.75a6.42,6.42,0,0,0-4.68-.44A.34.34,0,0,0,90,23.23Z"/><path class="cls-3" d="M84.26,8.37c-6.49-1.89-16-1.95-21.49,2.71a.34.34,0,0,0,.33.57c3.37-1,6.32-2.57,9.85-3.1a33.26,33.26,0,0,1,11.17.32A.26.26,0,0,0,84.26,8.37Z"/><path class="cls-3" d="M69.45,5.87a35.22,35.22,0,0,0-13.6,4.73.27.27,0,0,0,.27.46A47.75,47.75,0,0,1,69.58,6.32C69.88,6.27,69.75,5.82,69.45,5.87Z"/><path class="cls-3" d="M54.87,2.16A59,59,0,0,0,44,5.86a.29.29,0,0,0,.22.53C47.84,5.2,51.34,3.75,55,2.69A.27.27,0,0,0,54.87,2.16Z"/><path class="cls-3" d="M42.08,4.67a7.43,7.43,0,0,0-.9,1.1.15.15,0,0,0,.21.2,7.79,7.79,0,0,0,1.1-.89A.29.29,0,0,0,42.08,4.67Z"/><path class="cls-3" d="M86,32.68c3,1.37,6.1,2.67,9.16,4,1.21.51,2.87,1.41,3.85,0s-.25-3.58-1-4.69a10.13,10.13,0,0,0-4.94-3.83c-.61-.23-1,.79-.45,1.07A10.27,10.27,0,0,1,97,32.55a5.23,5.23,0,0,1,1,1.82c.28,1.57-.7,2-2,1.55-3.26-1.2-6.46-2.59-9.72-3.82C85.94,32,85.7,32.54,86,32.68Z"/><path class="cls-3" d="M93.52,29.11c2.39,1.84,4.77,3.69,7.17,5.53l3.54,2.73c.8.61,1.34,1.31,2.36,1.18a.52.52,0,0,0,.49-.49.71.71,0,0,0-.31-.77.38.38,0,0,0-.47-.06l-.16.12a.32.32,0,0,0,.16.59c-.22,0-2.37-2.09-2.73-2.37l-3.15-2.41q-3.15-2.41-6.32-4.81C93.67,28,93.09,28.77,93.52,29.11Z"/><path class="cls-3" d="M106.13,37.27a3.36,3.36,0,0,0,.45-.14.14.14,0,0,0,0-.26,3.36,3.36,0,0,0-.45-.14C105.68,36.6,105.68,37.4,106.13,37.27Z"/><path class="cls-3" d="M97.56,36.25A31.09,31.09,0,0,0,102,40.67c.6.48,1.22.94,1.86,1.37a14.73,14.73,0,0,0,3.09,1.51.21.21,0,0,0,.21-.36,46.48,46.48,0,0,1-9.06-7.43C97.75,35.43,97.27,35.92,97.56,36.25Z"/><path class="cls-3" d="M101.05,37.06a46.67,46.67,0,0,1,4.36,3.71c1.35,1.34,2.55,2.84,3.92,4.15a.2.2,0,0,0,.31-.23c-1.61-3.43-4.93-6.3-8.08-8.29C101.17,36.15,100.67,36.77,101.05,37.06Z"/><path class="cls-3" d="M90.84,37a16.85,16.85,0,0,1,5.5,3.29A25.88,25.88,0,0,1,100,44.92c.2.28.74.12.61-.25-1.46-4.07-5.67-7-9.62-8.27C90.64,36.28,90.5,36.82,90.84,37Z"/><path class="cls-3" d="M86,37.05a26,26,0,0,1,4.69,2.64A47.37,47.37,0,0,1,95,43.63c.26.24.7-.07.5-.39-2-3.22-5.74-5.63-9.25-6.82C85.92,36.3,85.66,36.89,86,37.05Z"/><path class="cls-3" d="M87,40.74c1.21.44,2.27,1.24,3.47,1.72l.1-.17c-1-.79-2.24-1.31-3.24-2.12A.34.34,0,1,0,87,40.74Z"/><path class="cls-3" d="M91,54a28.64,28.64,0,0,1,3.66,1.65c1.05.6,2,1.36,3,2,.22.13.44-.17.27-.36a14.25,14.25,0,0,0-6.83-3.64A.18.18,0,0,0,91,54Z"/><path class="cls-3" d="M93.68,52.29a37.41,37.41,0,0,0,4.1,2.89,25.76,25.76,0,0,0,4.32,2.49c.21.08.36-.23.21-.37a23.85,23.85,0,0,0-3.77-2.76,41.22,41.22,0,0,0-4.5-2.7C93.76,51.71,93.42,52.06,93.68,52.29Z"/><path class="cls-3" d="M99.93,53.74a32.51,32.51,0,0,1-3.44-2.85l-.52.66a37.52,37.52,0,0,0,8,5.18c.18.07.3-.19.18-.31-2.17-2.27-5.12-4-7.79-5.6-.47-.28-.91.48-.43.73a32.52,32.52,0,0,1,3.76,2.53C99.93,54.23,100.12,53.89,99.93,53.74Z"/><path class="cls-3" d="M105.58,55.7l4.86.4c.24,0,.23-.33,0-.36l-4.86-.55C105.25,55.15,105.25,55.67,105.58,55.7Z"/><path class="cls-3" d="M108,54.09v0Z"/><path class="cls-3" d="M105.57,50.2v0Z"/><path class="cls-3" d="M95.87,45.73c4,2.92,7.64,6.3,11.54,9.39a.14.14,0,0,0,.2-.2c-3.11-3.8-7.46-6.87-11.62-9.4A.12.12,0,0,0,95.87,45.73Z"/><path class="cls-3" d="M98.26,45.27a123,123,0,0,0,11.63,9.87c.17.12.37-.15.22-.29A121.74,121.74,0,0,0,98.43,45C98.3,44.94,98.14,45.16,98.26,45.27Z"/><path class="cls-3" d="M101.21,43.18a57.72,57.72,0,0,0,6.2,6.79c2.15,2.08,4.41,4.47,7,5.93a.26.26,0,0,0,.31-.41c-2-2.24-4.57-4-6.74-6.12s-4.21-4.4-6.36-6.54C101.44,42.61,101,42.91,101.21,43.18Z"/><path class="cls-3" d="M104,44.93q3.24,3.32,6.53,6.57a53.26,53.26,0,0,0,6.1,5.73c.22.15.55-.17.39-.39a53.19,53.19,0,0,0-5.88-5.94q-3.35-3.23-6.74-6.37A.28.28,0,0,0,104,44.93Z"/><path class="cls-3" d="M106.69,43.19q2.94,2.84,5.93,5.62a40.3,40.3,0,0,0,5.55,4.91c.26.16.64-.18.44-.45a41,41,0,0,0-5.3-5.15q-3-2.76-6.07-5.48C106.87,42.31,106.33,42.84,106.69,43.19Z"/><path class="cls-3" d="M106,43c2.39,1.3,4.78,2.54,7,4.07s4.24,3.36,6.46,4.9c.3.2.57-.22.36-.46-3.4-4-8.79-7.19-13.58-9.17C105.86,42.15,105.61,42.77,106,43Z"/><path class="cls-3" d="M57.11,92.5c.35,7.77,1.91,20.32,10.08,23.94a.78.78,0,0,0,1.16-.66c.13-4.27-1.89-8.33-2.33-12.57-.48-4.47.28-8.69.59-13.13,0-.5-.65-.5-.82-.11-1.62,3.92-1.68,8.57-1.3,12.73.4,4.38,2.47,8.71,2.32,13.08.39-.22.78-.44,1.16-.67-3.89-1.71-5.8-5.49-7.27-9.27A53.08,53.08,0,0,1,57.52,92.5C57.49,92.24,57.1,92.23,57.11,92.5Z"/><path class="cls-3" d="M57.87,104.15a32.62,32.62,0,0,0,1,12.89c1,3.65,2.7,8.16,5.7,10.62.1.08.3,0,.24-.14-1.55-3.68-3.95-6.79-5.12-10.71a35,35,0,0,1-1.37-12.66C58.33,103.86,57.9,103.88,57.87,104.15Z"/><path class="cls-3" d="M63.3,108.77c-2.59-.26-1.51,7.1-1.34,8.46.52,4.19,1.85,8.89,4.76,12.06.1.11.33,0,.27-.15-1.22-3-2.72-5.75-3.5-8.88-.27-1.09-2.11-10.55-.13-11.05C63.62,109.14,63.53,108.79,63.3,108.77Z"/><path class="cls-3" d="M64.59,112.94a18.56,18.56,0,0,0,5.25,14.29c.09.09.25,0,.18-.14a35.89,35.89,0,0,1-4.94-14.22C65,112.57,64.62,112.68,64.59,112.94Z"/><path class="cls-3" d="M68.77,117.24a7.57,7.57,0,0,0,1.58,6.58c.16.15.49,0,.4-.23a21.3,21.3,0,0,1-1.14-2.86,12.14,12.14,0,0,1-.19-3.4A.33.33,0,0,0,68.77,117.24Z"/><path class="cls-3" d="M70.26,118.14a3,3,0,0,0-.43,2.65c.09.22.5.22.47-.07a3.18,3.18,0,0,1,.43-2.31C70.92,118.13,70.46,117.86,70.26,118.14Z"/><path class="cls-3" d="M69.54,78.59c-1.88.2-2.36,2.34-2.86,3.93a26.19,26.19,0,0,0-1,9.06c.31,5.4,2.07,11.89,6.16,15.69a.37.37,0,0,0,.58-.44c-2.15-4.1-4.36-7.79-5.16-12.43a29.29,29.29,0,0,1-.35-6.68c.1-1.63.5-8.14,2.71-8.63C69.89,79,69.83,78.56,69.54,78.59Z"/><path class="cls-3" d="M69.52,86.63a31.13,31.13,0,0,0,.37,13.68c.65,2.61,2.45,8.19,5.64,8.59a.52.52,0,0,0,.45-.25l.22-.41a.38.38,0,0,0,0-.36l-.25-.33a.22.22,0,0,0-.41.12s-2-2.07-2.12-2.29a15.09,15.09,0,0,1-1.3-2.41,22.65,22.65,0,0,1-1.55-5.43c-.58-3.62-.33-7.28-.82-10.91C69.74,86.52,69.55,86.53,69.52,86.63Z"/><path class="cls-3" d="M71.36,91.4c-1.07,6,.83,13.59,5.1,18a.41.41,0,0,0,.65-.5,39.24,39.24,0,0,1-4-8.28,33.5,33.5,0,0,1-1-9.14C72.08,91.1,71.44,91,71.36,91.4Z"/><path class="cls-3" d="M73.59,96.4c-.48,4.19,1.19,10.63,5.29,12.64a.16.16,0,0,0,.23-.22c-.93-1.83-2.34-3.32-3.19-5.21a18,18,0,0,1-1.4-7.21A.47.47,0,0,0,73.59,96.4Z"/><path class="cls-3" d="M76.16,98.94a16.81,16.81,0,0,0,6,10.31c.32.24.79-.24.56-.56-1.16-1.58-2.47-3-3.48-4.66s-1.6-3.53-2.51-5.25A.3.3,0,0,0,76.16,98.94Z"/><path class="cls-3" d="M80.44,103.21a4.15,4.15,0,0,0,2.15,4.05.14.14,0,0,0,.17-.22,5.38,5.38,0,0,1-1.67-3.83A.33.33,0,0,0,80.44,103.21Z"/><path class="cls-3" d="M75.26,61.22c-5.94,4.79-10.73,13.2-9.9,21.06a.41.41,0,0,0,.82,0c.51-4.09,1-7.87,2.71-11.67a28.55,28.55,0,0,1,6.76-9C75.91,61.37,75.53,61,75.26,61.22Z"/><path class="cls-3" d="M74.34,66.09c-4.4,3-7.39,9.08-5.87,14.38a.42.42,0,0,0,.83-.11c-.18-5.58,1-10.13,5.23-14A.15.15,0,0,0,74.34,66.09Z"/><path class="cls-3" d="M73,69c-.79,3.47-1.88,7-2.4,10.51-.22,1.49-.18,2.93,1.33,3.53.23.09.39-.2.3-.38-1.22-2.23-.26-4.71.23-7,.44-2.13.87-4.27,1.32-6.4C73.85,68.71,73.08,68.49,73,69Z"/><path class="cls-3" d="M74.16,74.83c-1.9,2.59-2.62,7.21,0,9.63a.19.19,0,0,0,.32-.18c-.79-3.33-1.45-5.91.33-9.11A.35.35,0,0,0,74.16,74.83Z"/><path class="cls-3" d="M75.55,80.24c-.72,2.06-1,4.56.16,6.5.07.13.3.08.29-.07-.14-2.18-.45-4.11.21-6.25C76.35,80,75.7,79.82,75.55,80.24Z"/><path class="cls-3" d="M76.62,83.6a5,5,0,0,0-.45,1c0,.14.15.28.25.15a5.2,5.2,0,0,0,.56-1C77.11,83.57,76.74,83.36,76.62,83.6Z"/><path class="cls-3" d="M82.51,76.38c-1.32,6.79-.44,14.87,4.22,20.33.3.35.83-.09.62-.47C83.81,90,81.56,83.81,82.93,76.5,83,76.22,82.56,76.1,82.51,76.38Z"/><path class="cls-3" d="M83.5,80.82a34,34,0,0,0,4.12,17.75.32.32,0,0,0,.58-.25c-.93-2.88-2-5.7-2.66-8.65s-.91-6-1.32-9C84.17,80.29,83.52,80.43,83.5,80.82Z"/><path class="cls-3" d="M85.16,82.27c.61,5.14,1.56,10.89,4.46,15.28a.21.21,0,0,0,.38-.16c-1.18-5.15-3.13-10-3.86-15.26C86.06,81.59,85.09,81.71,85.16,82.27Z"/><path class="cls-3" d="M87.49,83.78c-.29,3.67,1.17,8,2.89,11.23a.29.29,0,0,0,.52-.22c-.49-1.84-1.1-3.66-1.61-5.5s-.76-3.78-1.44-5.55A.18.18,0,0,0,87.49,83.78Z"/><path class="cls-3" d="M89.61,87.22c.42-.31.14-.79-.29-1a.41.41,0,0,0-.46.06c-.8.83-.2,2.18.1,3.12.39,1.2.82,3,1.91,3.73a.25.25,0,0,0,.37-.21,8,8,0,0,0-.92-2.76c-.15-.4-1.27-3-.94-3.26C89.23,87.07,89.44,87.35,89.61,87.22Z"/><path class="cls-3" d="M89.88,84.77a1,1,0,0,0,.12,2c.11,0,.15-.16.06-.21a.58.58,0,0,1,.12-1C90.59,85.31,90.29,84.66,89.88,84.77Z"/><path class="cls-3" d="M67.88,140.14l0,0A38.68,38.68,0,0,1,64,124a.13.13,0,0,0-.26,0c-1.49,5.52.71,11.42,3.14,16.51Z"/><path class="cls-3" d="M69.72,139.46l1.06-.38-.15-.21a65.54,65.54,0,0,1-6.06-12.25.3.3,0,0,0-.58.16A46.81,46.81,0,0,0,69.72,139.46Z"/><path class="cls-3" d="M72,138.7l1.26-.39c-1.72-2.88-3.06-5.9-4.64-8.88a.36.36,0,0,0-.65.27A37.34,37.34,0,0,0,72,138.7Z"/><path class="cls-3" d="M75.52,137.67c-1-1.53-1.74-3.18-1.33-4.76a.44.44,0,0,0-.84-.23c-.57,1.95.18,3.66,1.28,5.22Z"/><path class="cls-3" d="M90.7,134.4l1.12-.11c-.22-.23-.44-.45-.66-.69-3.35-3.78-5.7-8.22-8.18-12.57-.14-.25-.51,0-.38.22A68,68,0,0,0,90.7,134.4Z"/><path class="cls-3" d="M95.2,134.07l2.31-.06A22.59,22.59,0,0,1,94,131.18a27.18,27.18,0,0,1-7.07-12,.32.32,0,0,0-.62.17A28.85,28.85,0,0,0,95.2,134.07Z"/><path class="cls-3" d="M93.94,130.06a29.78,29.78,0,0,0,4.8,4q1.41,0,2.82.09a37.55,37.55,0,0,1-6.86-4.81,29.84,29.84,0,0,1-6.83-10.11c-.16-.41-.83-.25-.67.18A29.24,29.24,0,0,0,93.94,130.06Z"/><path class="cls-3" d="M84.87,115c2.78,6.55,8.24,13.05,14.63,16.3.13.07.3-.12.17-.22a87.61,87.61,0,0,1-7.91-7,50.77,50.77,0,0,1-6.59-9.27C85.05,114.66,84.79,114.83,84.87,115Z"/><path class="cls-3" d="M82.21,106.74c2.07,8.05,7.49,17.08,15.49,20.46.22.1.51-.18.29-.37-3.28-2.72-6.55-5.06-9.22-8.44a35.76,35.76,0,0,1-6.12-11.77A.23.23,0,0,0,82.21,106.74Z"/><path class="cls-3" d="M83.85,101.34C85.16,110.09,90,119,97,124.42c.32.25.76-.15.46-.46a50,50,0,0,1-13.11-22.77C84.28,100.85,83.8,101,83.85,101.34Z"/><path class="cls-3" d="M83.61,95.57c2.26,8.05,6.09,16,12.1,21.88.13.13.39,0,.27-.21C91,110.42,86.77,103.49,84.23,95.4A.32.32,0,0,0,83.61,95.57Z"/><path class="cls-3" d="M85.34,98.49c1.79,4,4,8.78,7.2,11.86A.26.26,0,0,0,93,110c-1-2-2.56-3.85-3.77-5.78s-2.34-4-3.46-6C85.58,98,85.23,98.23,85.34,98.49Z"/><path class="cls-3" d="M87.07,98c.66,3.55,2.7,7.71,5.71,9.83.21.16.51-.14.36-.36-1-1.46-2.19-2.76-3.1-4.29a27.43,27.43,0,0,1-2.33-5.36A.33.33,0,0,0,87.07,98Z"/><path class="cls-3" d="M90.07,99.74A1.73,1.73,0,0,0,88.25,99,1.59,1.59,0,0,0,87,100.73c.3,1.53,3.2,1.75,3.28,0a.37.37,0,0,0-.68-.18,1,1,0,0,1-.9.52.86.86,0,0,1-.84-.5c-.1-.39.26-.67.58-.8s.88-.32,1.19.18C89.82,100.24,90.21,100,90.07,99.74Z"/><path class="cls-3" d="M100.91,134.09l1.1,0c-.59-.76-1.17-1.54-1.8-2.27-.19-.23-.48.06-.37.28A15.58,15.58,0,0,0,100.91,134.09Z"/><path class="cls-3" d="M97.18,128.71c1.13.82,2.36,1.5,3.5,2.33s2.14,1.8,3.28,2.6c.27.2.54-.21.34-.44a20.44,20.44,0,0,0-6.88-4.9A.24.24,0,0,0,97.18,128.71Z"/><path class="cls-3" d="M98.09,127.24a21,21,0,0,0,2,1.91.18.18,0,0,0,.26-.25,21.1,21.1,0,0,0-2-1.91A.18.18,0,0,0,98.09,127.24Z"/><path class="cls-3" d="M98.42,125.56c-.17-.56-.35-1.12-.52-1.68a2.94,2.94,0,0,0-.53-1.3.16.16,0,0,0-.27.07,3,3,0,0,0,.34,1.36c.2.55.39,1.1.58,1.66C98.11,125.92,98.5,125.82,98.42,125.56Z"/><path class="cls-3" d="M113.37,128.79l.77-.75-.33-.63c-1.08-2.15-1.9-4.93-3.68-6.57l-.19.07c.16,2.18,1.55,4.13,2.51,6C112.75,127.57,113.06,128.18,113.37,128.79Z"/><path class="cls-3" d="M115.47,126.76l.72-.7,0,0q-2.2-4.61-4.26-9.28c-.22-.5-.94-.07-.73.42Q113.28,122,115.47,126.76Z"/><path class="cls-3" d="M111.52,113.32a22.41,22.41,0,0,0,7.14,5.57c.24.11.55-.21.31-.4-1.16-.95-2.41-1.77-3.57-2.7s-2.24-2-3.38-3A.35.35,0,0,0,111.52,113.32Z"/><path class="cls-3" d="M111.28,116.58a56,56,0,0,0,8.83,5.23c.11,0,.26-.09.15-.19a56.69,56.69,0,0,0-8.66-5.6A.32.32,0,0,0,111.28,116.58Z"/><path class="cls-3" d="M118.57,123.83l.68-.62c-2.1-1.36-4.11-2.81-6.23-4.2-.29-.19-.56.22-.35.46A19.6,19.6,0,0,0,118.57,123.83Z"/><path class="cls-3" d="M112.3,121.84a53.74,53.74,0,0,0,5.18,3l.85-.8a52.63,52.63,0,0,0-5.86-2.61C112.23,121.36,112.11,121.71,112.3,121.84Z"/><path class="cls-3" d="M112.63,123.59q1.94,1.06,3.88,2.18l.66-.62L113,123C112.59,122.78,112.24,123.37,112.63,123.59Z"/><path class="cls-3" d="M103.3,119.68a19.11,19.11,0,0,0-.57,4,.32.32,0,0,0,.62.08,18.78,18.78,0,0,0,.43-4C103.81,119.47,103.34,119.41,103.3,119.68Z"/><path class="cls-3" d="M104.32,121.71c-.2,1.73-.68,3.65-.4,5.39,0,.18.27.13.32,0,.66-1.64.6-3.65.79-5.39C105.08,121.26,104.38,121.27,104.32,121.71Z"/><path class="cls-3" d="M105.54,122.39a7.74,7.74,0,0,0-.45,6.65.11.11,0,0,0,.21-.06,12.76,12.76,0,0,1,.88-6.21C106.39,122.34,105.75,122,105.54,122.39Z"/><path class="cls-3" d="M107.19,123.07c-.66,2.47-1.32,5.37-.81,7.92a.15.15,0,0,0,.29,0c.51-2.56.55-5.17,1.22-7.72A.36.36,0,0,0,107.19,123.07Z"/><path class="cls-3" d="M108.33,133.6l.47-.45c.37-3.68.45-7.28,1.33-10.91a.34.34,0,0,0-.65-.18c-1,3.64-1.78,7.63-1.22,11.4A.26.26,0,0,0,108.33,133.6Z"/><path class="cls-3" d="M111.46,130.63c.25-2.37.29-4.81.32-7,0-.35-.57-.45-.64-.08A61.49,61.49,0,0,0,110,132Z"/><path class="cls-3" d="M113.25,128.9c0-.45,0-.9.07-1.35s-.7-.47-.75,0l-.27,2.27Z"/><path class="cls-3" d="M94.29,91.08c3.84,6.81,6.88,13.89,10.11,21,.08.16.34,0,.29-.12A108.1,108.1,0,0,0,94.37,91Z"/><path class="cls-3" d="M98.62,97.57a24.81,24.81,0,0,1,3.27,2.5c.29.26.81-.09.57-.44a6.63,6.63,0,0,0-3.6-2.6A.3.3,0,0,0,98.62,97.57Z"/><path class="cls-3" d="M99.73,100.65a8.29,8.29,0,0,1,6.08,3.66c.1.14.38.06.3-.12a6.64,6.64,0,0,0-6.38-4A.24.24,0,0,0,99.73,100.65Z"/><path class="cls-3" d="M101,103.5a33.85,33.85,0,0,0,6,3.71c.11.05.24-.09.14-.18a33.82,33.82,0,0,0-5.76-4.1C101,102.71,100.68,103.25,101,103.5Z"/><path class="cls-3" d="M102.11,106.32a23.21,23.21,0,0,1,4.28,2c.27.15.59-.23.34-.44a11.2,11.2,0,0,0-4.48-2.1A.27.27,0,0,0,102.11,106.32Z"/><path class="cls-3" d="M104.36,109.67a3.44,3.44,0,0,0,2.18,1.57c.26,0,.29-.32.12-.44a6.35,6.35,0,0,1-1.8-1.42C104.64,109.09,104.15,109.37,104.36,109.67Z"/><path class="cls-3" d="M104.45,109.56a15.35,15.35,0,0,0,3.41,5.47.12.12,0,0,0,.18-.15,28.06,28.06,0,0,1-3.14-5.44C104.79,109.17,104.35,109.29,104.45,109.56Z"/><path class="cls-3" d="M92.63,89.68a121.57,121.57,0,0,0,9.13,18.83l.13-.07c-3.24-6.19-6.13-12.51-9.07-18.84C92.77,89.49,92.59,89.57,92.63,89.68Z"/><path class="cls-3" d="M93.43,92.39a15.75,15.75,0,0,0,.69,10c.11.25.48.06.43-.18A33.13,33.13,0,0,1,93.7,97a39.16,39.16,0,0,1,.2-4.59C93.92,92.18,93.51,92.14,93.43,92.39Z"/><path class="cls-3" d="M94.6,94.93a35.23,35.23,0,0,0,1.67,12.67c0,.13.27.13.26,0-.31-4.2-1.09-8.44-1.54-12.64A.2.2,0,0,0,94.6,94.93Z"/><path class="cls-3" d="M96.93,100.77c0,2.29-.52,5.16.22,7.34a.15.15,0,0,0,.29,0c.74-2.19.25-5,.22-7.34A.37.37,0,0,0,96.93,100.77Z"/><path class="cls-3" d="M97.85,105.15a21.61,21.61,0,0,0,.09,5,.34.34,0,0,0,.66,0,22.19,22.19,0,0,0,.09-5A.42.42,0,0,0,97.85,105.15Z"/><path class="cls-3" d="M98.94,107a3,3,0,0,0,.59,2.71.28.28,0,0,0,.46-.27,4.24,4.24,0,0,1-.4-2.27C99.67,106.77,99,106.59,98.94,107Z"/><path class="cls-3" d="M114.74,95c1.89,2.3,4.24,4.25,6.24,6.46s3.76,4.64,5.7,6.91c.27.31.75-.09.56-.42-2.77-4.88-7.36-10.46-12.14-13.42C114.8,94.34,114.54,94.74,114.74,95Z"/><path class="cls-3" d="M117.38,92.28c1.13,2.33,3.3,4.36,5,6.32,1.95,2.25,3.86,4.56,6,6.67.2.19.57-.07.4-.31-1.67-2.31-3.56-4.46-5.39-6.65s-3.5-4.7-5.74-6.26C117.46,91.94,117.32,92.14,117.38,92.28Z"/><path class="cls-3" d="M117.66,91.67a24.51,24.51,0,0,0,5.62,2.52c2.18.85,4.38,1.62,6.63,2.25a.15.15,0,0,0,.11-.28c-2-1-4-1.87-6.06-2.68a26.18,26.18,0,0,0-6.23-2.06C117.58,91.4,117.57,91.6,117.66,91.67Z"/><path class="cls-3" d="M119.65,94.81A57.64,57.64,0,0,1,129.81,98a.2.2,0,0,0,.2-.34,18.35,18.35,0,0,0-10.29-3.4A.27.27,0,0,0,119.65,94.81Z"/><path class="cls-3" d="M123.93,98.06a45,45,0,0,0,8.9,3.26A.19.19,0,0,0,133,101a45.18,45.18,0,0,0-8.78-3.54C123.83,97.33,123.57,97.88,123.93,98.06Z"/><path class="cls-3" d="M127.33,101a24.1,24.1,0,0,0,6.46,2.75.15.15,0,0,0,.12-.27,23.75,23.75,0,0,0-6.36-3A.29.29,0,0,0,127.33,101Z"/><path class="cls-3" d="M128.69,103.18l4.81,2.26.38-.56a25.49,25.49,0,0,0-4.89-2.4C128.58,102.33,128.29,103,128.69,103.18Z"/><path class="cls-3" d="M112,95a32.24,32.24,0,0,0,1.55,7.84c0,.15.29.13.28,0a32.27,32.27,0,0,0-1.28-7.87C112.45,94.59,112,94.63,112,95Z"/><path class="cls-3" d="M115.9,95.91c-.23,3-.54,6.46.54,9.31a.15.15,0,0,0,.3,0c.33-3.05-.2-6.19,0-9.27C116.79,95.36,115.94,95.36,115.9,95.91Z"/><path class="cls-3" d="M117.35,97.86a30.33,30.33,0,0,0,1,7.87.29.29,0,0,0,.56-.08,31.09,31.09,0,0,0-1-7.86A.28.28,0,0,0,117.35,97.86Z"/><path class="cls-3" d="M119.21,99.92c.61,3.19,1,6.71,2.27,9.7.06.15.3.06.29-.08,0-3.27-1.14-6.65-1.87-9.81C119.8,99.28,119.13,99.47,119.21,99.92Z"/><path class="cls-3" d="M122.32,103.12a11,11,0,0,0,.45,5.53.32.32,0,0,0,.62-.17,24.54,24.54,0,0,1-.46-5.27C122.94,102.87,122.38,102.78,122.32,103.12Z"/><path class="cls-3" d="M123.81,106.05a6.94,6.94,0,0,0,1.57,6c.1.12.31,0,.22-.16a7.79,7.79,0,0,1-1.18-5.72C124.49,105.82,123.89,105.65,123.81,106.05Z"/><path class="cls-3" d="M139.54,97.34l.66-.77a41.9,41.9,0,0,0-4.43-4.6.18.18,0,0,0-.28.22A27.11,27.11,0,0,0,139.54,97.34Z"/><path class="cls-3" d="M142.09,94.41a13.91,13.91,0,0,0-3.73-3.55l-.07.06c.58,1.57,2,2.92,3.19,4.19C141.69,94.88,141.89,94.64,142.09,94.41Z"/><path class="cls-3" d="M142.93,93.53c.21-.23.43-.45.64-.67l-.58-.24a9.52,9.52,0,0,0-3.37-1.16.13.13,0,0,0-.09.22A10,10,0,0,0,142.93,93.53Z"/><path class="cls-3" d="M132.7,90.53a12.25,12.25,0,0,0,1.52,7.37.16.16,0,0,0,.3-.12,28.67,28.67,0,0,1-1.17-7.25C133.36,90.11,132.73,90.12,132.7,90.53Z"/><path class="cls-3" d="M135.39,91.53a22.74,22.74,0,0,0,1.73,8.34c.09.2.37,0,.33-.14-.52-2.76-1.06-5.5-1.53-8.27C135.87,91.16,135.39,91.23,135.39,91.53Z"/><path class="cls-3" d="M138.46,98.67a20.6,20.6,0,0,1-.4-3.74.39.39,0,0,0-.78,0,25.49,25.49,0,0,0,.38,4.73Z"/><path class="cls-3" d="M149,82.56a29.43,29.43,0,0,0,2.55,3.81l.9-.7c-.88-1.11-1.76-2.21-2.62-3.33a.42.42,0,0,0-.42-.17,1.15,1.15,0,0,0-.65.22l0,.18.11.1Z"/><path class="cls-3" d="M153.94,84.5l.9-.69c-1-1.21-1.94-2.43-2.93-3.62-.25-.3-.73.08-.53.41C152.18,81.92,153,83.22,153.94,84.5Z"/><path class="cls-3" d="M150.81,86.92c-.26-1.43-.56-2.84-.85-4.2,0-.21-.41-.17-.39,0,.13,1.54.28,3.14.48,4.74Z"/><path class="cls-3" d="M151.25,69.12A60.92,60.92,0,0,1,159.49,71a.32.32,0,0,0,.25-.59,15.91,15.91,0,0,0-8.4-1.88C151,68.51,150.88,69.06,151.25,69.12Z"/><path class="cls-3" d="M152.74,71.29a36.32,36.32,0,0,0,5.83,2c.35.08.63-.44.26-.61a36.38,36.38,0,0,0-5.93-1.94A.31.31,0,0,0,152.74,71.29Z"/><path class="cls-3" d="M154.49,73.27a10.33,10.33,0,0,0,6.57,2.41.16.16,0,0,0,0-.31,24.19,24.19,0,0,1-6.19-2.63C154.58,72.54,154.19,73,154.49,73.27Z"/><path class="cls-3" d="M157.44,76.8a8.8,8.8,0,0,0,2.07,1.43c.26.08.55-.26.38-.5a9.23,9.23,0,0,0-2.07-1.58C157.42,75.87,157.06,76.52,157.44,76.8Z"/><path class="cls-3" d="M147.09,69.13c.14,2.65-.14,5.79.58,8.34.06.24.47.28.51,0,.38-2.63-.29-5.69-.49-8.34C147.66,68.75,147.07,68.74,147.09,69.13Z"/><path class="cls-3" d="M149.52,70.1a54.73,54.73,0,0,0,0,7.79.33.33,0,0,0,.66,0,54.73,54.73,0,0,0,0-7.79A.35.35,0,0,0,149.52,70.1Z"/><path class="cls-3" d="M150.39,72.05c0,2.35-.44,5.11.09,7.4a.38.38,0,0,0,.73,0c.53-2.29.11-5,.08-7.4A.45.45,0,0,0,150.39,72.05Z"/><path class="cls-3" d="M151.91,75.94c0,.61,0,1.23,0,1.84a6.14,6.14,0,0,0,.1,1.66.34.34,0,0,0,.65,0,5.78,5.78,0,0,0,.09-1.66c0-.61,0-1.23,0-1.84A.4.4,0,0,0,151.91,75.94Z"/><path class="cls-3" d="M137.05,73.62c.45.87,1.79,1,2.68,1.24a11.63,11.63,0,0,0,3.81.24.16.16,0,0,0,.05-.31c-1.19-.35-2.39-.61-3.58-1-.86-.25-2-.84-2.85-.49A.18.18,0,0,0,137.05,73.62Z"/><path class="cls-3" d="M135.61,75.68a48.6,48.6,0,0,0,9.27,3.12c.35.09.46-.4.14-.53a48.26,48.26,0,0,0-9.18-3.13C135.53,75.08,135.3,75.52,135.61,75.68Z"/><path class="cls-3" d="M138.54,78.11a23,23,0,0,0,3.61,1.63,23.94,23.94,0,0,0,4.19,1.47.29.29,0,0,0,.22-.52A21.69,21.69,0,0,0,143,79.06a26.37,26.37,0,0,0-4.19-1.47A.29.29,0,0,0,138.54,78.11Z"/><path class="cls-3" d="M139.81,80.17c1.81,1.69,4.63,3.27,7.15,3.26a.25.25,0,0,0,.13-.47c-1.12-.59-2.35-.95-3.49-1.48a34,34,0,0,1-3.31-1.93A.4.4,0,0,0,139.81,80.17Z"/><path class="cls-3" d="M141.92,84.32c1.7.6,3.3,1.45,5,2a.27.27,0,0,0,.26-.45,11.56,11.56,0,0,0-5-2.43A.44.44,0,0,0,141.92,84.32Z"/><path class="cls-3" d="M125.58,69.62a86.06,86.06,0,0,0,1,9.34c.07.35.61.26.61-.09a87.12,87.12,0,0,0-.86-9.25C126.31,69.13,125.54,69.11,125.58,69.62Z"/><path class="cls-3" d="M129.09,70.11c-.34,3.44-.48,7.42.59,10.76a.17.17,0,0,0,.34-.05c.14-3.55-.29-7.14-.19-10.71C129.84,69.63,129.14,69.65,129.09,70.11Z"/><path class="cls-3" d="M129.86,74.13c.2,1.49.4,3,.61,4.45.17,1.27.13,2.7.81,3.8a.26.26,0,0,0,.46-.06,9.09,9.09,0,0,0-.27-3.69l-.72-4.74C130.66,73.3,129.78,73.55,129.86,74.13Z"/><path class="cls-3" d="M132.85,75.46a41.67,41.67,0,0,0,.08,7.41.41.41,0,0,0,.78,0,42.63,42.63,0,0,0,.08-7.41A.47.47,0,0,0,132.85,75.46Z"/><path class="cls-3" d="M131,71.32c3.36,5,6.65,10.2,10.25,15.06a.26.26,0,0,0,.46-.26A102.07,102.07,0,0,0,131.46,71C131.25,70.67,130.79,71,131,71.32Z"/><path class="cls-3" d="M135.12,74.07A81.2,81.2,0,0,0,141,81.41c.17.18.49-.06.35-.27a82.92,82.92,0,0,0-5.86-7.36C135.32,73.58,135,73.85,135.12,74.07Z"/><path class="cls-3" d="M149.1,68.34a24.83,24.83,0,0,0,3.16,4.48c1.24,1.61,2.53,3.15,3.89,4.67.22.24.65-.08.46-.36-1-1.53-2.08-3-3.22-4.44a28.18,28.18,0,0,0-4-4.61A.21.21,0,0,0,149.1,68.34Z"/><path class="cls-3" d="M116.17,76.05a133.27,133.27,0,0,0,12.69,13.12.22.22,0,0,0,.31-.31A134.25,134.25,0,0,0,116.5,75.73.23.23,0,0,0,116.17,76.05Z"/><path class="cls-3" d="M115.56,76.3a8.61,8.61,0,0,0-1.06,6.55.36.36,0,0,0,.7-.09,20.21,20.21,0,0,1,.76-6.29A.22.22,0,0,0,115.56,76.3Z"/><path class="cls-3" d="M116.8,76.92c0,1,0,2.06,0,3.09a5.13,5.13,0,0,0,.22,2.41.3.3,0,0,0,.51,0,5.13,5.13,0,0,0,.22-2.41c0-1,0-2.06,0-3.09A.46.46,0,0,0,116.8,76.92Z"/><path class="cls-3" d="M117.49,77c.39,2.09.21,4.16.43,6.24a.26.26,0,0,0,.5.07,12.12,12.12,0,0,0-.12-6.54C118.18,76.24,117.4,76.47,117.49,77Z"/><path class="cls-3" d="M119.4,79.35c-.1,2.08-.46,4.44,0,6.48a.28.28,0,0,0,.46.12,2.58,2.58,0,0,1,.49-.55c.13-.14-.05-.4-.22-.28a2.73,2.73,0,0,1-.6.4l.4.31c.48-2,.12-4.4,0-6.48A.29.29,0,0,0,119.4,79.35Z"/><path class="cls-3" d="M121.29,81.69c-.33,1.41-.51,4.52,1.19,5.18.12,0,.22-.06.23-.17a5.91,5.91,0,0,0-.55-2,6.17,6.17,0,0,1-.08-2.77C122.17,81.4,121.42,81.18,121.29,81.69Z"/><path class="cls-3" d="M122.23,83.46a6.67,6.67,0,0,1,1.29,2.76,11.88,11.88,0,0,0,.37,2.47l.28,0c1.29-1.57-.2-4.49-1.22-5.82C122.63,82.51,121.92,83.05,122.23,83.46Z"/><path class="cls-3" d="M126.16,88.11a2.75,2.75,0,0,0,.21,1.06.16.16,0,0,0,.27,0,2.75,2.75,0,0,0,.21-1.06C126.87,87.67,126.14,87.67,126.16,88.11Z"/><path class="cls-3" d="M101.94,76.7a57.27,57.27,0,0,0,9,15.8c.12.16.36,0,.27-.2-3-5.27-5.93-10.48-8.73-15.85C102.35,76.14,101.81,76.36,101.94,76.7Z"/><path class="cls-3" d="M104.28,76a38.93,38.93,0,0,0,5.59,10.22c.09.11.26,0,.2-.15-1.81-3.41-3.7-6.76-5.2-10.31C104.73,75.45,104.15,75.69,104.28,76Z"/><path class="cls-3" d="M105,76.68a9.73,9.73,0,0,1,4.41,2.74c.14.18.42,0,.31-.24a6.4,6.4,0,0,0-1.93-2.11,4.81,4.81,0,0,0-2.73-.82A.22.22,0,0,0,105,76.68Z"/><path class="cls-3" d="M107,80.11a18.09,18.09,0,0,0,1.81.56,7.63,7.63,0,0,0,1.68.41.31.31,0,0,0,.16-.58A7.88,7.88,0,0,0,109,80c-.61-.17-1.22-.37-1.84-.48A.33.33,0,0,0,107,80.11Z"/><path class="cls-3" d="M106.82,80.05c1.38,1.64,3.73,3.94,6.05,3.89.16,0,.29-.23.14-.34A23.82,23.82,0,0,0,110.2,82a12.5,12.5,0,0,1-3-2.42C107,79.32,106.56,79.75,106.82,80.05Z"/><path class="cls-3" d="M109.46,84.05a3.94,3.94,0,0,1,3.11,1.8c.16.25.62.09.5-.21a3.62,3.62,0,0,0-3.61-2.32A.37.37,0,0,0,109.46,84.05Z"/><path class="cls-3" d="M110.16,85.17l2.18,1.49a17.21,17.21,0,0,0,2.33,1.22c.23.12.52-.19.3-.38a20.39,20.39,0,0,0-2-1.59c-.8-.5-1.6-1-2.39-1.48C110.12,84.13,109.7,84.87,110.16,85.17Z"/><path class="cls-3" d="M112.61,89.52a5.63,5.63,0,0,0,1.57,1c.26.08.56-.25.38-.49A5.89,5.89,0,0,0,113,88.79C112.58,88.48,112.16,89.21,112.61,89.52Z"/><path class="cls-3" d="M102,78.32a20.53,20.53,0,0,0-.5,6.43c0,.19.29.15.34,0a20.33,20.33,0,0,0,.61-6.37C102.42,78.13,102,78.06,102,78.32Z"/><path class="cls-3" d="M104,80.66c-.17,1.1-.34,2.19-.48,3.29a5.25,5.25,0,0,0-.07,2.83.25.25,0,0,0,.38,0,5.43,5.43,0,0,0,.69-2.75c.16-1.09.28-2.19.41-3.29C105,80.26,104.05,80.13,104,80.66Z"/><path class="cls-3" d="M104.09,84.71c0,.93,0,1.87,0,2.81a5.36,5.36,0,0,0,.24,2.22.33.33,0,0,0,.56,0,5.35,5.35,0,0,0,.23-2.22c0-.94,0-1.88,0-2.81A.51.51,0,0,0,104.09,84.71Z"/><path class="cls-3" d="M106.07,87.35c-.5.88-1.06,2.63-.29,3.49a.43.43,0,0,0,.72-.19,6.68,6.68,0,0,0,0-1.34,3.44,3.44,0,0,1,.44-1.46A.5.5,0,0,0,106.07,87.35Z"/><path class="cls-3" d="M106.85,88.22c.34.49.7,1,1.07,1.44.09.1.24,0,.18-.14-.27-.52-.58-1-.89-1.51C107.07,87.78,106.69,88,106.85,88.22Z"/><path class="cls-3" d="M94.8,75c-.71,4.26.59,8.91,2.37,12.74.08.17.34,0,.3-.12-1.18-4.17-1.62-8.42-2.61-12.62Z"/><path class="cls-3" d="M95.53,78.08a7.82,7.82,0,0,0,4.13,3.45c.23.09.36-.27.16-.39a15,15,0,0,1-2.13-1.6c-.63-.55-1.13-1.22-1.75-1.78A.26.26,0,0,0,95.53,78.08Z"/><path class="cls-3" d="M96.5,81.6c.68.63,1.37,1.21,2.09,1.78a10.43,10.43,0,0,0,2,1.45c.17.08.39-.09.27-.27a10,10,0,0,0-1.71-1.8c-.67-.62-1.35-1.22-2.06-1.79C96.7,80.62,96.07,81.2,96.5,81.6Z"/><path class="cls-3" d="M96.18,83c.79,2.41,2.43,5.44,5.06,6.16a.21.21,0,0,0,.2-.34c-.77-.9-1.72-1.61-2.5-2.51a11.12,11.12,0,0,1-2.09-3.5C96.7,82.35,96,82.52,96.18,83Z"/><path class="cls-3" d="M98.32,91.78A4.83,4.83,0,0,0,100,93.42a2.91,2.91,0,0,0,2.25.36.4.4,0,0,0,0-.76c-.54-.22-1.15-.23-1.7-.46A3.64,3.64,0,0,1,99,91.39C98.7,91,98,91.36,98.32,91.78Z"/><path class="cls-3" d="M97.81,64.64c-1.62.53-.84,2.53-.46,3.63a25.74,25.74,0,0,0,4,7.88.14.14,0,0,0,.24-.14c-.54-1.4-5.43-10.56-3.76-11.24Z"/><path class="cls-3" d="M98.16,64.37c.63.64,1.23,1.34,1.88,2a10.29,10.29,0,0,0,1.9,1.66c.26.14.59-.15.42-.42a10.7,10.7,0,0,0-1.76-1.8c-.67-.61-1.4-1.17-2.09-1.77A.25.25,0,0,0,98.16,64.37Z"/><path class="cls-3" d="M98.51,65.79c.17.62.37,1.24.49,1.88a.36.36,0,0,0,.24.24c1.25.35,2.56.7,3.83.94.16,0,.31-.17.17-.3A4.84,4.84,0,0,0,101,67.38a7.62,7.62,0,0,1-1.18-.16c-.47-.18-.62-1.09-.78-1.57A.26.26,0,0,0,98.51,65.79Z"/><path class="cls-3" d="M98.52,69.83A26.59,26.59,0,0,0,103,73.24a.33.33,0,0,0,.4-.52,27.43,27.43,0,0,0-4.38-3.57C98.66,68.85,98.13,69.52,98.52,69.83Z"/><path class="cls-3" d="M101.35,72.37a8.56,8.56,0,0,0,1.11,1c.3.23.74-.22.52-.52a10.26,10.26,0,0,0-1-1.1C101.58,71.31,100.93,72,101.35,72.37Z"/><path class="cls-3" d="M110.85,58.89c-.41,4.42.83,9.33,4.31,12.34.37.33,1.06-.1.73-.56-2.57-3.65-4.39-7.18-4.36-11.78C111.54,58.44,110.88,58.46,110.85,58.89Z"/><path class="cls-3" d="M111.53,62.21c1.29,1.39,4.09,2.34,5.84,1.24a.25.25,0,0,0-.13-.46,21.25,21.25,0,0,1-2.74-.23A8.48,8.48,0,0,1,112,61.59C111.62,61.35,111.24,61.89,111.53,62.21Z"/><path class="cls-3" d="M110.93,64.21a11.65,11.65,0,0,1,2.54.56c.75.26,1.45.66,2.21.87a.41.41,0,0,0,.4-.69c-1.3-1.2-3.45-1.57-5.15-1.69C110.31,63.21,110.33,64.14,110.93,64.21Z"/><path class="cls-3" d="M112.88,65.2a7,7,0,0,0,4.3,2.75c.34,0,.63-.42.26-.62a11.5,11.5,0,0,1-3.88-2.82C113.17,64,112.5,64.72,112.88,65.2Z"/><path class="cls-3" d="M113.27,59c.2.83,1.44,1.09,2.14,1.42a15.51,15.51,0,0,0,3.2,1.35.37.37,0,0,0,.28-.68,15.53,15.53,0,0,0-3.12-1.52c-.72-.3-1.71-1.05-2.46-.66Z"/><path class="cls-3" d="M115.55,68.89c.86,1,2.21,2.12,3.65,2a.32.32,0,0,0,.16-.6c-.52-.32-1.14-.49-1.68-.79A9.24,9.24,0,0,1,116,68.41.34.34,0,0,0,115.55,68.89Z"/><path class="cls-3" d="M106.14,60.37c.16,2.32.8,4.95,2.63,6.53a.32.32,0,0,0,.5-.38c-1-2-2.08-3.84-2.36-6.15C106.85,59.89,106.11,59.87,106.14,60.37Z"/><path class="cls-3" d="M105.28,59.62a7.64,7.64,0,0,0-1.11,1.87,3.19,3.19,0,0,0-.4,1.9.38.38,0,0,0,.69.09,6.48,6.48,0,0,0,.57-1.76,17.78,17.78,0,0,1,.76-1.81C105.91,59.63,105.48,59.4,105.28,59.62Z"/><path class="cls-3" d="M105.67,60.35c1.67-.33,2,1.76,1.46,2.84a23.85,23.85,0,0,1-1.64,2.21.37.37,0,0,0,.5.5c1.23-.77,2.48-2.59,2.23-4.09a2.37,2.37,0,0,0-2.74-2.14C105,59.76,105.22,60.44,105.67,60.35Z"/><path class="cls-3" d="M108.59,64.75c0,1.37-.33,3.14.15,4.44a.25.25,0,0,0,.48,0c.48-1.3.16-3.07.15-4.44A.39.39,0,0,0,108.59,64.75Z"/><path class="cls-3" d="M110.81,68.93a1.59,1.59,0,0,0,.59,2.87.17.17,0,0,0,.08-.31c-.64-.3-1-1.44-.28-1.9C111.61,69.32,111.22,68.65,110.81,68.93Z"/><path class="cls-3" d="M124.11,58.63c.63.23,1.24,1.33,1.67,1.8.76.82,1.53,1.63,2.3,2.45a25.78,25.78,0,0,0,4.44,4.17.2.2,0,0,0,.27-.26c-1.67-2.86-4.42-5.25-6.73-7.59-.33-.33-1.45-1.74-2.16-1.22a.54.54,0,0,0-.19.78l.16.12h.21A.13.13,0,0,0,124.11,58.63Z"/><path class="cls-3" d="M125,59.9v0Z"/><path class="cls-3" d="M124.49,59.3h.09l.19-.11c.31-.65-.49-.85-.88-.38s-.29,1.43-.34,2a8.51,8.51,0,0,0,0,3.06c.06.21.42.3.52.06.2-.44.69-5.06.43-5A.21.21,0,0,0,124.49,59.3Z"/><path class="cls-3" d="M124.6,59.39c0,1.13-.06,2.25-.08,3.37,0,.87-.23,1.88.31,2.6a.25.25,0,0,0,.43,0c.53-.72.33-1.73.31-2.6,0-1.12-.06-2.24-.08-3.37A.45.45,0,0,0,124.6,59.39Z"/><path class="cls-3" d="M126,62.31c0,.7,0,1.4,0,2.1a2.17,2.17,0,0,0,.33,1.5.27.27,0,0,0,.39,0,2.16,2.16,0,0,0,.32-1.5c0-.7,0-1.4,0-2.1A.51.51,0,0,0,126,62.31Z"/><path class="cls-3" d="M126.72,62a11.26,11.26,0,0,1,.88,2.91,6,6,0,0,0,.46,2.4.27.27,0,0,0,.46,0,3.54,3.54,0,0,0,.08-2.68,12.9,12.9,0,0,0-1.09-3.09C127.25,61,126.47,61.47,126.72,62Z"/><path class="cls-3" d="M129.49,65.83a7.49,7.49,0,0,0,.7,2.42c.08.16.3.07.31-.08a7.72,7.72,0,0,0-.35-2.52C130,65.21,129.43,65.41,129.49,65.83Z"/><path class="cls-3" d="M136.78,56.39c.77,1.69,2.23,2.78,3.62,4a18.56,18.56,0,0,0,4.46,3.15.23.23,0,0,0,.28-.36,33.85,33.85,0,0,0-4.39-4,15,15,0,0,0-3.89-2.9Z"/><path class="cls-3" d="M139.88,55.26l1.52,1.57a8.17,8.17,0,0,0,1.47,1.41.36.36,0,0,0,.49-.49A8.17,8.17,0,0,0,142,56.28l-1.57-1.52A.35.35,0,0,0,139.88,55.26Z"/><path class="cls-3" d="M140.06,54.59a9.22,9.22,0,0,0,2.9.72,13.42,13.42,0,0,0,3,.29.16.16,0,0,0,0-.32,15.78,15.78,0,0,0-3.31-.78,8,8,0,0,0-2.62-.21A.17.17,0,0,0,140.06,54.59Z"/><path class="cls-3" d="M141.6,57.81a27.89,27.89,0,0,0,7.36-.65.26.26,0,0,0-.07-.51,28.15,28.15,0,0,0-7.37.56C141.17,57.26,141.26,57.82,141.6,57.81Z"/><path class="cls-3" d="M144.51,59.81c1.81.07,4.18.44,5.91-.19a.24.24,0,0,0,0-.45c-1.73-.63-4.1-.26-5.91-.2A.42.42,0,0,0,144.51,59.81Z"/><path class="cls-3" d="M145.69,61.83c1.62,1,4,1.63,5.72.59.12-.07.12-.3,0-.33-1.84-.27-3.49-.22-5.23-1A.45.45,0,0,0,145.69,61.83Z"/><path class="cls-3" d="M147.79,63.79a14.18,14.18,0,0,0,5,1.06.12.12,0,0,0,.06-.23,14.4,14.4,0,0,0-4.9-1.46A.33.33,0,0,0,147.79,63.79Z"/><path class="cls-3" d="M135.33,58.42a25.39,25.39,0,0,0,.16,5.91.28.28,0,0,0,.53,0,24.86,24.86,0,0,0,.15-5.91A.42.42,0,0,0,135.33,58.42Z"/><path class="cls-3" d="M137.63,60.37c0,1.57-.31,3.47.12,5a.45.45,0,0,0,.87,0c.43-1.52.13-3.43.12-5A.56.56,0,0,0,137.63,60.37Z"/><path class="cls-3" d="M139.63,62.31c0,.75,0,1.49,0,2.23,0,.52-.09,1.1.4,1.41h.27c.48-.31.41-.89.4-1.41l0-2.23A.51.51,0,0,0,139.63,62.31Z"/><path class="cls-3" d="M141.1,63.43a1.63,1.63,0,0,1,1.13.7,4.88,4.88,0,0,1,.41,1.24c.13.36.69.53.89.12.71-1.49-1.09-3-2.43-3.1C140.43,62.34,140.45,63.35,141.1,63.43Z"/></g></g></g></svg>