<svg xmlns="http://www.w3.org/2000/svg" viewBox="0 0 395.54 331.25"><defs><style>.cls-1{fill:#2694cb;}</style></defs><g id="Camada_2" data-name="Camada 2"><g id="ETC"><path class="cls-1" d="M253.66,82.41h0L206.41,0l-44,76.18c-.52.84-1,1.7-1.44,2.48l-1.83,3.75h0a51.61,51.61,0,1,0,94.5,0Zm-6-1.29a46.53,46.53,0,0,1,4.3,32.63l-43-45.25V49.63A36.21,36.21,0,0,0,225.6,43l21.66,37.49Zm-85.29,37.54,41.6-31.81v5.3l-40.1,30.24C163.28,121.17,162.77,119.93,162.33,118.66ZM208.9,14l14.25,24.68a31.82,31.82,0,0,1-14.25,6Zm-5,30.87a25.53,25.53,0,0,1-14.37-6l14.37-24.87Zm5,30.66,41.43,43.58c-.15.41-.32.82-.48,1.24a61,61,0,0,1-19.94-6.19c-13.94-7.37-21-19.34-21-35.59ZM187.07,43.24a29.68,29.68,0,0,0,16.62,6.51c-1.49,11.44-5.83,19.82-12.93,24.92-8.58,6.16-19.32,6.16-25.08,5.59.29-.52.59-1,.93-1.59ZM163.37,85a51.4,51.4,0,0,0,7.12.49c6.64,0,15.49-1.29,23.14-6.76a33.18,33.18,0,0,0,10.3-12.2V80.72l-43.06,32.92A46.61,46.61,0,0,1,163.37,85Zm2.73,41.77,37.83-28.52v51.59A46.77,46.77,0,0,1,166.1,126.77Zm42.8,23.07V100.39c9.59,18.27,30.43,23.36,38.78,24.69A46.81,46.81,0,0,1,208.9,149.84Z"/></g></g></svg>