<svg xmlns="http://www.w3.org/2000/svg" viewBox="0 0 68.99 72.27"><defs><style>.cls-1{fill:#fff;}.cls-2{fill:#2694cb;}</style></defs><g id="Camada_2" data-name="Camada 2"><g id="Dobra_5_-_Pq_desapegar" data-name="Dobra 5 - Pq desapegar"><rect class="cls-1" x="3.93" y="9.93" width="61.14" height="52.4" rx="13.63" transform="translate(35.65 -13.81) rotate(45)"/><path class="cls-2" d="M43.43,70.15c-.82-14.6-2.31-27.24-3.43-35.34a1,1,0,0,0-1.19-.9,1.06,1.06,0,0,0-.91,1.19c1.11,8,2.59,20.57,3.4,35.05H27.68c.82-14.48,2.29-27,3.4-35.05a1.06,1.06,0,0,0-2.1-.29c-1.11,8.1-2.6,20.74-3.42,35.34H16.45A193.27,193.27,0,0,1,27.28,28.09H30c-.09.55-.2,1.26-.33,2.14a1.07,1.07,0,0,0,.76,1.22.9.9,0,0,0,.28,0,1.06,1.06,0,0,0,1-.9c.16-1.08.29-1.93.39-2.5h4.73c.09.57.23,1.42.39,2.5a1.06,1.06,0,0,0,1,.9.9.9,0,0,0,.28,0,1.08,1.08,0,0,0,.76-1.22c-.13-.88-.24-1.59-.33-2.14h2.7A192.9,192.9,0,0,1,52.54,70.15ZM17.76,11.91a.08.08,0,0,1,0-.09l2.41-7.23A2.34,2.34,0,0,1,22,3c1-.16,2.06-.3,3.1-.41a30.85,30.85,0,0,0,8.8,9.47,1,1,0,0,0,1.14,0A30.85,30.85,0,0,0,43.85,2.6Q45.43,2.78,47,3a2.32,2.32,0,0,1,1.85,1.57l2.41,7.23a.06.06,0,0,1,0,.09L46.11,14.1l.73-3.64a1.07,1.07,0,0,0-.7-1.25,1.05,1.05,0,0,0-1.37.79L41.58,26H27.41L24.22,10a1.06,1.06,0,1,0-2.08.42l.74,3.68-5.12-2.19Zm23.72-9.5a28.37,28.37,0,0,1-7,7.55,28.55,28.55,0,0,1-7-7.54,81,81,0,0,1,14,0Zm13.3,68.66A194.91,194.91,0,0,0,43.54,27l2.07-10.36,6.45-2.76a2.2,2.2,0,0,0,1.21-2.71L50.86,4a4.44,4.44,0,0,0-3.54-3A84.2,84.2,0,0,0,21.67,1a4.43,4.43,0,0,0-3.54,3L15.72,11.2a2.2,2.2,0,0,0,1.21,2.71l6.45,2.76L25.45,27A194.89,194.89,0,0,0,14.21,71.08a1.06,1.06,0,0,0,.62,1.1,1,1,0,0,0,.45.09H53.71a1,1,0,0,0,.45-.09,1.07,1.07,0,0,0,.62-1.11Z"/></g></g></svg>