<svg xmlns="http://www.w3.org/2000/svg" viewBox="0 0 69.99 69.99"><defs><style>.cls-1{fill:#fff;}.cls-2{fill:#2694cb;}</style></defs><g id="Camada_2" data-name="Camada 2"><g id="Dobra_5_-_Pq_desapegar" data-name="Dobra 5 - Pq desapegar"><rect class="cls-1" x="4.93" y="8.29" width="61.14" height="52.4" rx="13.63" transform="translate(34.79 -15) rotate(45)"/><path class="cls-2" d="M62.31,5.45l-6.79,6.79L52.46,9.18a7.81,7.81,0,0,0-6.27-2.26l-10.92,1a8,8,0,0,0-4.83,2.27L2.3,38.3a7.85,7.85,0,0,0,0,11.11L20.58,67.7a7.89,7.89,0,0,0,11.13,0L59.83,39.56a7.78,7.78,0,0,0,2.26-4.84l1-10.92a7.87,7.87,0,0,0-2.26-6.26l-3.06-3.07,6.78-6.79a1.58,1.58,0,0,0-2.23-2.23ZM58.6,19.75A4.69,4.69,0,0,1,60,23.5L59,34.42a4.68,4.68,0,0,1-1.37,2.91L29.46,65.48a4.71,4.71,0,0,1-6.66,0L4.51,47.2a4.73,4.73,0,0,1,0-6.66L32.65,12.38A4.72,4.72,0,0,1,35.56,11l10.92-1a3,3,0,0,1,.42,0,4.72,4.72,0,0,1,3.33,1.38l3.06,3.07-5.46,5.46A6.58,6.58,0,1,0,50,22.15l5.47-5.46ZM46.87,28a3.41,3.41,0,1,1-.3-5.07,1.07,1.07,0,0,0,.25.31,2.42,2.42,0,0,0,.31.25A3.4,3.4,0,0,1,46.87,28Z"/><path class="cls-2" d="M22.71,34.85a1.57,1.57,0,1,0-2.22,2.21L32.93,49.51a1.58,1.58,0,0,0,2.69-1.11,1.53,1.53,0,0,0-.46-1.11Z"/><path class="cls-2" d="M17.16,40.39a1.57,1.57,0,0,0-2.22,2.22L27.39,55.05a1.53,1.53,0,0,0,1.11.46,1.62,1.62,0,0,0,1.12-.46,1.56,1.56,0,0,0,0-2.21Z"/></g></g></svg>