<svg xmlns="http://www.w3.org/2000/svg" viewBox="0 0 68.99 68.99"><defs><style>.cls-1{fill:#fff;}.cls-2{fill:#2694cb;}</style></defs><g id="Camada_2" data-name="Camada 2"><g id="Dobra_5_-_Pq_desapegar" data-name="Dobra 5 - Pq desapegar"><rect class="cls-1" x="3.93" y="8.29" width="61.14" height="52.4" rx="13.63" transform="translate(34.49 -14.29) rotate(45)"/><path class="cls-2" d="M58.29,60.87l-3.5-39A2.07,2.07,0,0,0,52.73,20H45.51V16.72a11,11,0,0,0-22,0V20H16.25a2.06,2.06,0,0,0-2.05,1.88L10.68,61a2.07,2.07,0,0,0,2.06,2.25H56.25a2.07,2.07,0,0,0,2.07-2.07,2,2,0,0,0,0-.34ZM27.62,16.72a6.88,6.88,0,1,1,13.75,0V20H27.62ZM15,59.15l3.14-35h5.34v3.7a2.07,2.07,0,0,0,4.14,0v-3.7H41.37v3.7a2.07,2.07,0,1,0,4.14,0v-3.7h5.33l3.15,35Z"/></g></g></svg>