<svg xmlns="http://www.w3.org/2000/svg" viewBox="0 0 212.25 318.29"><defs><style>.cls-1{fill:#fff;}</style></defs><g id="Camada_2" data-name="Camada 2"><g id="ETC"><path class="cls-1" d="M203.36,169.61h0L106.13,0,15.64,156.71c-1.05,1.71-2,3.42-3,5.1l-3.79,7.8h0a106.12,106.12,0,1,0,194.46,0Zm-12.65-2.69a96.1,96.1,0,0,1,10.61,57L110.49,128.4V28L190,165.53ZM110.49,246.8l41.18,49.76A95.16,95.16,0,0,1,110.49,308Zm-10.21-57.07-81.7,61.61q-1.72-3.84-3.11-7.85l84.81-64.85Zm0-95.49L41.43,132.45,100.28,28ZM21.54,166.92l.35-.65c.77-1.41,1.6-2.84,2.48-4.27l5.82-10.08,70.09-45.5v59.37l-87.8,67.13a96,96,0,0,1,9.06-66Zm1.59,93.28L100.28,202V307.9A96,96,0,0,1,23.13,260.2Zm137.33,31-50-60.38V143.22L199,236.28A96.28,96.28,0,0,1,160.46,291.17Z"/></g></g></svg>