<svg xmlns="http://www.w3.org/2000/svg" viewBox="0 0 209.08 313.54"><defs><style>.cls-1{fill:#86cbc8;}</style></defs><g id="Camada_2" data-name="Camada 2"><g id="ETC"><path class="cls-1" d="M200.32,167.07,104.54,0,15.4,154.37c-1,1.68-2,3.37-2.9,5l-3.74,7.68a104.54,104.54,0,1,0,191.56,0ZM99.51,91A51.51,51.51,0,0,1,70.57,79L99.51,28.82Zm10.06-62.18L138.3,78.53c-10.46,7.44-20.13,11-28.73,12.15Zm-5,274.67A94.51,94.51,0,0,1,21.22,164.42l.34-.63c.76-1.39,1.58-2.81,2.45-4.21L65.49,87.73a64.31,64.31,0,0,0,20,10.67,57.63,57.63,0,0,0,17.62,2.77c15.83,0,29.71-6.59,40.23-13.9l43.79,75.79.73,1.36a94.49,94.49,0,0,1-83.32,139.06Z"/><circle class="cls-1" cx="104.12" cy="159.28" r="13.07"/></g></g></svg>