<svg xmlns="http://www.w3.org/2000/svg" viewBox="0 0 114.76 81.48"><defs><style>.cls-1{fill:#e95741;}</style></defs><g id="Camada_2" data-name="Camada 2"><g id="Dobra_6_-_Formulario" data-name="Dobra 6 - Formulario"><path class="cls-1" d="M112.36,0H2.39A2.39,2.39,0,0,0,0,2.39V57.44l0,.3,0,.22.07.24.06.16.09.19.19.31L.62,59l.17.17.11.1.19.13.15.1.19.09.2.09h0L2,59.8H2L102.37,81.43a2.76,2.76,0,0,0,.51,0,2.41,2.41,0,0,0,1.5-.53,2.37,2.37,0,0,0,.89-1.86v-9l3.7.37h.23a2.38,2.38,0,0,0,2.39-2.4V59.83h.77a2.4,2.4,0,0,0,2.4-2.39v-55A2.4,2.4,0,0,0,112.36,0ZM110,45.19V55h-9.85A12.42,12.42,0,0,1,110,45.19Zm-3.16,14.64V65.4L50.74,59.83ZM44.19,64l56.29,5.59v6.54ZM4.79,55V45.19A12.43,12.43,0,0,1,14.64,55Zm0-14.7V19.49A17.29,17.29,0,0,0,19.5,4.79H95.26A17.28,17.28,0,0,0,110,19.49V40.34A17.28,17.28,0,0,0,95.26,55H19.5A17.29,17.29,0,0,0,4.79,40.34ZM100.12,4.79H110v9.85A12.4,12.4,0,0,1,100.12,4.79ZM4.79,14.64V4.79h9.85A12.43,12.43,0,0,1,4.79,14.64Zm40.65,13a3.24,3.24,0,1,0-3.23-3.24A3.25,3.25,0,0,0,45.44,27.65Zm-.77-4.54a1.26,1.26,0,0,0-.35.87,1.28,1.28,0,0,0,2.56,0v-.07a1.69,1.69,0,0,1,.08.5,1.52,1.52,0,1,1-2.29-1.3Zm17.6-3.39a12.37,12.37,0,0,0-3-2.79,7,7,0,0,0-1.93-4.64,11.45,11.45,0,0,0-8.41-3.11,19.15,19.15,0,0,0-7.42,1.58c-3.53,1.51-8.6,4-11.89,8.48-3.46,4.68-4.29,10.32-4.94,16.66-.08.69-.14,1.41-.22,2.27a18.68,18.68,0,0,1-4.11,9.21,1.16,1.16,0,0,0-.19,1.26,1.18,1.18,0,0,0,1.07.7H53a1.18,1.18,0,0,0,1.18-1.18V48.1a14.44,14.44,0,0,0-.73-4.58,10,10,0,0,0,3.33-1.69,16,16,0,0,1,.65,5.41,1.12,1.12,0,0,0,.32.85,1.19,1.19,0,0,0,.87.38,1.13,1.13,0,0,0,.76-.29,17.06,17.06,0,0,0,3.24-4.26,25.46,25.46,0,0,0,3.14-12.58C65.78,25.46,63.87,21.78,62.27,19.72ZM48.92,11.54a9.16,9.16,0,0,1,6.69,2.36A4.64,4.64,0,0,1,56.9,17l-.28.22a26.74,26.74,0,0,0-4.53,4.91c-.07-.38-.16-.76-.26-1.11-.91-3.26-2.72-5.21-5.25-5.64a6.54,6.54,0,0,0-1.15-.1,5.46,5.46,0,0,0-4.77,2.9c-.32.52-.6,1.05-.88,1.57A19.79,19.79,0,0,1,38,22.36c-.44.57-.9,1.16-1.32,1.8-1.72,2.61-2.12,6.6-1.06,10.67a1.12,1.12,0,0,0,1.11.87,1.24,1.24,0,0,0,1-.47,1.09,1.09,0,0,0,.19-1c-.68-2.65-.85-6.35.76-8.79.4-.6.85-1.19,1.28-1.75a21.75,21.75,0,0,0,1.93-2.84c.27-.5.53-1,.81-1.43a3.12,3.12,0,0,1,2.77-1.79,4.11,4.11,0,0,1,.75.07c3.47.59,3.84,6.27,3.88,7.46-.33.55-.66,1.11-1,1.67v0a29.4,29.4,0,0,0-3.44,9.64,13.71,13.71,0,0,0,0,4.76,8,8,0,0,1-6.88-4.54,1.14,1.14,0,0,0-1-.63,1.24,1.24,0,0,0-1,.59,1.12,1.12,0,0,0,0,1.12,10.39,10.39,0,0,0,8.58,5.81c.24,0,.5,0,.76,0l1,0a7.43,7.43,0,0,0,2.82.51h0A10.63,10.63,0,0,0,51.14,44,11.55,11.55,0,0,1,51.79,47H23.57A19.65,19.65,0,0,0,26.8,38.4c.08-.86.14-1.57.21-2.25.62-6,1.39-11.3,4.49-15.51,1.42-1.91,4.09-4.79,10.93-7.71A16.7,16.7,0,0,1,48.92,11.54Zm2.69,30h0a7.91,7.91,0,0,1-1.7.19,5.64,5.64,0,0,1-1.69-.24c-.6-1.91-.49-4.18.33-7.13.14-.48.29-1,.46-1.45a15.77,15.77,0,0,1,6.81,6.49l.06.11A8,8,0,0,1,51.61,41.55ZM49.85,30.72l.44-1a34.06,34.06,0,0,1,7.25-10.21l.1-.08c.22-.21.38-.35.49-.44a10.09,10.09,0,0,1,2.32,2.23c2.45,3.18,3,7.25,3,10.1a23.1,23.1,0,0,1-2.81,11.37c-.29.51-.59,1-.91,1.47a16.77,16.77,0,0,0-1.79-5.84A18,18,0,0,0,50.45,31ZM77,24.83c0,1,.42,2.39,4,3.59,1.53.51,6.16,2,6.16,6.58a6.66,6.66,0,0,1-5.08,6.47v.67a1.58,1.58,0,1,1-3.15,0v-.67A6.66,6.66,0,0,1,73.87,35,1.58,1.58,0,1,1,77,35a3.51,3.51,0,0,0,7,0c0-1.12-.48-2.41-4-3.59-4.09-1.36-6.16-3.57-6.16-6.58A6.66,6.66,0,0,1,79,18.37v-.68a1.58,1.58,0,1,1,3.15,0v.68a6.66,6.66,0,0,1,5.08,6.46,1.58,1.58,0,1,1-3.15,0,3.51,3.51,0,0,0-7,0Z"/></g></g></svg>