<svg xmlns="http://www.w3.org/2000/svg" viewBox="0 0 212.25 318.29"><defs><style>.cls-1{fill:#86cbc8;}</style></defs><g id="Camada_2" data-name="Camada 2"><g id="ETC"><path class="cls-1" d="M0,212.17a106.13,106.13,0,1,0,203.36-42.56h0L106.13,0,15.68,156.65c-1.09,1.76-2.1,3.52-2.95,5.1L8.9,169.61h0A106.46,106.46,0,0,0,0,212.17Zm19.32,40.74c15.53-2.2,61.17-12.5,81.7-51.61V308A96.07,96.07,0,0,1,19.32,252.91ZM111.23,29.25l78.5,135.88c-11.92,1.13-33.72,1-51.16-11.52-15.52-11.14-24.63-29.91-27.07-55.78l-.27,0Zm0,278.7V201.3c20.26,39.36,65.85,49.28,81.72,51.58A96.09,96.09,0,0,1,111.23,308Zm85.66-64.83a124.83,124.83,0,0,1-42.18-12.87c-28.66-15.13-43.48-39.73-43.48-73.12h0V136.32A68,68,0,0,0,132.69,162c22.29,16,49.56,14.61,61.78,12.94a95.58,95.58,0,0,1,2.42,68.23ZM101,29.26V98c-2.47,25.76-11.57,44.46-27,55.57C56.4,166.23,34.41,166.27,22.55,165.1c.59-1,1.2-2.1,1.89-3.22ZM17.8,174.86C29.88,176.54,57.39,178,79.86,162c8.89-6.36,16-15.31,21.16-25.63v20.81c0,33.39-14.53,58-43.18,73.12a124.91,124.91,0,0,1-42.47,12.9,95.53,95.53,0,0,1,2.43-68.29Z"/></g></g></svg>