<svg xmlns="http://www.w3.org/2000/svg" viewBox="0 0 68.99 68.99"><defs><style>.cls-1{fill:#fff;}.cls-2{fill:#2694cb;}</style></defs><g id="Camada_2" data-name="Camada 2"><g id="Dobra_5_-_Pq_desapegar" data-name="Dobra 5 - Pq desapegar"><rect class="cls-1" x="3.93" y="8.29" width="61.14" height="52.4" rx="13.63" transform="translate(34.49 -14.29) rotate(45)"/><path class="cls-2" d="M10.7,59.58a2.86,2.86,0,0,0,1.36,1.76l6.58,3.76a2.89,2.89,0,0,0,4-1.08L33.74,44.57a20.4,20.4,0,0,0,3.91.38A20.75,20.75,0,1,0,22.12,37.9L11,57.37a2.89,2.89,0,0,0-.28,2.21ZM28.38,46.91,22.8,43.73l1.92-3.35a20.74,20.74,0,0,0,2.65,1.83,21,21,0,0,0,2.92,1.37ZM22.7,15.66a17.22,17.22,0,0,1,23.52-6.4,17.27,17.27,0,0,1,6.41,23.53A17.24,17.24,0,1,1,22.7,15.66ZM21.07,46.75l5.58,3.19L19.87,61.79,14.29,58.6Z"/><path class="cls-2" d="M30.32,37.05a14.78,14.78,0,1,0-6.91-8.94,14.78,14.78,0,0,0,6.91,8.94ZM25.85,17.46A13.6,13.6,0,1,1,24.52,27.8a13.66,13.66,0,0,1,1.33-10.34Z"/></g></g></svg>