<svg xmlns="http://www.w3.org/2000/svg" viewBox="0 0 212.25 318.29"><defs><style>.cls-1{fill:#86cbc8;}</style></defs><g id="Camada_2" data-name="Camada 2"><g id="ETC"><path class="cls-1" d="M203.36,169.61h0L106.13,0,15.64,156.71c-1.05,1.71-2,3.43-3,5.1l-3.79,7.8h0a106.12,106.12,0,1,0,194.46,0ZM15.93,179.54a98,98,0,0,0,180.39,0c.43,1.2.85,2.4,1.24,3.62a92.08,92.08,0,0,1-182.86,0C15.08,181.94,15.5,180.74,15.93,179.54Zm90.2-159.13L190,165.53l.34.62a87.8,87.8,0,0,1-168.35,0c.75-1.36,1.56-2.75,2.42-4.15Zm0,287.67a96,96,0,0,1-95.92-95.91c0-1.32,0-2.63.09-3.94a102.39,102.39,0,0,0,191.65,0c.06,1.31.09,2.62.09,3.94A96,96,0,0,1,106.13,308.08Z"/></g></g></svg>