<svg xmlns="http://www.w3.org/2000/svg" viewBox="0 0 68.99 77.49"><defs><style>.cls-1{fill:#fff;}.cls-2{fill:#2694cb;}</style></defs><g id="Camada_2" data-name="Camada 2"><g id="Dobra_5_-_Pq_desapegar" data-name="Dobra 5 - Pq desapegar"><rect class="cls-1" x="3.93" y="16.79" width="61.14" height="52.4" rx="13.63" transform="translate(40.5 -11.8) rotate(45)"/><path class="cls-2" d="M57.08,39.39h0L34.49,0l-21,36.41c-.25.41-.49.82-.69,1.19l-.87,1.79h0a24.67,24.67,0,1,0,45.17,0Zm-2.89-.61a22.36,22.36,0,0,1,2.06,15.6L35.68,32.74v-9a17.26,17.26,0,0,0,8-3.19L54,38.45ZM13.42,56.72l19.89-15.2v2.53L14.14,58.5A18.39,18.39,0,0,1,13.42,56.72Zm22.26-50,6.82,11.8a15.31,15.31,0,0,1-6.82,2.89ZM33.31,21.47a12.26,12.26,0,0,1-6.87-2.86l6.87-11.9Zm2.37,14.65L55.49,57c-.07.2-.15.4-.23.6a29.11,29.11,0,0,1-9.53-3c-6.67-3.52-10-9.25-10-17ZM25.25,20.67a14.2,14.2,0,0,0,7.94,3.11c-.71,5.47-2.78,9.48-6.18,11.91-4.1,3-9.23,3-12,2.67l.45-.75Zm-11.33,20a24.37,24.37,0,0,0,3.4.24,19,19,0,0,0,11.06-3.23,16,16,0,0,0,4.93-5.84v6.79L12.73,54.32a22.08,22.08,0,0,1,1.19-13.69Zm1.3,20L33.31,47V71.63A22.38,22.38,0,0,1,15.22,60.6Zm20.46,11V48c4.59,8.73,14.55,11.17,18.54,11.8A22.36,22.36,0,0,1,35.68,71.63Z"/></g></g></svg>