<svg xmlns="http://www.w3.org/2000/svg" viewBox="0 0 70.29 68.99"><defs><style>.cls-1{fill:#fff;}.cls-2{fill:#2694cb;}</style></defs><g id="Camada_2" data-name="Camada 2"><g id="Dobra_5_-_Pq_desapegar" data-name="Dobra 5 - Pq desapegar"><rect class="cls-1" x="4.58" y="8.29" width="61.14" height="52.4" rx="13.63" transform="translate(34.68 -14.75) rotate(45)"/><path class="cls-2" d="M68.82,9.54H1.47A1.47,1.47,0,0,0,0,11V44.9L0,45l0,.15,0,.1.06.11.12.19.09.11.1.1.07.07L.67,46,.76,46l.11.05.13.06H1l.17.05h0L62.7,59.42a1.63,1.63,0,0,0,.31,0A1.48,1.48,0,0,0,64.48,58V52.45l2.27.23h.14a1.46,1.46,0,0,0,1.46-1.46v-5h.47a1.47,1.47,0,0,0,1.47-1.47V11A1.47,1.47,0,0,0,68.82,9.54ZM67.36,37.22v6h-6A7.6,7.6,0,0,1,67.36,37.22Zm-1.94,9V49.6L31.08,46.19ZM27.06,48.74l34.49,3.42v4ZM2.93,43.26v-6a7.6,7.6,0,0,1,6,6Zm0-9V21.48a10.59,10.59,0,0,0,9-9H58.35a10.59,10.59,0,0,0,9,9V34.25a10.59,10.59,0,0,0-9,9H11.94A10.59,10.59,0,0,0,2.93,34.25ZM61.32,12.47h6v6A7.62,7.62,0,0,1,61.32,12.47Zm-58.39,6v-6H9A7.62,7.62,0,0,1,2.93,18.51Zm24.91,8a2,2,0,1,0-2-2A2,2,0,0,0,27.84,26.47Zm-.48-2.77a.77.77,0,0,0-.21.53.78.78,0,0,0,1.56,0v0a.73.73,0,0,1,.05.3.93.93,0,1,1-1.85,0A.91.91,0,0,1,27.36,23.7Zm10.78-2.08a7.57,7.57,0,0,0-1.84-1.71,4.28,4.28,0,0,0-1.18-2.84A7.06,7.06,0,0,0,30,15.16a11.73,11.73,0,0,0-4.54,1,17.38,17.38,0,0,0-7.29,5.2c-2.12,2.86-2.62,6.31-3,10.2,0,.42-.09.87-.13,1.39a11.55,11.55,0,0,1-2.52,5.64.74.74,0,0,0-.12.78.71.71,0,0,0,.66.42H32.48A.72.72,0,0,0,33.2,39v0a8.88,8.88,0,0,0-.45-2.8,6.29,6.29,0,0,0,2-1,9.71,9.71,0,0,1,.4,3.31.72.72,0,0,0,.19.53.78.78,0,0,0,.54.23.67.67,0,0,0,.46-.18,10,10,0,0,0,2-2.61,15.65,15.65,0,0,0,1.92-7.7A11.3,11.3,0,0,0,38.14,21.62Zm-8.18-5a5.59,5.59,0,0,1,4.1,1.45A2.81,2.81,0,0,1,34.85,20l-.17.14a16.71,16.71,0,0,0-2.77,3c-.05-.23-.1-.46-.16-.68-.56-2-1.67-3.19-3.22-3.45a4.32,4.32,0,0,0-.7-.06,3.33,3.33,0,0,0-2.92,1.78,10.18,10.18,0,0,0-.54,1,13.35,13.35,0,0,1-1.1,1.6c-.27.35-.55.71-.81,1.1a8.39,8.39,0,0,0-.65,6.53.68.68,0,0,0,.68.54.76.76,0,0,0,.6-.29.66.66,0,0,0,.12-.61c-.42-1.62-.52-3.89.46-5.38.25-.37.52-.73.79-1.08a12.82,12.82,0,0,0,1.18-1.73c.17-.31.32-.6.5-.88a1.89,1.89,0,0,1,1.69-1.09,2.45,2.45,0,0,1,.46,0c2.12.36,2.35,3.84,2.38,4.56-.21.34-.4.69-.59,1h0A17.79,17.79,0,0,0,28,31.9a8.55,8.55,0,0,0,0,2.91A4.87,4.87,0,0,1,23.78,32a.71.71,0,0,0-.62-.39.78.78,0,0,0-.65.37.66.66,0,0,0,0,.68,6.39,6.39,0,0,0,5.26,3.56l.46,0,.6,0a4.53,4.53,0,0,0,1.73.32h0a6.78,6.78,0,0,0,.77-.05,7.52,7.52,0,0,1,.39,1.81H14.44a12.19,12.19,0,0,0,2-5.26c0-.53.08-1,.13-1.38.38-3.67.84-6.92,2.75-9.5.86-1.17,2.5-2.93,6.69-4.72A10.13,10.13,0,0,1,30,16.61ZM31.61,35h0a5.49,5.49,0,0,1-1,.11,3.43,3.43,0,0,1-1-.15,7.63,7.63,0,0,1,.21-4.36c.08-.29.17-.59.27-.89a9.65,9.65,0,0,1,4.18,4l0,.07A4.9,4.9,0,0,1,31.61,35Zm-1.08-6.63.27-.6a20.78,20.78,0,0,1,4.45-6.25l0-.06.3-.27A6.36,6.36,0,0,1,37,22.55a10.23,10.23,0,0,1,1.81,6.19,14.21,14.21,0,0,1-1.71,7c-.18.31-.37.62-.56.9A10,10,0,0,0,35.47,33a11.05,11.05,0,0,0-4.57-4.49Zm16.65-3.61c0,.59.25,1.46,2.45,2.2.93.31,3.77,1.26,3.77,4a4.09,4.09,0,0,1-3.11,4v.41a1,1,0,1,1-1.93,0v-.41a4.09,4.09,0,0,1-3.12-4,1,1,0,1,1,1.94,0,2.15,2.15,0,0,0,4.29,0c0-.69-.29-1.48-2.45-2.2-2.51-.83-3.78-2.19-3.78-4a4.08,4.08,0,0,1,3.12-4v-.41a1,1,0,1,1,1.93,0v.41a4.09,4.09,0,0,1,3.11,4,1,1,0,1,1-1.93,0,2.15,2.15,0,0,0-4.29,0Z"/></g></g></svg>