<svg xmlns="http://www.w3.org/2000/svg" viewBox="0 0 68.99 68.99"><defs><style>.cls-1{fill:#fff;}.cls-2{fill:#2694cb;}</style></defs><g id="Camada_2" data-name="Camada 2"><g id="Dobra_5_-_Pq_desapegar" data-name="Dobra 5 - Pq desapegar"><rect class="cls-1" x="3.93" y="8.29" width="61.14" height="52.4" rx="13.63" transform="translate(34.49 -14.29) rotate(45)"/><path class="cls-2" d="M63.54,39.75,45.42,28.85A21.24,21.24,0,0,0,37.12,26V23.25a4.29,4.29,0,0,1,2.3-3.74,10.34,10.34,0,1,0-15.26-9.09,2.62,2.62,0,1,0,5.24,0,5.1,5.1,0,1,1,7.52,4.49,9.53,9.53,0,0,0-5,8.34V26a21.33,21.33,0,0,0-8.27,2.84L5.47,39.68h0a9.19,9.19,0,0,0,4.7,17.08l48.62.06h0a9.19,9.19,0,0,0,4.74-17.07ZM58.8,51.58h0l-48.62-.06a4,4,0,0,1-2-7.35h0L26.3,33.32a16,16,0,0,1,16.43,0l18.11,10.9a4,4,0,0,1-2,7.34Z"/></g></g></svg>