<svg width="550" height="450" xmlns="http://www.w3.org/2000/svg">
 <g id="Layer_1">
  <title>Layer 1</title>
  <g id="svg_3">
   <g opacity="0.43" data-name="Camada 2" id="svg_1" transform="rotate(-180 216 159)">
    <g id="svg_2">
     <path fill="#8ececd" d="m109.87,212.02858a106.13,106.13 0 1 0 203.36,-42.56l0,0l-97.23,-169.61l-90.45,156.65c-1.09,1.76 -2.1,3.52 -2.95,5.1l-3.83,7.86l0,0a106.46,106.46 0 0 0 -8.9,42.56zm19.32,40.74c15.53,-2.2 61.17,-12.5 81.7,-51.61l0,106.7a96.07,96.07 0 0 1 -81.7,-55.09zm91.91,-223.66l78.5,135.88c-11.92,1.13 -33.72,1 -51.16,-11.52c-15.52,-11.14 -24.63,-29.91 -27.07,-55.78l-0.27,0l0,-68.58zm0,278.7l0,-106.65c20.26,39.36 65.85,49.28 81.72,51.58a96.09,96.09 0 0 1 -81.72,55.12l0,-0.05zm85.66,-64.83a124.83,124.83 0 0 1 -42.18,-12.87c-28.66,-15.13 -43.48,-39.73 -43.48,-73.12l0,0l0,-20.81a68,68 0 0 0 21.46,25.68c22.29,16 49.56,14.61 61.78,12.94a95.58,95.58 0 0 1 2.42,68.23l0,-0.05zm-95.89,-213.86l0,68.74c-2.47,25.76 -11.57,44.46 -27,55.57c-17.6,12.66 -39.59,12.7 -51.45,11.53c0.59,-1 1.2,-2.1 1.89,-3.22l76.56,-132.62zm-83.2,145.6c12.08,1.68 39.59,3.14 62.06,-12.86c8.89,-6.36 16,-15.31 21.16,-25.63l0,20.81c0,33.39 -14.53,58 -43.18,73.12a124.91,124.91 0 0 1 -42.47,12.9a95.53,95.53 0 0 1 2.43,-68.29l0,-0.05z" class="cls-1" id="svg_4"/>
    </g>
   </g>
  </g>
  <g opacity="0.88" stroke="null" id="svg_7">
   <g stroke="null" id="svg_5" data-name="Camada 2">
    <g stroke="null" id="svg_6">
     <path stroke="null" id="svg_8" class="cls-1" d="m416.98129,295.68906l0,0l-93.94152,-159.07969l-87.47993,147.05365c-1.03385,1.62149 -1.98818,3.28159 -2.86298,4.78725l-3.63837,7.23879l0,0a102.60998,99.62508 0 1 0 187.88304,0l0.03976,0zm-11.92908,-2.49014a92.51003,89.81893 0 0 1 8.54918,62.98714l-85.49175,-87.34809l0,-36.4256a71.99201,69.89778 0 0 0 33.08332,-12.79818l43.06398,72.36862l0.79527,1.21612l0,-0.00001zm-169.5719,72.46513l82.7083,-61.40426l0,10.23083l-79.72603,58.37362c-1.17303,-2.35502 -2.187,-4.74865 -3.0618,-7.20019l0.07953,0zm92.51003,-202.02986l28.33157,47.6409a63.2639,61.42356 0 0 1 -28.33157,11.58207l0,-59.22297zm-9.9409,59.58974a50.75824,49.2817 0 0 1 -28.57015,-11.58207l28.57015,-48.00767l0,59.58974zm9.9409,59.18436l82.37031,84.12441c-0.29823,0.79144 -0.63622,1.58288 -0.95433,2.39363a121.279,117.75102 0 0 1 -39.64431,-11.94883c-27.71523,-14.22664 -41.75179,-37.33286 -41.75179,-68.70096l-0.01988,-5.86825zm-43.40198,-62.33082a59.00919,57.29263 0 0 0 33.04356,12.56654c-2.96239,22.08314 -11.59109,38.25943 -25.70717,48.10419c-17.05859,11.89092 -38.41164,11.89092 -49.86356,10.79063c0.57657,-1.00378 1.17303,-1.93034 1.84901,-3.06925l40.67817,-68.39211l-0.00001,0zm-47.11987,80.61119a102.19247,99.21971 0 0 0 14.15584,0.94587c13.20152,0 30.79691,-2.49014 46.00649,-13.04913a65.96782,64.04883 0 0 0 20.47826,-23.5502l0,27.39159l-85.61104,63.54694a92.66908,89.97336 0 0 1 4.97045,-55.28507zm5.42773,80.63049l75.21286,-55.05343l0,99.58647a92.98719,90.28221 0 0 1 -75.21286,-44.53305l0,0.00001zm85.09412,44.53305l0,-95.45554c19.06665,35.26739 60.50033,45.09285 77.10163,47.66021a93.06672,90.35943 0 0 1 -77.10163,47.79533z" fill="#8ececd"/>
    </g>
   </g>
  </g>
  <g id="svg_13">
   <g data-name="Camada 2" id="svg_9">
    <g id="svg_10">
     <path fill="#8ececd" d="m201.77999,291.32983l-95.78,-167.07l-89.14,154.37c-1,1.68 -2,3.37 -2.9,5l-3.74,7.68a104.54,104.54 0 1 0 191.56,0l0,0.02zm-100.81,-76.07a51.51,51.51 0 0 1 -28.94,-12l28.94,-50.18l0,62.18zm10.06,-62.18l28.73,49.71c-10.46,7.44 -20.13,11 -28.73,12.15l0,-61.86zm-5,274.67a94.51,94.51 0 0 1 -83.35,-139.07l0.34,-0.63c0.76,-1.39 1.58,-2.81 2.45,-4.21l41.48,-71.85a64.31,64.31 0 0 0 20,10.67a57.63,57.63 0 0 0 17.62,2.77c15.83,0 29.71,-6.59 40.23,-13.9l43.79,75.79l0.73,1.36a94.49,94.49 0 0 1 -83.32,139.06l0.03,0.01z" class="cls-1" id="svg_14"/>
     <circle fill="#8ececd" r="13.07" cy="283.53983" cx="105.57999" class="cls-1" id="svg_15"/>
    </g>
   </g>
  </g>
  <g id="svg_16">
   <g transform="rotate(180 432 162)" data-name="Camada 2" id="svg_11">
    <g id="svg_12">
     <path fill="#8ececd" d="m529.27995,172.48592l0,0l-97.23,-169.61l-90.49,156.71c-1.05,1.71 -2,3.43 -3,5.1l-3.79,7.8l0,0a106.12,106.12 0 1 0 194.46,0l0.05,0zm-187.43,9.93a98,98 0 0 0 180.39,0c0.43,1.2 0.85,2.4 1.24,3.62a92.08,92.08 0 0 1 -182.86,0c0.38,-1.22 0.8,-2.42 1.23,-3.62zm90.2,-159.13l83.87,145.12l0.34,0.62a87.8,87.8 0 0 1 -168.35,0c0.75,-1.36 1.56,-2.75 2.42,-4.15l81.72,-141.59zm0,287.67a96,96 0 0 1 -95.92,-95.91c0,-1.32 0,-2.63 0.09,-3.94a102.39,102.39 0 0 0 191.65,0c0.06,1.31 0.09,2.62 0.09,3.94a96,96 0 0 1 -95.91,95.91z" class="cls-1" id="svg_17"/>
    </g>
   </g>
  </g>
 </g>

</svg>