<svg width="550" height="450" viewBox="0 0 550 450" fill="none" xmlns="http://www.w3.org/2000/svg">
<g clip-path="url(#clip0)">
<g opacity="0.43">
<g opacity="0.43">
<path opacity="0.43" d="M322.13 105.971C322.127 90.1909 318.606 74.6096 311.822 60.3618C305.037 46.1141 295.161 33.5585 282.912 23.6093C270.663 13.6601 256.35 6.56765 241.014 2.84833C225.678 -0.87099 209.706 -1.12353 194.26 2.10904C178.814 5.34161 164.283 11.978 151.726 21.5349C139.168 31.0919 128.9 43.3289 121.669 57.355C114.438 71.3811 110.425 86.8433 109.924 102.616C109.422 118.388 112.444 134.074 118.77 148.531L216 318.141L306.45 161.491C307.54 159.731 308.55 157.971 309.4 156.391L313.23 148.531C319.093 135.108 322.123 120.619 322.13 105.971V105.971ZM302.81 65.2314C287.28 67.4314 241.64 77.7314 221.11 116.841L221.11 10.1414C238.433 11.0912 255.176 16.7143 269.561 26.4139C283.946 36.1134 295.435 49.5274 302.81 65.2314ZM210.9 288.891L132.4 153.011C144.32 151.881 166.12 152.011 183.56 164.531C199.08 175.671 208.19 194.441 210.63 220.311H210.9V288.891V288.891ZM210.9 10.1914L210.9 116.841C190.64 77.4814 145.05 67.5614 129.18 65.2614C136.554 49.5502 148.045 36.1294 162.434 26.4244C176.822 16.7194 193.571 11.0925 210.9 10.1414V10.1914ZM125.24 75.0214C139.952 76.7742 154.235 81.1322 167.42 87.8914C196.08 103.021 210.9 127.621 210.9 161.011V181.821C205.998 171.607 198.621 162.78 189.44 156.141C167.15 140.141 139.88 141.531 127.66 143.201C118.481 121.532 117.619 97.2371 125.24 74.9714V75.0214V75.0214ZM221.13 288.881V220.141C223.6 194.381 232.7 175.681 248.13 164.571C265.73 151.911 287.72 151.871 299.58 153.041C298.99 154.041 298.38 155.141 297.69 156.261L221.13 288.881ZM304.33 143.281C292.25 141.601 264.74 140.141 242.27 156.141C233.38 162.501 226.27 171.451 221.11 181.771V160.961C221.11 127.571 235.64 102.961 264.29 87.8414C277.563 81.0405 291.947 76.6715 306.76 74.9414C314.398 97.2258 313.532 121.546 304.33 143.231V143.281V143.281Z" fill="white"/>
</g>
</g>
<g opacity="0.88">
<g opacity="0.88">
<g opacity="0.88">
<path opacity="0.88" d="M416.981 295.689L323.04 136.609L235.56 283.663C234.526 285.285 233.572 286.945 232.697 288.45L229.058 295.689C222.196 310.853 219.336 327.438 220.737 343.946C222.137 360.453 227.755 376.36 237.081 390.229C246.407 404.098 259.147 415.49 274.149 423.376C289.151 431.261 305.941 435.391 323 435.391C340.059 435.391 356.849 431.261 371.851 423.376C386.853 415.49 399.593 404.098 408.919 390.229C418.245 376.36 423.863 360.453 425.264 343.946C426.664 327.438 423.804 310.853 416.942 295.689H416.981V295.689ZM405.052 293.199C415.71 312.482 418.75 334.88 413.601 356.186L328.11 268.838V232.412C340.067 230.904 351.443 226.503 361.193 219.614L404.257 291.983L405.052 293.199V293.199V293.199ZM235.48 365.664L318.189 304.26V314.491L238.463 372.864C237.29 370.509 236.276 368.116 235.401 365.664H235.48ZM327.99 163.634L356.322 211.275C348.002 217.339 338.271 221.317 327.99 222.857V163.634ZM318.049 223.224C307.516 222.346 297.528 218.297 289.479 211.642L318.049 163.634V223.224V223.224ZM327.99 282.408L410.361 366.533C410.062 367.324 409.724 368.116 409.406 368.926C395.582 367.185 382.171 363.143 369.762 356.978C342.047 342.751 328.01 319.645 328.01 288.277L327.99 282.408ZM284.588 220.077C294.014 227.459 305.55 231.846 317.632 232.644C314.67 254.727 306.041 270.903 291.925 280.748C274.866 292.639 253.513 292.639 242.061 291.539C242.638 290.535 243.234 289.608 243.91 288.47L284.588 220.077H284.588ZM237.468 300.689C242.159 301.322 246.889 301.638 251.624 301.635C264.826 301.635 282.421 299.144 297.631 288.585C306.33 282.471 313.359 274.387 318.109 265.035V292.427L232.498 355.974C228.114 337.497 229.853 318.148 237.468 300.689ZM242.896 381.319L318.109 326.266V425.852C302.758 425.045 287.852 420.554 274.726 412.782C261.601 405.011 250.664 394.2 242.896 381.319V381.319V381.319ZM327.99 425.852V330.397C347.057 365.664 388.491 375.49 405.092 378.057C397.567 391.795 386.515 403.413 373.007 411.787C359.499 420.16 343.993 425.005 327.99 425.852V425.852Z" fill="white" fill-opacity="0.15"/>
</g>
</g>
</g>
<path d="M201.78 291.33L106 124.26L16.86 278.63C15.86 280.31 14.86 282 13.96 283.63L10.22 291.31C3.26162 307.22 0.376098 324.612 1.82403 341.917C3.27197 359.222 9.00775 375.893 18.5133 390.425C28.0189 404.957 40.9948 416.893 56.2691 425.154C71.5434 433.414 88.635 437.74 106 437.74C123.365 437.74 140.457 433.414 155.731 425.154C171.005 416.893 183.981 404.957 193.487 390.425C202.992 375.893 208.728 359.222 210.176 341.917C211.624 324.612 208.738 307.22 201.78 291.31V291.33ZM100.97 215.26C90.3114 214.362 80.1967 210.168 72.03 203.26L100.97 153.08V215.26ZM111.03 153.08L139.76 202.79C129.3 210.23 119.63 213.79 111.03 214.94V153.08V153.08ZM106.03 427.75C89.701 427.751 73.6504 423.521 59.4427 415.472C45.235 407.424 33.355 395.831 24.9606 381.825C16.5662 367.819 11.9439 351.877 11.5442 335.553C11.1446 319.229 14.9811 303.08 22.68 288.68L23.02 288.05C23.78 286.66 24.6 285.24 25.47 283.84L66.95 211.99C72.9323 216.703 79.7041 220.315 86.95 222.66C92.644 224.492 98.5885 225.426 104.57 225.43C120.4 225.43 134.28 218.84 144.8 211.53L188.59 287.32L189.32 288.68C197.021 303.077 200.861 319.223 200.464 335.546C200.067 351.868 195.448 367.809 187.056 381.815C178.665 395.82 166.787 407.413 152.581 415.461C138.376 423.51 122.327 427.74 106 427.74L106.03 427.75V427.75Z" fill="white" fill-opacity="0.15"/>
<path d="M105.58 296.61C112.798 296.61 118.65 290.758 118.65 283.54C118.65 276.321 112.798 270.47 105.58 270.47C98.3616 270.47 92.51 276.321 92.51 283.54C92.51 290.758 98.3616 296.61 105.58 296.61Z" fill="white" fill-opacity="0.15"/>
<path d="M334.72 151.514L431.95 321.124L522.44 164.414C523.49 162.704 524.44 160.984 525.44 159.314L529.23 151.514C536.292 135.364 539.221 117.709 537.75 100.143C536.28 82.5776 530.457 65.655 520.807 50.9037C511.158 36.1525 497.986 24.0372 482.481 15.6521C466.976 7.26694 449.627 2.8761 432 2.8761C414.373 2.8761 397.024 7.26694 381.519 15.6521C366.014 24.0372 352.842 36.1525 343.193 50.9037C333.543 65.655 327.72 82.5776 326.25 100.143C324.779 117.709 327.708 135.364 334.77 151.514H334.72V151.514ZM522.15 141.584C514.629 123.885 502.068 108.79 486.029 98.1788C469.991 87.5678 451.186 81.9099 431.955 81.9099C412.724 81.9099 393.919 87.5678 377.881 98.1788C361.842 108.79 349.281 123.885 341.76 141.584C341.33 140.384 340.91 139.184 340.52 137.964C343.192 115.593 353.974 94.9785 370.823 80.0221C387.672 65.0657 409.42 56.8057 431.95 56.8057C454.48 56.8057 476.228 65.0657 493.077 80.0221C509.927 94.9785 520.708 115.593 523.38 137.964C523 139.184 522.58 140.384 522.15 141.584V141.584ZM431.95 300.714L348.08 155.594L347.74 154.974C353.123 136.827 364.226 120.905 379.395 109.582C394.564 98.2596 412.986 92.1423 431.915 92.1423C450.844 92.1423 469.266 98.2596 484.435 109.582C499.604 120.905 510.707 136.827 516.09 154.974C515.34 156.334 514.53 157.724 513.67 159.124L431.95 300.714ZM431.95 13.0441C457.381 13.0653 481.765 23.1766 499.749 41.1583C517.732 59.14 527.846 83.5228 527.87 108.954C527.87 110.274 527.87 111.584 527.78 112.894C520.445 93.4083 507.343 76.6219 490.222 64.7734C473.102 52.9249 452.776 46.5774 431.955 46.5774C411.134 46.5774 390.808 52.9249 373.688 64.7734C356.567 76.6219 343.465 93.4083 336.13 112.894C336.07 111.584 336.04 110.274 336.04 108.954C336.064 83.5245 346.176 59.1433 364.158 41.1618C382.139 23.1804 406.52 13.0679 431.95 13.0441Z" fill="white" fill-opacity="0.15"/>
</g>
<defs>
<clipPath id="clip0">
<rect width="550" height="450" fill="white"/>
</clipPath>
</defs>
</svg>
