<svg width="540" height="160" xmlns="http://www.w3.org/2000/svg">
 <g id="Layer_1">
  <title>Layer 1</title>
  <g>

   <g data-name="Camada 2" id="svg_5">
    <g id="svg_6">
     <path fill="#ffffff" d="m166.245,82.77501l-27.18,61.1l11.43,0l5.85,-14.49l29.43,0l5.85,14.49l11.43,0l-27.18,-61.1l-9.63,0zm-6.25,37.43l11.07,-26l11,26l-22.07,0z" class="cls-1"/>
     <polygon fill="#ffffff" points="278.385009765625,91.95501708984375 278.385009765625,82.77496337890625 231.40499877929688,82.77496337890625 231.40499877929688,91.95501708984375 265.9649963378906,91.95501708984375 229.69500732421875,134.69500732421875 229.69500732421875,143.875 279.55499267578125,143.875 279.55499267578125,134.69500732421875 242.385009765625,134.69500732421875 278.385009765625,91.95501708984375 " class="cls-1"/>
     <path fill="#ffffff" d="m349.485,120.38501c0,10.89 -5.4,15.39 -15.21,15.39c-8.28,0 -15.21,-4.5 -15.21,-15.39l0,-37.61l-9.81,0l0,37.79c0,17.46 10.53,24.66 25,24.66s25,-7.2 25,-24.66l0,-37.79l-9.81,0l0.04,37.61z" class="cls-1"/>
     <polygon fill="#ffffff" points="401.864990234375,82.77496337890625 392.1449890136719,82.77496337890625 392.1449890136719,143.875 438.93499755859375,143.875 438.93499755859375,134.69500732421875 401.864990234375,134.69500732421875 401.864990234375,82.77496337890625 " class="cls-1"/>
    </g>
   </g>
  </g>
  <g>

   <g data-name="Camada 2" id="svg_7">
    <g id="svg_8">
     <path fill="#ffffff" d="m206.22501,65.54999l-27.19,-61.1l-9.63,0l-27.18,61.1l11.43,0l5.85,-14.49l29.43,0l5.85,14.49l11.44,0zm-43,-23.67l11.07,-26l11,26l-22.07,0z" class="cls-1"/>
     <path fill="#ffffff" d="m268.04501,41.06999c8.73,-2.16 14.67,-8.37 14.67,-17.9c0,-12.06 -9.36,-18.72 -21.6,-18.72l-26.89,0l0,61.1l9.81,0l0,-23.67l12.49,0l17.46,23.67l12.24,0l-18.18,-24.48zm-24,-8.18l0,-19.24l16.38,0c6.66,0 12.24,3.06 12.24,9.72s-5.58,9.54 -12.24,9.54l-16.38,-0.02z" class="cls-1"/>
     <path fill="#ffffff" d="m371.99501,65.54999l-27.18,-61.1l-9.59,0l-27.18,61.1l11.43,0l5.85,-14.49l29.43,0l5.85,14.49l11.39,0zm-43,-23.67l11.07,-26l11,26l-22.07,0z" class="cls-1"/>
     <path fill="#ffffff" d="m433.82501,41.06999c8.73,-2.16 14.67,-8.37 14.67,-17.9c0,-12.06 -9.36,-18.72 -21.6,-18.72l-26.91,0l0,61.1l9.81,0l0,-23.67l12.51,0l17.46,23.67l12.24,0l-18.18,-24.48zm-24,-8.18l0,-19.24l16.4,0c6.66,0 12.24,3.06 12.24,9.72s-5.58,9.54 -12.24,9.54l-16.4,-0.02z" class="cls-1"/>
     <path fill="#ffffff" d="m510.59501,4.44999l-9.63,0l-27.18,61.1l11.44,0l5.85,-14.49l29.43,0l5.85,14.49l11.42,0l-27.18,-61.1zm-15.84,37.43l11.07,-26l11,26l-22.07,0z" class="cls-1"/>
    </g>
   </g>
  </g>
  <g stroke="null">

   <g stroke="null" data-name="Camada 2" id="svg_9">
    <g stroke="null" id="svg_10">
     <path stroke="null" fill="#ffffff" d="m107.05977,82.88966l0,0l-49.5388,-80.28029l-46.13137,74.21129c-0.54519,0.81829 -1.04844,1.65607 -1.50975,2.41591l-1.91865,3.65309l0,0a54.11,50.27625 0 1 0 99.0776,0l0.02097,0zm-6.29064,-1.25666a48.78392,45.32753 0 0 1 4.50829,31.78675l-45.08293,-44.08061l0,-18.38234a37.96402,35.27423 0 0 0 17.44604,-6.45866l22.70921,36.52115l0.41938,0.61372zm-89.42146,36.56986l43.61511,-30.98794l0,5.16303l-42.04245,29.45851c-0.61858,-1.18847 -1.15328,-2.39643 -1.6146,-3.63361l0.04194,0zm48.78392,-101.95528l14.94027,24.0422a33.36137,30.99768 0 0 1 -14.94027,5.84494l0,-29.88714zm-5.2422,30.07223a26.76668,24.87023 0 0 1 -15.06609,-5.84494l15.06609,-24.22729l0,30.07223zm5.2422,29.86766l43.43688,42.45377c-0.15727,0.3994 -0.3355,0.79881 -0.50325,1.20795a63.95485,59.42358 0 0 1 -20.9059,-6.03003c-14.61526,-7.17954 -22.01724,-18.8402 -22.01724,-34.67025l-0.01048,-2.96144zm-22.88745,-31.45553a31.1177,28.91298 0 0 0 17.42508,6.34176c-1.56218,11.14436 -6.11241,19.30779 -13.55633,24.27599c-8.99562,6.00081 -20.25586,6.00081 -26.29488,5.44554c0.30405,-0.50656 0.61858,-0.97416 0.97505,-1.54891l21.45109,-34.51439zm-24.84803,40.6808a53.88982,50.07167 0 0 0 7.46489,0.47734c6.96164,0 16.24034,-1.25666 24.26091,-6.5853a34.78724,32.32253 0 0 0 10.79893,-11.88472l0,13.82329l-45.14583,32.06925a48.8678,45.40546 0 0 1 2.6211,-27.89986zm2.86224,40.69054l39.66249,-27.78296l0,50.25676a49.03555,45.56133 0 0 1 -39.66249,-22.4738zm44.87324,22.4738l0,-48.17207c10.05454,17.79785 31.90403,22.75631 40.65851,24.05194a49.07748,45.60029 0 0 1 -40.65851,24.12013z" class="cls-1"/>
    </g>
   </g>
  </g>
 </g>

</svg>